<svg width="300" height="300" xmlns="http://www.w3.org/2000/svg">
 <!-- Created with Method Draw - http://github.com/duopixel/Method-Draw/ -->

 <g>
  <title>background</title>
  <rect fill="#fff" id="canvas_background" height="302" width="302" y="-1" x="-1"/>
  <g display="none" overflow="visible" y="0" x="0" height="100%" width="100%" id="canvasGrid">
   <rect fill="url(#gridpattern)" stroke-width="0" y="0" x="0" height="100%" width="100%"/>
  </g>
 </g>
 <g>
  <title>Layer 1</title>
  <defs>
   <style>.cls-1{isolation:isolate;}.cls-2{mix-blend-mode:multiply;}.cls-3{fill:#fff;}.cls-4{fill:#fefefe;}.cls-5{fill:#fcfcfc;}.cls-6{fill:#fbfbfb;}.cls-7{fill:#f9f9f9;}.cls-8{fill:#f8f8f8;}.cls-9{fill:#f6f6f6;}.cls-10{fill:#f5f5f5;}.cls-11{fill:#f3f3f3;}.cls-12{fill:#f2f2f2;}.cls-13{fill:#f0f0f0;}.cls-14{fill:#efefef;}.cls-15{fill:#ededed;}.cls-16{fill:#ececec;}.cls-17{fill:#eaeaea;}.cls-18{fill:#e9e9e9;}.cls-19{fill:#e7e7e7;}.cls-20{fill:#e6e6e6;}.cls-21{fill:#e4e4e4;}.cls-22{fill:#e3e3e3;}.cls-23{fill:#e1e1e1;}.cls-24{fill:#e0e0e0;}.cls-25{fill:#dedede;}.cls-26{fill:#ddd;}.cls-27{fill:#dbdbdb;}.cls-28{fill:#dadada;}.cls-29{fill:#d8d8d8;}.cls-30{fill:#d7d7d7;}.cls-31{fill:#d5d5d5;}.cls-32{fill:#d4d4d4;}.cls-33{fill:#d2d2d2;}.cls-34{fill:#d1d1d1;}.cls-35{fill:#cfcfcf;}.cls-36{fill:#cecece;}.cls-37{fill:#ccc;}.cls-38{fill:#cbcbcb;}.cls-39{fill:#c9c9c9;}.cls-40{fill:#c8c8c8;}.cls-41{fill:#c6c6c6;}.cls-42{fill:#c5c5c5;}.cls-43{fill:#c3c3c3;}.cls-44{fill:#c2c2c2;}.cls-45{fill:silver;}.cls-46{fill:#bfbfbf;}.cls-47{fill:#bdbdbd;}.cls-48{fill:#bcbcbc;}.cls-49{fill:#bababa;}.cls-50{fill:#b9b9b9;}.cls-51{fill:#b7b7b7;}.cls-52{fill:#b6b6b6;}.cls-53{fill:#b4b4b4;}.cls-54{fill:#b3b3b3;}.cls-55{fill:url(#radial-gradient);}.cls-56{fill:url(#radial-gradient-2);}.cls-57{fill:#2b65c7;}.cls-58{fill:#2559a3;}.cls-59{fill:#387bdb;}.cls-60{fill:#6c9ffb;}</style>
  </defs>
  <g stroke="null" id="svg_130">
   <g stroke="null" transform="matrix(4.307240636912743,0,0,4.331463118282731,-0.000019300741218575973,0.000020152936072775343) " id="svg_12" class="cls-1">
    <g stroke="null" id="svg_7">
     <g stroke="null" id="svg_8">
      <g stroke="null" id="svg_13" class="cls-2">
       <path stroke="null" id="svg_14" d="m69.580008,36.439994a32.48,32.48 0 1 0 -32.47,32.48a32.47,32.47 0 0 0 32.47,-32.48z" class="cls-3"/>
       <path stroke="null" id="svg_15" d="m69.500008,36.369994a32.48,32.48 0 1 0 -32.47,32.48a32.47,32.47 0 0 0 32.47,-32.48z" class="cls-4"/>
       <path stroke="null" id="svg_16" d="m69.420008,36.299994a32.48,32.48 0 1 0 -32.47,32.48a32.47,32.47 0 0 0 32.47,-32.48z" class="cls-5"/>
       <path stroke="null" id="svg_17" d="m69.340008,36.239994a32.48,32.48 0 1 0 -32.47,32.47a32.48,32.48 0 0 0 32.47,-32.47z" class="cls-6"/>
       <path stroke="null" id="svg_18" d="m69.260008,36.169994a32.48,32.48 0 1 0 -32.5,32.47a32.48,32.48 0 0 0 32.5,-32.47z" class="cls-7"/>
       <path stroke="null" id="svg_19" d="m69.180008,36.099994a32.48,32.48 0 1 0 -32.42,32.48a32.47,32.47 0 0 0 32.42,-32.48z" class="cls-8"/>
       <path stroke="null" id="svg_20" d="m69.100008,36.009994a32.48,32.48 0 1 0 -32.47,32.5a32.47,32.47 0 0 0 32.47,-32.5z" class="cls-9"/>
       <path stroke="null" id="svg_21" d="m69.020008,36.009994a32.48,32.48 0 1 0 -32.47,32.43a32.47,32.47 0 0 0 32.47,-32.43z" class="cls-10"/>
       <path stroke="null" id="svg_22" d="m68.940008,35.899994a32.48,32.48 0 1 0 -32.47,32.47a32.48,32.48 0 0 0 32.47,-32.47z" class="cls-11"/>
       <path stroke="null" id="svg_23" d="m68.860008,35.829994a32.47,32.47 0 1 0 -32.47,32.47a32.48,32.48 0 0 0 32.47,-32.47z" class="cls-12"/>
       <path stroke="null" id="svg_24" d="m68.760008,35.759994a32.48,32.48 0 1 0 -32.45,32.48a32.48,32.48 0 0 0 32.45,-32.48z" class="cls-13"/>
       <path stroke="null" id="svg_25" d="m68.760008,35.689994a32.48,32.48 0 1 0 -32.53,32.48a32.48,32.48 0 0 0 32.53,-32.48z" class="cls-14"/>
       <path stroke="null" id="svg_26" d="m68.630008,35.619994a32.48,32.48 0 1 0 -32.48,32.48a32.48,32.48 0 0 0 32.48,-32.48z" class="cls-15"/>
       <path stroke="null" id="svg_27" d="m68.550008,35.549994a32.48,32.48 0 1 0 -32.48,32.46a32.48,32.48 0 0 0 32.48,-32.46z" class="cls-16"/>
       <path stroke="null" id="svg_28" d="m68.470008,35.489994a32.48,32.48 0 1 0 -32.48,32.52a32.48,32.48 0 0 0 32.48,-32.52z" class="cls-17"/>
       <path stroke="null" id="svg_29" d="m68.390008,35.419994a32.48,32.48 0 1 0 -32.48,32.47a32.48,32.48 0 0 0 32.48,-32.47z" class="cls-18"/>
       <path stroke="null" id="svg_30" d="m68.310008,35.349994a32.48,32.48 0 1 0 -32.48,32.48a32.48,32.48 0 0 0 32.48,-32.48z" class="cls-19"/>
       <path stroke="null" id="svg_31" d="m68.230008,35.279994a32.48,32.48 0 1 0 -32.47,32.48a32.48,32.48 0 0 0 32.47,-32.48z" class="cls-20"/>
       <path stroke="null" id="svg_32" d="m68.150008,35.209994a32.48,32.48 0 1 0 -32.48,32.48a32.48,32.48 0 0 0 32.48,-32.48z" class="cls-21"/>
       <path stroke="null" id="svg_33" d="m68.070008,35.149994a32.48,32.48 0 1 0 -32.47,32.47a32.48,32.48 0 0 0 32.47,-32.47z" class="cls-22"/>
       <path stroke="null" id="svg_34" d="m67.990008,35.079994a32.48,32.48 0 1 0 -32.47,32.47a32.48,32.48 0 0 0 32.47,-32.47z" class="cls-23"/>
       <path stroke="null" id="svg_35" d="m67.910008,35.009994a32.48,32.48 0 1 0 -32.47,32.48a32.47,32.47 0 0 0 32.47,-32.48z" class="cls-24"/>
       <path stroke="null" id="svg_36" d="m67.830008,34.939994a32.48,32.48 0 1 0 -32.47,32.48a32.47,32.47 0 0 0 32.47,-32.48z" class="cls-25"/>
       <path stroke="null" id="svg_37" d="m67.760008,34.869994a32.48,32.48 0 1 0 -32.48,32.48a32.47,32.47 0 0 0 32.48,-32.48z" class="cls-26"/>
       <path stroke="null" id="svg_38" d="m67.670008,34.809994a32.48,32.48 0 1 0 -32.47,32.47a32.48,32.48 0 0 0 32.47,-32.47z" class="cls-27"/>
       <path stroke="null" id="svg_39" d="m67.590008,34.739994a32.48,32.48 0 1 0 -32.47,32.47a32.48,32.48 0 0 0 32.47,-32.47z" class="cls-28"/>
       <path stroke="null" id="svg_40" d="m67.510008,34.669994a32.48,32.48 0 1 0 -32.47,32.48a32.47,32.47 0 0 0 32.47,-32.48z" class="cls-29"/>
       <path stroke="null" id="svg_41" d="m67.430008,34.599994a32.47,32.47 0 1 0 -32.47,32.48a32.47,32.47 0 0 0 32.47,-32.48z" class="cls-30"/>
       <path stroke="null" id="svg_42" d="m67.360008,34.529994a32.48,32.48 0 1 0 -32.48,32.48a32.48,32.48 0 0 0 32.48,-32.48z" class="cls-31"/>
       <path stroke="null" id="svg_43" d="m67.280008,34.469994a32.48,32.48 0 1 0 -32.52,32.47a32.48,32.48 0 0 0 32.52,-32.47z" class="cls-32"/>
       <path stroke="null" id="svg_44" d="m67.200008,34.399994a32.48,32.48 0 1 0 -32.44,32.47a32.48,32.48 0 0 0 32.44,-32.47z" class="cls-33"/>
       <path stroke="null" id="svg_45" d="m67.120008,34.329994a32.48,32.48 0 1 0 -32.48,32.47a32.48,32.48 0 0 0 32.48,-32.47z" class="cls-34"/>
       <path stroke="null" id="svg_46" d="m67.040008,34.259994a32.48,32.48 0 1 0 -32.48,32.48a32.48,32.48 0 0 0 32.48,-32.48z" class="cls-35"/>
       <path stroke="null" id="svg_47" d="m66.960008,34.189994a32.48,32.48 0 1 0 -32.48,32.48a32.48,32.48 0 0 0 32.48,-32.48z" class="cls-36"/>
       <path stroke="null" id="svg_48" d="m66.880008,34.119994a32.48,32.48 0 1 0 -32.48,32.48a32.48,32.48 0 0 0 32.48,-32.48z" class="cls-37"/>
       <path stroke="null" id="svg_49" d="m66.760008,34.059994a32.48,32.48 0 1 0 -32.44,32.47a32.48,32.48 0 0 0 32.44,-32.47z" class="cls-38"/>
       <path stroke="null" id="svg_50" d="m66.760008,34.009994a32.48,32.48 0 1 0 -32.52,32.45a32.48,32.48 0 0 0 32.52,-32.45z" class="cls-39"/>
       <path stroke="null" id="svg_51" d="m66.640008,33.919994a32.48,32.48 0 1 0 -32.47,32.48a32.47,32.47 0 0 0 32.47,-32.48z" class="cls-40"/>
       <path stroke="null" id="svg_52" d="m66.560008,33.849994a32.48,32.48 0 1 0 -32.47,32.48a32.47,32.47 0 0 0 32.47,-32.48z" class="cls-41"/>
       <path stroke="null" id="svg_53" d="m66.480008,33.779994a32.48,32.48 0 1 0 -32.47,32.48a32.47,32.47 0 0 0 32.47,-32.48z" class="cls-42"/>
       <path stroke="null" id="svg_54" d="m66.400008,33.719994a32.48,32.48 0 1 0 -32.47,32.47a32.48,32.48 0 0 0 32.47,-32.47z" class="cls-43"/>
       <path stroke="null" id="svg_55" d="m66.320008,33.649994a32.48,32.48 0 1 0 -32.47,32.47a32.48,32.48 0 0 0 32.47,-32.47z" class="cls-44"/>
       <path stroke="null" id="svg_56" d="m66.240008,33.579994a32.48,32.48 0 1 0 -32.48,32.48a32.47,32.47 0 0 0 32.48,-32.48z" class="cls-45"/>
       <path stroke="null" id="svg_57" d="m66.160008,33.509994a32.48,32.48 0 1 0 -32.47,32.5a32.47,32.47 0 0 0 32.47,-32.5z" class="cls-46"/>
       <path stroke="null" id="svg_58" d="m66.080008,33.439994a32.48,32.48 0 1 0 -32.47,32.48a32.47,32.47 0 0 0 32.47,-32.48z" class="cls-47"/>
       <path stroke="null" id="svg_59" d="m66.000008,33.379994a32.47,32.47 0 1 0 -32.47,32.47a32.48,32.48 0 0 0 32.47,-32.47z" class="cls-48"/>
       <path stroke="null" id="svg_60" d="m65.920008,33.309994a32.47,32.47 0 1 0 -32.47,32.47a32.48,32.48 0 0 0 32.47,-32.47z" class="cls-49"/>
       <path stroke="null" id="svg_61" d="m65.850008,33.239994a32.48,32.48 0 1 0 -32.48,32.47a32.47,32.47 0 0 0 32.48,-32.47z" class="cls-50"/>
       <path stroke="null" id="svg_62" d="m65.760008,33.169994a32.48,32.48 0 1 0 -32.47,32.48a32.48,32.48 0 0 0 32.47,-32.48z" class="cls-51"/>
       <path stroke="null" id="svg_63" d="m65.690008,33.099994a32.48,32.48 0 1 0 -32.48,32.48a32.48,32.48 0 0 0 32.48,-32.48z" class="cls-52"/>
       <path stroke="null" id="svg_64" d="m65.610008,33.009994a32.48,32.48 0 1 0 -32.48,32.5a32.48,32.48 0 0 0 32.48,-32.5z" class="cls-53"/>
       <path stroke="null" id="svg_65" d="m65.530008,33.009994a32.48,32.48 0 1 0 -32.48,32.43a32.48,32.48 0 0 0 32.48,-32.43z" class="cls-54"/>
      </g>
      <path stroke="null" id="svg_66" d="m0.000008,32.379994a32.38,32.38 0 1 1 32.37,32.38a32.37,32.37 0 0 1 -32.37,-32.38z" class="cls-55"/>
      <path stroke="null" id="svg_67" d="m0.960008,32.859994a31.9,31.9 0 1 1 31.89,31.9a31.89,31.89 0 0 1 -31.89,-31.9z" class="cls-56"/>
      <path stroke="null" id="svg_68" d="m28.160008,22.659994a3.92,3.92 0 0 0 1.21,-0.44a10.82,10.82 0 0 0 -2,-6c-4.21,-5.35 -11,3 -12.42,6.61c-0.61,1.54 -1.09,3.13 -1.72,4.67c-0.71,1.73 -1.48,3.45 -2.11,5.23c-1.24,3.47 -1.55,7.25 -1.89,10.91a22.63,22.63 0 0 0 -0.08,5a2.76,2.76 0 0 0 1.33,1.43c2.56,1.38 5.9,1 8.67,0.53c3.27,-0.51 7.5,-1 9.56,-4c1.25,-1.8 1.39,-4 1.34,-6.11c0,-0.15 0,-0.3 0,-0.45a80.9,80.9 0 0 1 -0.61,-13.2q0,-0.6 0.06,-1.23l-0.07,0a3.61,3.61 0 0 1 -1.27,-2.95zm-2.79,17.35a0.1,0.1 0 1 1 -0.19,-0.08a2.83,2.83 0 0 0 -0.32,-2.74l-0.16,-0.27c-0.48,1.17 -1.09,2.25 -1.66,3.37a8.25,8.25 0 0 1 0.8,1.6a4.48,4.48 0 0 1 0,1.55c0,0.12 -0.22,0.12 -0.19,0a2.71,2.71 0 0 0 -0.31,-2a4.88,4.88 0 0 1 -0.51,-0.71l-0.22,0.45a4.89,4.89 0 0 0 -0.21,3.33a2.08,2.08 0 0 1 0,1.35c0,0.13 -0.27,0.1 -0.22,0c0.27,-0.81 -0.32,-2 -0.38,-2.89a3.87,3.87 0 0 1 0.32,-1.93c0.45,-1 1,-2 1.47,-3a7,7 0 0 0 1,-3.27a7.33,7.33 0 0 0 -0.79,-2.35a2.79,2.79 0 0 1 0,0.91c-0.09,0.44 -0.42,0.73 -0.5,1.19c0,0.07 -0.13,0.1 -0.14,0a1.7,1.7 0 0 1 0.37,-1a2.12,2.12 0 0 0 0.16,-1.51a0.07,0.07 0 0 1 0,-0.07a5.27,5.27 0 0 1 -0.67,-2.69a5,5 0 0 1 0.56,-1.82a0.42,0.42 0 0 1 -0.33,-0.19a3.73,3.73 0 0 0 -1.08,1a6.27,6.27 0 0 0 -0.84,3.41a5.36,5.36 0 0 1 -0.26,1.56c0,0.71 0.66,1.18 0.79,1.9a2.24,2.24 0 0 1 -0.1,1.4a0.09,0.09 0 1 1 -0.17,-0.07a2.41,2.41 0 0 0 -0.57,-2.35a3.48,3.48 0 0 1 -0.17,-0.33a3.46,3.46 0 0 1 -1,1.11a5.32,5.32 0 0 0 -1.09,1.45c-0.07,0.5 0.27,0.8 0.24,1.28a4.57,4.57 0 0 1 -0.24,1.2a4.64,4.64 0 0 1 -1.55,2.21c-0.14,0.09 -0.24,-0.09 -0.12,-0.18a4.33,4.33 0 0 0 1.54,-2.78a5.14,5.14 0 0 0 -0.24,-1.36a3.62,3.62 0 0 1 -1.32,0.61c-1.2,0.41 -2.1,1 -2.3,2.37a6.74,6.74 0 0 0 0.08,2.72c0,0.1 -0.15,0.2 -0.18,0.08c-0.32,-1.1 -0.58,-3.2 0.2,-4.17a4.24,4.24 0 0 1 1.08,-1l-0.34,0c-0.46,-0.11 -0.87,-0.42 -1.38,-0.25a2.38,2.38 0 0 0 -1.16,1a0.1,0.1 0 1 1 -0.15,-0.12a2.36,2.36 0 0 1 1.7,-1.16c0.33,0 0.58,0.18 0.88,0.25a2.84,2.84 0 0 0 1.39,-0.07c0.58,-0.2 1.34,-0.46 1.56,-1a2.88,2.88 0 0 1 0.32,-0.66a5.27,5.27 0 0 1 0.9,-0.72a3.05,3.05 0 0 0 1.31,-2.47l0,0a1.53,1.53 0 0 1 -1.21,0.42a2.43,2.43 0 0 0 -1.71,0.35c-0.31,0.28 -0.59,0.58 -0.89,0.87c0,0 -0.1,0 -0.06,-0.07c0.46,-0.51 0.84,-1.13 1.55,-1.3a4,4 0 0 1 1,-0.12a1.93,1.93 0 0 0 1.35,-0.46a8.18,8.18 0 0 1 0.26,-2.36a5,5 0 0 1 2,-2.56a3.67,3.67 0 0 1 -1.41,0.14a8.58,8.58 0 0 0 -1.83,0.09l0,0c-0.55,0.3 -0.62,1.2 -0.79,1.93a6.38,6.38 0 0 1 0.19,0.72a2.75,2.75 0 0 1 0,0.7c0,0.07 -0.13,0.12 -0.13,0a2.29,2.29 0 0 0 -0.13,-0.9l0,-0.08a0.39,0.39 0 0 1 -0.06,0.15a13.47,13.47 0 0 1 -1.35,1.87c-0.09,0.11 -0.23,0 -0.15,-0.11a6.47,6.47 0 0 0 1.53,-3.37a1.24,1.24 0 0 1 0.24,-0.68a3.44,3.44 0 0 0 -0.49,0.21a6.57,6.57 0 0 0 -2.13,2.09c-0.1,0.13 -0.26,0 -0.16,-0.13c0.26,-0.35 0.51,-0.69 0.78,-1a1.51,1.51 0 0 1 -0.39,0a2.29,2.29 0 0 0 -1.84,0.88a21.15,21.15 0 0 0 -1.7,2.5c-0.07,0.12 -0.25,0.06 -0.18,-0.07a16.09,16.09 0 0 1 1.88,-2.77a2.17,2.17 0 0 1 1,-0.64c0.46,-0.15 1,-0.07 1.44,-0.24l0.08,0a3.9,3.9 0 0 1 2,-1.25c1.14,-0.3 2.44,0 3.49,-0.43a1,1 0 0 0 -0.35,-0.62c-0.46,-0.38 -0.87,-1.12 -1.48,-1.18a6.38,6.38 0 0 1 -1,-0.14l0,0a3.11,3.11 0 0 1 -3.29,0.74c-0.06,0 0,-0.13 0.06,-0.11a2.71,2.71 0 0 0 2.16,-0.2a4.64,4.64 0 0 1 0.81,-0.52a1.89,1.89 0 0 1 -1,-0.83s0.06,-0.13 0.1,-0.07a2.16,2.16 0 0 0 2,0.85a2,2 0 0 1 0.67,0.09c-0.14,-0.22 -0.26,-0.43 -0.38,-0.63a6.21,6.21 0 0 1 -0.32,-1.48a5,5 0 0 0 -1.44,-2.2c0,-0.06 0,-0.16 0.08,-0.11a4.52,4.52 0 0 1 1.65,2.58a2.57,2.57 0 0 0 0.11,0.44a2.64,2.64 0 0 1 0.19,-0.95a7.18,7.18 0 0 0 0.93,-3.33s0.07,-0.07 0.08,0a3.7,3.7 0 0 1 -0.33,2.2a5.33,5.33 0 0 0 -0.76,2.65a6,6 0 0 0 1,1.63c0.16,0.15 0.33,0.31 0.48,0.47l0,0l0.2,0.14a3.56,3.56 0 0 0 0.27,-0.51a2.67,2.67 0 0 0 1,1.4l-0.17,0.13a4.21,4.21 0 0 0 -0.75,1.57a3.57,3.57 0 0 0 -0.06,1.12c0.23,0.64 1.22,0.39 1.58,0.91c0.06,0.09 -0.06,0.27 -0.16,0.21a4.67,4.67 0 0 0 -0.49,-0.27a3.78,3.78 0 0 1 -0.56,-0.21a1,1 0 0 1 -0.3,-0.22a7.6,7.6 0 0 0 0.7,1.87a5.09,5.09 0 0 1 0.63,4.17l-0.13,0.36a9.33,9.33 0 0 1 0.78,1.73a3.42,3.42 0 0 1 -0.3,1.85zm0.32,-14a6,6 0 0 0 -0.68,0.43a2.31,2.31 0 0 1 -1,-1.79a2,2 0 0 1 0.25,-0.35a5,5 0 0 1 0.93,-0.78l0.11,-0.09a4.52,4.52 0 0 0 1.3,2.41a3.17,3.17 0 0 0 -0.91,0.17zm1.66,-0.23a3.77,3.77 0 0 1 -1.69,-2.65a2.85,2.85 0 0 1 1.85,-0.47l0.25,0a4.41,4.41 0 0 0 0.91,3l-1.32,0.12z" class="cls-3"/>
      <path stroke="null" id="svg_69" d="m55.220008,43.639994c-0.34,-3.66 -0.65,-7.44 -1.89,-10.91c-0.63,-1.78 -1.4,-3.5 -2.11,-5.23c-0.63,-1.54 -1.11,-3.13 -1.72,-4.67c-1.41,-3.58 -8.2,-12 -12.42,-6.61a10.9,10.9 0 0 0 -2,6a3.5,3.5 0 0 0 1.66,0.48a5.1,5.1 0 0 1 -1,3c-0.25,0 -0.49,-0.05 -0.7,-0.09q0,0.63 0.06,1.23a80.9,80.9 0 0 1 -0.65,13.17c0,0.15 0,0.3 0,0.45c-0.06,2.15 0.08,4.31 1.34,6.11c2,3 6.28,3.48 9.56,4c2.76,0.44 6.1,0.85 8.67,-0.53a2.84,2.84 0 0 0 1.33,-1.43a23.26,23.26 0 0 0 -0.13,-4.97zm-15,-19.3a3.64,3.64 0 0 1 0.6,1.09a3.4,3.4 0 0 1 -0.78,1.52l0,0a8.91,8.91 0 0 0 -1.14,-0.79a4.05,4.05 0 0 0 0.86,-2.26c0.13,0.11 0.28,0.29 0.43,0.44l0.03,0zm-4,1.41a5.84,5.84 0 0 0 1,-3.06a3.06,3.06 0 0 1 2.12,0.87l0,0a3.62,3.62 0 0 1 -0.77,2.4a22.07,22.07 0 0 0 -2.41,-0.21l0.06,0zm15.19,12.26a2.44,2.44 0 0 0 -1.17,-1c-0.51,-0.17 -0.91,0.14 -1.38,0.25l-0.33,0a4.38,4.38 0 0 1 1.07,1c0.79,1 0.53,3.07 0.21,4.17c0,0.12 -0.21,0 -0.18,-0.08a6.93,6.93 0 0 0 0.08,-2.72a2.88,2.88 0 0 0 -2.31,-2.37a3.62,3.62 0 0 1 -1.32,-0.61c0,0.45 -0.3,0.82 -0.23,1.36a4.27,4.27 0 0 0 1.53,2.78c0.12,0.09 0,0.27 -0.11,0.18a4.59,4.59 0 0 1 -1.53,-2.24a5,5 0 0 1 -0.24,-1.2c0,-0.48 0.31,-0.78 0.24,-1.28a5.14,5.14 0 0 0 -1.13,-1.45a3.46,3.46 0 0 1 -1,-1.11a2.08,2.08 0 0 1 -0.17,0.33c-0.47,0.72 -0.95,1.45 -0.56,2.35c0,0.13 -0.12,0.19 -0.18,0.07a2.24,2.24 0 0 1 -0.12,-1.42c0.13,-0.72 0.75,-1.19 0.78,-1.9a5.37,5.37 0 0 1 -0.25,-1.56a6.36,6.36 0 0 0 -0.85,-3.41a3.49,3.49 0 0 0 -1.08,-1a0.42,0.42 0 0 1 -0.32,0.19a5.2,5.2 0 0 1 0.55,1.82a5.27,5.27 0 0 1 -0.67,2.69s0,0 0,0.07a2.12,2.12 0 0 0 0.02,1.44a1.76,1.76 0 0 1 0.36,1c0,0.09 -0.12,0.06 -0.14,0c-0.08,-0.46 -0.4,-0.75 -0.5,-1.19a2.79,2.79 0 0 1 0,-0.91a7.31,7.31 0 0 0 -0.72,2.33a7.15,7.15 0 0 0 1,3.27c0.47,1 1,2 1.47,3a3.76,3.76 0 0 1 0.32,1.93c-0.06,0.85 -0.64,2.08 -0.37,2.89c0,0.14 -0.18,0.17 -0.22,0a2.08,2.08 0 0 1 0,-1.35a4.84,4.84 0 0 0 -0.2,-3.24l-0.22,-0.45a4.23,4.23 0 0 1 -0.51,0.71a2.76,2.76 0 0 0 -0.31,2c0,0.13 -0.16,0.13 -0.18,0a4,4 0 0 1 0,-1.55a7.68,7.68 0 0 1 0.79,-1.6c-0.57,-1.12 -1.17,-2.2 -1.65,-3.37l-0.17,0.27a2.83,2.83 0 0 0 -0.32,2.74c0.05,0.15 -0.13,0.2 -0.18,0.08a3.33,3.33 0 0 1 -0.3,-1.81a9.36,9.36 0 0 1 0.79,-1.73l-0.14,-0.36a5.09,5.09 0 0 1 0.63,-4.17a7.22,7.22 0 0 0 0.77,-1.84a1,1 0 0 1 -0.3,0.22a3.78,3.78 0 0 1 -0.56,0.21a4.53,4.53 0 0 0 -0.48,0.27c-0.11,0.06 -0.23,-0.12 -0.17,-0.21c0.36,-0.52 1.35,-0.27 1.58,-0.91a3.88,3.88 0 0 0 0,-1.12a3.92,3.92 0 0 0 -0.52,-1.21a4.25,4.25 0 0 0 0.84,-1.4l0.18,-0.12l0,0c0.15,-0.16 0.32,-0.32 0.49,-0.47a6.25,6.25 0 0 0 1,-1.63a5.23,5.23 0 0 0 -0.82,-2.63a3.7,3.7 0 0 1 -0.24,-2.18s0.07,0 0.07,0a7.19,7.19 0 0 0 0.93,3.35a2.87,2.87 0 0 1 0.19,0.95a3.93,3.93 0 0 0 0.1,-0.44a4.57,4.57 0 0 1 1.65,-2.58c0.06,-0.05 0.14,0 0.09,0.11a4.84,4.84 0 0 0 -1.44,2.2a6.22,6.22 0 0 1 -0.33,1.48l-0.37,0.63a2,2 0 0 1 0.67,-0.09a2.15,2.15 0 0 0 2,-0.85c0,-0.06 0.14,0 0.1,0.07a1.89,1.89 0 0 1 -1,0.83a4.72,4.72 0 0 1 0.82,0.52a2.7,2.7 0 0 0 2.16,0.2c0.06,0 0.11,0.08 0,0.11a3.11,3.11 0 0 1 -3.29,-0.74l0,0a6.23,6.23 0 0 1 -1,0.14c-0.61,0.06 -1,0.8 -1.47,1.18a1.06,1.06 0 0 0 -0.36,0.62c1.06,0.43 2.35,0.13 3.5,0.43a3.91,3.91 0 0 1 2,1.25l0.08,0c0.44,0.17 1,0.09 1.45,0.24a2.23,2.23 0 0 1 1,0.64a16,16 0 0 1 1.87,2.77c0.08,0.13 -0.11,0.19 -0.18,0.07a21.15,21.15 0 0 0 -1.7,-2.5a2.29,2.29 0 0 0 -1.84,-0.88a1.43,1.43 0 0 1 -0.38,0c0.26,0.32 0.51,0.66 0.78,1c0.09,0.13 -0.07,0.26 -0.16,0.13a6.77,6.77 0 0 0 -2.12,-2.14a4.12,4.12 0 0 0 -0.5,-0.21a1.34,1.34 0 0 1 0.25,0.68a6.46,6.46 0 0 0 1.55,3.42c0.08,0.11 0,0.22 -0.14,0.11a12.69,12.69 0 0 1 -1.28,-1.82l-0.06,-0.15a0.2,0.2 0 0 1 0,0.08a2.11,2.11 0 0 0 -0.12,0.9c0,0.1 -0.12,0 -0.13,0a3.31,3.31 0 0 1 -0.06,-0.7a6.44,6.44 0 0 1 0.2,-0.72c-0.18,-0.73 -0.25,-1.63 -0.8,-1.93l0,0a8.51,8.51 0 0 0 -1.94,-0.18a3.67,3.67 0 0 1 -1.35,-0.15a5,5 0 0 1 2,2.56a8.54,8.54 0 0 1 0.25,2.36a2,2 0 0 0 1.35,0.46a4,4 0 0 1 1,0.12c0.71,0.17 1.09,0.79 1.55,1.3c0,0.05 0,0.11 -0.06,0.07c-0.3,-0.29 -0.58,-0.59 -0.89,-0.87a2.43,2.43 0 0 0 -1.71,-0.35a1.53,1.53 0 0 1 -1.21,-0.42l0,0a3.06,3.06 0 0 0 1.28,2.48a5.61,5.61 0 0 1 0.89,0.72a2.52,2.52 0 0 1 0.32,0.66c0.22,0.54 1,0.8 1.56,1a2.89,2.89 0 0 0 1.4,0.07c0.3,-0.07 0.54,-0.28 0.87,-0.25a2.36,2.36 0 0 1 1.7,1.16c0.08,0.08 -0.07,0.23 -0.15,0.08l0.06,0z" class="cls-3"/>
      <path stroke="null" id="svg_70" d="m33.950008,13.559994l0,-2.5a3.84,3.84 0 0 1 -3.5,0.11l0,2.29a3.19,3.19 0 0 0 3.5,0.1z" class="cls-3"/>
      <path stroke="null" id="svg_71" d="m33.950008,10.599994l0,-2.59a4.09,4.09 0 0 1 -3.5,0.18l0,2.32c0.75,0.85 2.38,0.64 3.5,0.09z" class="cls-3"/>
      <path stroke="null" id="svg_72" d="m33.950008,16.499994l0,-2.49a3.72,3.72 0 0 1 -3.5,0.11l0,2.29a3,3 0 0 0 3.5,0.09z" class="cls-3"/>
      <path stroke="null" id="svg_73" d="m33.950008,19.009994l0,-2a3.51,3.51 0 0 1 -3.5,0.11l0,1.73a3.56,3.56 0 0 0 3.5,0.16z" class="cls-3"/>
      <path stroke="null" id="svg_74" d="m34.020008,21.289994a0.83,0.83 0 0 1 -0.07,-0.13l0,-1.72a4.05,4.05 0 0 1 -3.5,0l0,1.8l-0.09,0.13l0,0a3.73,3.73 0 0 0 3.66,-0.08z" class="cls-3"/>
      <path stroke="null" id="svg_75" d="m30.320008,21.849994a6.22,6.22 0 0 0 1,3.57l1.84,0a12.4,12.4 0 0 0 1,-3.77a4.12,4.12 0 0 1 -3.84,0.2z" class="cls-3"/>
      <path stroke="null" id="svg_76" d="m35.040008,22.219994a2.94,2.94 0 0 1 -0.47,-0.31a12.72,12.72 0 0 1 -0.93,3.52l0.73,0a2.27,2.27 0 0 0 0.63,0.16a29.75,29.75 0 0 1 0.04,-3.37z" class="cls-3"/>
      <path stroke="null" id="svg_77" d="m29.370008,22.219994a29.75,29.75 0 0 1 0,3.4a2.36,2.36 0 0 0 0.64,-0.16l0.73,0a7.26,7.26 0 0 1 -0.89,-3.56a2.78,2.78 0 0 1 -0.48,0.32z" class="cls-3"/>
      <path stroke="null" id="svg_78" d="m36.620008,57.009994a0,0 0 0 0 0,0a2.36,2.36 0 0 0 -0.08,-0.89a1.53,1.53 0 0 0 -0.08,0.64a0.31,0.31 0 0 0 -0.25,0a1.29,1.29 0 0 1 -0.94,-0.3s0,0 0,0a0.34,0.34 0 0 1 -0.18,-0.25l-0.09,-0.35a0.43,0.43 0 0 1 0,-0.35l0,0c0.15,-0.28 0.39,-0.62 0.69,-0.69a0.31,0.31 0 0 0 0.2,-0.15c0.19,0.29 0.33,0.49 0.37,0.47a2.37,2.37 0 0 0 -0.34,-0.76s0,0 0,0l0,0s0,0 0,0a2.69,2.69 0 0 0 -0.52,-0.73s0.07,0.27 0.25,0.6a0.3,0.3 0 0 0 -0.23,0.1a1.24,1.24 0 0 1 -1,0.2l0,0a0.33,0.33 0 0 1 -0.27,-0.12a3.19,3.19 0 0 0 -0.26,-0.26a0.43,0.43 0 0 1 -0.14,-0.32l0,0a1.26,1.26 0 0 1 0.25,-0.94a0.3,0.3 0 0 0 0.1,-0.23c0.3,0.16 0.53,0.25 0.55,0.22a2.36,2.36 0 0 0 -0.68,-0.49s0,0 0,0l-0.05,0a2.52,2.52 0 0 0 -0.82,-0.37a1.68,1.68 0 0 0 0.52,0.39a0.34,0.34 0 0 0 -0.15,0.2c-0.07,0.3 -0.43,0.52 -0.73,0.66l0,0a0.53,0.53 0 0 1 -0.39,0l-0.37,-0.28a0.5,0.5 0 0 1 -0.29,-0.2l0,0a1.29,1.29 0 0 1 -0.25,-1a0.31,0.31 0 0 0 0,-0.25c0.34,0 0.59,0 0.59,-0.08a2.32,2.32 0 0 0 -0.83,-0.08l-0.1,0a2.4,2.4 0 0 0 -0.89,0.08a1.53,1.53 0 0 0 0.64,0.08a0.36,0.36 0 0 0 0,0.25a1.25,1.25 0 0 1 -0.3,0.94l0,0a0.54,0.54 0 0 1 -0.32,0.21l-0.2,0.06l-0.09,0a0.42,0.42 0 0 1 -0.35,0l0,0a1.26,1.26 0 0 1 -0.69,-0.69a0.29,0.29 0 0 0 -0.16,-0.2c0.29,-0.19 0.49,-0.33 0.47,-0.37a2.37,2.37 0 0 0 -0.76,0.34l0,0l0,0l0,0c-0.42,0.25 -0.75,0.48 -0.72,0.52s0.27,-0.07 0.59,-0.25a0.34,0.34 0 0 0 0.1,0.23a1.24,1.24 0 0 1 0.21,1l0,0a0.37,0.37 0 0 1 -0.13,0.27l0,0l-0.15,0.15l-0.07,0.08a0.45,0.45 0 0 1 -0.32,0.14l0,0a1.28,1.28 0 0 1 -0.94,-0.25a0.3,0.3 0 0 0 -0.23,-0.1c0.16,-0.3 0.25,-0.53 0.22,-0.55a2.36,2.36 0 0 0 -0.49,0.68s0,0 0,0l0,0a0,0 0 0 1 0,0a2.52,2.52 0 0 0 -0.37,0.82s0.2,-0.2 0.4,-0.52a0.29,0.29 0 0 0 0.19,0.15c0.3,0.07 0.52,0.43 0.66,0.73c0,0 0,0 0,0a0.35,0.35 0 0 1 0,0.3s0,0 0,0.06l-0.07,0.25a0.09,0.09 0 0 1 0,0a0.42,0.42 0 0 1 -0.2,0.27l0,0a1.27,1.27 0 0 1 -0.94,0.25a0.31,0.31 0 0 0 -0.25,0a1.76,1.76 0 0 0 -0.08,-0.59a2,2 0 0 0 -0.09,0.83s0,0 0,0l0,0s0,0 0,0a2.28,2.28 0 0 0 0.09,0.89a1.75,1.75 0 0 0 0.08,-0.64a0.33,0.33 0 0 0 0.24,0a1.23,1.23 0 0 1 0.94,0.3l0,0a0.55,0.55 0 0 1 0.22,0.32l0.06,0.25s0,0 0,0a0.45,0.45 0 0 1 0,0.34l0,0c-0.15,0.29 -0.38,0.62 -0.69,0.69a0.31,0.31 0 0 0 -0.2,0.15c-0.18,-0.28 -0.33,-0.48 -0.36,-0.46a2.13,2.13 0 0 0 0.34,0.76a0.08,0.08 0 0 0 0,0l0,0l0,0c0.24,0.43 0.47,0.76 0.52,0.73a1.79,1.79 0 0 0 -0.25,-0.6a0.27,0.27 0 0 0 0.22,-0.09a1.27,1.27 0 0 1 1,-0.21l0,0a0.34,0.34 0 0 1 0.27,0.13l0.07,0.06a1.85,1.85 0 0 0 0.14,0.14s0,0 0.05,0a0.5,0.5 0 0 1 0.15,0.32l0,0a1.29,1.29 0 0 1 -0.26,0.94a0.3,0.3 0 0 0 -0.1,0.23a1.4,1.4 0 0 0 -0.54,-0.22s0.27,0.25 0.67,0.49l0,0l0.05,0a2.52,2.52 0 0 0 0.82,0.38s-0.2,-0.2 -0.52,-0.4a0.29,0.29 0 0 0 0.15,-0.19c0.08,-0.3 0.43,-0.52 0.73,-0.66l0,0a0.55,0.55 0 0 1 0.38,0l0,0l0.29,0.08a0.46,0.46 0 0 1 0.29,0.2l0,0a1.27,1.27 0 0 1 0.25,0.94a0.31,0.31 0 0 0 0,0.25a1.67,1.67 0 0 0 -0.58,0.08a1.94,1.94 0 0 0 0.83,0.09l0.1,0a2.21,2.21 0 0 0 0.88,-0.09a1.75,1.75 0 0 0 -0.64,-0.08a0.28,0.28 0 0 0 0,-0.24a1.27,1.27 0 0 1 0.3,-0.94l0,0a0.55,0.55 0 0 1 0.32,-0.22l0.17,0l0.08,0l0.05,0a0.48,0.48 0 0 1 0.35,0l0,0a1.29,1.29 0 0 1 0.69,0.69a0.31,0.31 0 0 0 0.15,0.2c-0.29,0.18 -0.49,0.33 -0.47,0.36a2.13,2.13 0 0 0 0.76,-0.34l0.06,0l0,0a2.31,2.31 0 0 0 0.73,-0.52a1.79,1.79 0 0 0 -0.6,0.25a0.28,0.28 0 0 0 -0.1,-0.22a1.26,1.26 0 0 1 -0.2,-1l0,0a0.52,0.52 0 0 1 0.14,-0.33l0.22,-0.21l0,0a0.48,0.48 0 0 1 0.32,-0.15a1.26,1.26 0 0 1 0.94,0.26a0.3,0.3 0 0 0 0.23,0.1a1.4,1.4 0 0 0 -0.22,0.54s0.25,-0.27 0.49,-0.67l0,0l0,0s0,0 0,0a2.52,2.52 0 0 0 0.37,-0.81s-0.2,0.2 -0.39,0.52a0.34,0.34 0 0 0 -0.2,-0.15c-0.3,-0.08 -0.52,-0.43 -0.66,-0.73l0,0a0.39,0.39 0 0 1 0,-0.3c0,-0.12 0.07,-0.24 0.1,-0.36a0.51,0.51 0 0 1 0.2,-0.28l0,0a1.29,1.29 0 0 1 0.95,-0.25a0.31,0.31 0 0 0 0.25,0c0,0.34 0,0.58 0.08,0.58a2.28,2.28 0 0 0 0.08,-0.83a0,0 0 0 0 0,0l-0.03,0.37z" class="cls-3"/>
      <path stroke="null" id="svg_79" d="m55.050008,35.679994a1.46,1.46 0 0 1 -1.07,-0.35l0,0a0.37,0.37 0 0 1 -0.22,-0.32c0,-0.13 -0.07,-0.27 -0.11,-0.4a0.56,0.56 0 0 1 0,-0.4l0,0a1.44,1.44 0 0 1 0.79,-0.78a0.38,0.38 0 0 0 0.24,-0.56l0,0a0.38,0.38 0 0 0 -0.6,-0.07a1.45,1.45 0 0 1 -1.1,0.24l0,0a0.44,0.44 0 0 1 -0.32,-0.15a4,4 0 0 0 -0.29,-0.29a0.5,0.5 0 0 1 -0.16,-0.36l0,0a1.37,1.37 0 0 1 0.29,-1.07a0.38,0.38 0 0 0 -0.07,-0.6l0,0a0.38,0.38 0 0 0 -0.56,0.23c-0.08,0.34 -0.49,0.6 -0.83,0.76l0,0a0.67,0.67 0 0 1 -0.44,0l-0.33,-0.09a0.49,0.49 0 0 1 -0.33,-0.23l0,0a1.44,1.44 0 0 1 -0.29,-1.08a0.37,0.37 0 0 0 -0.36,-0.48l0,0a0.37,0.37 0 0 0 -0.35,0.48a1.42,1.42 0 0 1 -0.35,1.07l0,0a0.57,0.57 0 0 1 -0.36,0.24l-0.33,0.09a0.5,0.5 0 0 1 -0.4,0l0,0a1.44,1.44 0 0 1 -0.78,-0.79a0.38,0.38 0 0 0 -0.55,-0.25l0,0a0.37,0.37 0 0 0 -0.07,0.59a1.47,1.47 0 0 1 0.24,1.1l0,0a0.43,0.43 0 0 1 -0.14,0.32a4.11,4.11 0 0 0 -0.3,0.29a0.48,0.48 0 0 1 -0.36,0.16l0,0a1.4,1.4 0 0 1 -1.08,-0.29a0.38,0.38 0 0 0 -0.6,0.07l0,0a0.37,0.37 0 0 0 0.23,0.55c0.34,0.09 0.6,0.49 0.76,0.84l0,0a0.37,0.37 0 0 1 0,0.34c0,0.13 -0.08,0.27 -0.11,0.41a0.5,0.5 0 0 1 -0.23,0.32l0,0a1.44,1.44 0 0 1 -1.08,0.28a0.37,0.37 0 0 0 -0.48,0.36l0,0a0.37,0.37 0 0 0 0.48,0.36a1.45,1.45 0 0 1 1.07,0.34l0,0a0.68,0.68 0 0 1 0.25,0.37a2,2 0 0 0 0.09,0.33a0.55,0.55 0 0 1 0,0.4l0,0a1.42,1.42 0 0 1 -0.79,0.79a0.37,0.37 0 0 0 -0.24,0.55l0,0a0.38,0.38 0 0 0 0.6,0.08a1.39,1.39 0 0 1 1,-0.07l0.05,0a0.39,0.39 0 0 1 0.31,0.14l0.29,0.3a0.48,0.48 0 0 1 0.16,0.36l0,0a1.36,1.36 0 0 1 -0.29,1.07a0.39,0.39 0 0 0 0.07,0.61l0,0a0.38,0.38 0 0 0 0.56,-0.24c0.08,-0.34 0.48,-0.59 0.83,-0.75l0,0a0.56,0.56 0 0 1 0.44,0l0.33,0.08a0.54,0.54 0 0 1 0.33,0.24l0,0a1.43,1.43 0 0 1 0.27,1.02a0.37,0.37 0 0 0 0.35,0.49l0,0a0.38,0.38 0 0 0 0.36,-0.48a1.43,1.43 0 0 1 0.34,-1.07l0,0a0.58,0.58 0 0 1 0.36,-0.25l0.33,-0.09a0.5,0.5 0 0 1 0.4,0l0,0a1.44,1.44 0 0 1 0.78,0.79a0.37,0.37 0 0 0 0.55,0.24l0,0a0.38,0.38 0 0 0 0.07,-0.6a1.4,1.4 0 0 1 -0.24,-1.1l0,0a0.56,0.56 0 0 1 0.17,-0.38l0.27,-0.26a0.53,0.53 0 0 1 0.36,-0.17l0,0a1.48,1.48 0 0 1 1.08,0.29a0.37,0.37 0 0 0 0.6,-0.06l0,0a0.37,0.37 0 0 0 -0.24,-0.55c-0.33,-0.08 -0.59,-0.49 -0.75,-0.83l0,0a0.42,0.42 0 0 1 0,-0.35c0,-0.13 0.08,-0.26 0.11,-0.4a0.5,0.5 0 0 1 0.23,-0.32l0,0a1.43,1.43 0 0 1 1.07,-0.29a0.37,0.37 0 0 0 0.49,-0.36l0,0a0.37,0.37 0 0 0 -0.4,-0.41z" class="cls-57"/>
      <path stroke="null" id="svg_80" d="m52.050008,38.339994a4.65,4.65 0 0 1 -4.11,-6.8a4.64,4.64 0 1 0 5.38,6.62a4.81,4.81 0 0 1 -1.27,0.18z" class="cls-58"/>
      <circle stroke="null" id="svg_81" r="1.15" cy="33.459994" cx="47.650008" class="cls-59"/>
      <path stroke="null" id="svg_82" d="m47.890008,33.469994a0.5,0.5 0 0 1 0.41,-0.92a0.5,0.5 0 1 1 -0.41,0.92z" class="cls-60"/>
      <path stroke="null" id="svg_83" d="m46.810008,36.099994a0.61,0.61 0 0 1 -1.22,0a0.61,0.61 0 0 1 1.22,0z" class="cls-59"/>
      <path stroke="null" id="svg_84" d="m50.160008,37.649994a0.61,0.61 0 1 1 -0.61,-0.61a0.61,0.61 0 0 1 0.61,0.61z" class="cls-59"/>
      <path stroke="null" id="svg_85" d="m49.960008,37.449994a0.31,0.31 0 0 1 -0.61,0a0.31,0.31 0 1 1 0.61,0z" class="cls-60"/>
      <circle stroke="null" id="svg_86" r="0.94" cy="38.279994" cx="47.340008" class="cls-59"/>
      <path stroke="null" id="svg_87" d="m49.970008,39.359994a0.4,0.4 0 0 1 0.35,0.43a0.39,0.39 0 1 1 -0.78,-0.08a0.4,0.4 0 0 1 0.43,-0.35z" class="cls-59"/>
      <path stroke="null" id="svg_88" d="m50.810008,34.009994a1,1 0 1 1 -1,0.86a1,1 0 0 1 1,-0.86z" class="cls-59"/>
      <circle stroke="null" id="svg_89" r="0.66" cy="37.449994" cx="52.400008" class="cls-59"/>
      <path stroke="null" id="svg_90" d="m51.010008,32.789994a0.57,0.57 0 0 1 -0.57,0.57a0.58,0.58 0 0 1 -0.57,-0.57a0.57,0.57 0 0 1 0.57,-0.57a0.56,0.56 0 0 1 0.57,0.57z" class="cls-59"/>
      <path stroke="null" id="svg_91" d="m52.860008,37.279994a0.37,0.37 0 1 1 -0.37,-0.38a0.37,0.37 0 0 1 0.37,0.38z" class="cls-60"/>
      <path stroke="null" id="svg_92" d="m50.250008,29.789994a2.62,2.62 0 0 1 -1,0.1a2.7,2.7 0 0 1 -1,-0.1a3,3 0 0 1 1,-0.1a2.87,2.87 0 0 1 1,0.1z" class="cls-57"/>
      <path stroke="null" id="svg_93" d="m47.010008,30.099994a3,3 0 0 1 -0.85,0.61a2.86,2.86 0 0 1 -1,0.43c0,-0.05 0.35,-0.32 0.85,-0.6a3,3 0 0 1 1,-0.44z" class="cls-57"/>
      <path stroke="null" id="svg_94" d="m44.350008,32.009994a2.86,2.86 0 0 1 -0.43,0.94c-0.29,0.5 -0.56,0.88 -0.61,0.85a3,3 0 0 1 0.44,-1c0.28,-0.45 0.55,-0.79 0.6,-0.79z" class="cls-59"/>
      <path stroke="null" id="svg_95" d="m42.990008,35.009994a5.46,5.46 0 0 1 0,2.08a6.05,6.05 0 0 1 0,-2.08z" class="cls-57"/>
      <path stroke="null" id="svg_96" d="m43.300008,38.209994c0.05,0 0.32,0.35 0.61,0.85a2.86,2.86 0 0 1 0.43,1a2.89,2.89 0 0 1 -0.6,-0.85a3,3 0 0 1 -0.44,-1z" class="cls-57"/>
      <path stroke="null" id="svg_97" d="m45.200008,40.869994a2.63,2.63 0 0 1 0.94,0.43a3,3 0 0 1 0.85,0.6a2.63,2.63 0 0 1 -0.94,-0.43c-0.5,-0.28 -0.88,-0.55 -0.85,-0.6z" class="cls-57"/>
      <path stroke="null" id="svg_98" d="m48.170008,42.219994a2.87,2.87 0 0 1 1,-0.1a3,3 0 0 1 1,0.1a2.7,2.7 0 0 1 -1,0.1a2.62,2.62 0 0 1 -1,-0.1z" class="cls-59"/>
      <path stroke="null" id="svg_99" d="m51.410008,41.909994a3.38,3.38 0 0 1 0.85,-0.6a2.63,2.63 0 0 1 1,-0.43a3,3 0 0 1 -0.85,0.6a2.63,2.63 0 0 1 -1,0.43z" class="cls-57"/>
      <path stroke="null" id="svg_100" d="m54.070008,40.009994a2.86,2.86 0 0 1 0.43,-0.95a3,3 0 0 1 0.61,-0.85a2.92,2.92 0 0 1 -0.44,0.95c-0.28,0.51 -0.55,0.85 -0.6,0.85z" class="cls-57"/>
      <path stroke="null" id="svg_101" d="m55.420008,37.009994a3,3 0 0 1 -0.09,-1a3,3 0 0 1 0.09,-1a2.66,2.66 0 0 1 0.1,1a2.62,2.62 0 0 1 -0.1,1z" class="cls-57"/>
      <path stroke="null" id="svg_102" d="m55.110008,33.799994a3,3 0 0 1 -0.6,-0.84a2.63,2.63 0 0 1 -0.43,-1a3,3 0 0 1 0.6,0.85a2.63,2.63 0 0 1 0.43,0.99z" class="cls-59"/>
      <path stroke="null" id="svg_103" d="m53.220008,31.149994a3,3 0 0 1 -0.95,-0.44c-0.49,-0.28 -0.87,-0.55 -0.84,-0.6a2.86,2.86 0 0 1 0.94,0.43c0.5,0.29 0.88,0.56 0.85,0.61z" class="cls-57"/>
      <path stroke="null" id="svg_104" d="m23.830008,8.639994l0,0a1.64,1.64 0 0 0 -0.07,-0.67a1.18,1.18 0 0 0 -0.06,0.48a0.24,0.24 0 0 0 -0.19,0a0.91,0.91 0 0 1 -0.71,-0.23l0,0a0.26,0.26 0 0 1 -0.13,-0.19c0,-0.09 0,-0.18 -0.07,-0.27a0.34,0.34 0 0 1 0,-0.26l0,0c0.12,-0.21 0.29,-0.47 0.53,-0.52a0.23,0.23 0 0 0 0.15,-0.12c0.14,0.22 0.25,0.37 0.28,0.36a1.68,1.68 0 0 0 -0.26,-0.58a0,0 0 0 1 0,0l0,0l0,0a1.92,1.92 0 0 0 -0.39,-0.55s0,0.21 0.19,0.45a0.3,0.3 0 0 0 -0.18,0.08a0.94,0.94 0 0 1 -0.73,0.15l0,0a0.24,0.24 0 0 1 -0.21,-0.09c-0.06,-0.07 -0.13,-0.13 -0.2,-0.2a0.41,0.41 0 0 1 -0.11,-0.24l0,0a0.92,0.92 0 0 1 0.2,-0.71a0.26,0.26 0 0 0 0.07,-0.18a1.13,1.13 0 0 0 0.42,0.17a1.8,1.8 0 0 0 -0.6,-0.51a0,0 0 0 0 0,0l0,0a1.7,1.7 0 0 0 -0.62,-0.28a1.36,1.36 0 0 0 0.39,0.3a0.25,0.25 0 0 0 -0.11,0.15c0,0.22 -0.32,0.39 -0.55,0.5l0,0a0.44,0.44 0 0 1 -0.3,0l-0.22,-0.06a0.36,0.36 0 0 1 -0.22,-0.16l0,0a0.93,0.93 0 0 1 -0.19,-0.71a0.24,0.24 0 0 0 0,-0.19a1.2,1.2 0 0 0 0.44,-0.06a1.41,1.41 0 0 0 -0.63,-0.07l-0.07,0a1.67,1.67 0 0 0 -0.68,0.07a1.26,1.26 0 0 0 0.49,0.06a0.22,0.22 0 0 0 0,0.18a1,1 0 0 1 -0.23,0.72l0,0a0.43,0.43 0 0 1 -0.24,0.16l-0.16,0l-0.1,0a0.34,0.34 0 0 1 -0.26,0l0,0c-0.22,-0.12 -0.47,-0.3 -0.52,-0.53a0.26,0.26 0 0 0 -0.12,-0.15c0.22,-0.14 0.37,-0.25 0.35,-0.28a1.77,1.77 0 0 0 -0.57,0.26l0,0l0,0a1.92,1.92 0 0 0 -0.55,0.39s0.2,-0.05 0.45,-0.19a0.24,0.24 0 0 0 0.07,0.18a1,1 0 0 1 0.16,0.73l0,0a0.24,0.24 0 0 1 -0.09,0.21l0,0a1.14,1.14 0 0 0 -0.11,0.11l-0.06,0.05a0.32,0.32 0 0 1 -0.24,0.11l0,0a1,1 0 0 1 -0.72,-0.19a0.22,0.22 0 0 0 -0.17,-0.07a1.13,1.13 0 0 0 0.17,-0.42s-0.2,0.21 -0.38,0.51c0,0 0,0 0,0l0,0l0,0a1.7,1.7 0 0 0 -0.28,0.62a1.41,1.41 0 0 0 0.29,-0.39a0.33,0.33 0 0 0 0.15,0.11c0.23,0.05 0.4,0.32 0.51,0.55a0,0 0 0 0 0,0a0.24,0.24 0 0 1 0,0.22s0,0 0,0.05l-0.06,0.19l0,0a0.31,0.31 0 0 1 -0.16,0.21l0,0a1,1 0 0 1 -0.71,0.19a0.21,0.21 0 0 0 -0.19,0c0,-0.26 0,-0.44 -0.07,-0.44a1.73,1.73 0 0 0 -0.06,0.63s0,0 0,0l0,0s0,0 0,0a2,2 0 0 0 0.06,0.67a1.08,1.08 0 0 0 0.07,-0.48a0.22,0.22 0 0 0 0.18,0a0.93,0.93 0 0 1 0.71,0.23l0,0a0.4,0.4 0 0 1 0.16,0.24a1.05,1.05 0 0 0 0,0.19s0,0 0,0a0.3,0.3 0 0 1 0,0.26l0,0a0.92,0.92 0 0 1 -0.52,0.52a0.23,0.23 0 0 0 -0.15,0.12c-0.14,-0.22 -0.25,-0.37 -0.28,-0.35a1.77,1.77 0 0 0 0.26,0.57a0,0 0 0 0 0,0l0,0l0,0a1.72,1.72 0 0 0 0.39,0.55s-0.06,-0.21 -0.19,-0.45a0.27,0.27 0 0 0 0.17,-0.08a0.94,0.94 0 0 1 0.73,-0.15l0,0a0.24,0.24 0 0 1 0.21,0.09l0.05,0.05l0.1,0.11l0,0a0.32,0.32 0 0 1 0.11,0.24l0,0a1,1 0 0 1 -0.19,0.71a0.33,0.33 0 0 0 -0.08,0.18a1.12,1.12 0 0 0 -0.41,-0.17s0.21,0.2 0.51,0.37c0,0 0,0 0,0l0,0a1.86,1.86 0 0 0 0.62,0.28s-0.15,-0.15 -0.39,-0.29a0.29,0.29 0 0 0 0.12,-0.15c0.05,-0.23 0.32,-0.4 0.55,-0.51l0,0a0.42,0.42 0 0 1 0.29,0l0,0a1.41,1.41 0 0 0 0.22,0.06a0.34,0.34 0 0 1 0.21,0.16l0,0a0.93,0.93 0 0 1 0.19,0.71a0.24,0.24 0 0 0 0,0.19a1.29,1.29 0 0 0 -0.45,0.06a1.45,1.45 0 0 0 0.63,0.07l0.08,0a1.64,1.64 0 0 0 0.67,-0.07a1.44,1.44 0 0 0 -0.48,-0.06a0.28,0.28 0 0 0 0,-0.18a0.92,0.92 0 0 1 0.23,-0.72l0,0a0.4,0.4 0 0 1 0.24,-0.16l0.13,0l0.06,0l0,0a0.32,0.32 0 0 1 0.27,0l0,0c0.21,0.11 0.47,0.29 0.52,0.52a0.23,0.23 0 0 0 0.12,0.15c-0.22,0.14 -0.37,0.25 -0.36,0.28a1.77,1.77 0 0 0 0.58,-0.26l0.23,0s0,0 0,0a1.92,1.92 0 0 0 0.55,-0.39s-0.21,0 -0.46,0.19a0.22,0.22 0 0 0 -0.07,-0.17a1,1 0 0 1 -0.16,-0.74l0,0a0.42,0.42 0 0 1 0.12,-0.25c0,-0.05 0.11,-0.1 0.16,-0.16l0,0a0.36,0.36 0 0 1 0.25,-0.11a0.92,0.92 0 0 1 0.71,0.19a0.26,0.26 0 0 0 0.18,0.07a1.2,1.2 0 0 0 -0.17,0.42s0.19,-0.21 0.37,-0.51l0,0l0,0a0,0 0 0 0 0,0a1.7,1.7 0 0 0 0.28,-0.62a1.51,1.51 0 0 0 -0.3,0.4a0.23,0.23 0 0 0 -0.15,-0.12c-0.22,-0.05 -0.39,-0.32 -0.5,-0.55l0,0a0.27,0.27 0 0 1 0,-0.23a2.68,2.68 0 0 0 0.07,-0.27a0.33,0.33 0 0 1 0.15,-0.21l0,0a1,1 0 0 1 0.71,-0.18a0.25,0.25 0 0 0 0.19,0c0,0.26 0,0.45 0.06,0.45a1.65,1.65 0 0 0 0.07,-0.63l0,-0.05l0.01,0.33z" class="cls-3"/>
      <path stroke="null" id="svg_105" d="m19.990008,25.379994a1.08,1.08 0 0 1 -0.79,-0.26l0,0a0.3,0.3 0 0 1 -0.15,-0.21c0,-0.1 -0.05,-0.2 -0.08,-0.3a0.37,0.37 0 0 1 0,-0.29l0,0c0.12,-0.23 0.32,-0.52 0.58,-0.58a0.27,0.27 0 0 0 0.21,-0.43l0,0a0.27,0.27 0 0 0 -0.44,-0.06a1.07,1.07 0 0 1 -0.82,0.18l0,0a0.32,0.32 0 0 1 -0.24,-0.11l-0.21,-0.22a0.39,0.39 0 0 1 -0.13,-0.27l0,0a1.07,1.07 0 0 1 0.22,-0.8a0.27,0.27 0 0 0 0,-0.44l0,0a0.27,0.27 0 0 0 -0.41,0.17c-0.06,0.26 -0.36,0.45 -0.62,0.56l0,0a0.45,0.45 0 0 1 -0.32,0l-0.25,-0.07a0.35,0.35 0 0 1 -0.24,-0.17l0,0a1.08,1.08 0 0 1 -0.22,-0.8a0.27,0.27 0 0 0 -0.26,-0.36l0,0a0.28,0.28 0 0 0 -0.27,0.36a1.07,1.07 0 0 1 -0.25,0.79l0,0a0.47,0.47 0 0 1 -0.28,0.18l-0.24,0.07a0.39,0.39 0 0 1 -0.3,0l0,0a1,1 0 0 1 -0.58,-0.58a0.27,0.27 0 0 0 -0.41,-0.18l0,0a0.27,0.27 0 0 0 -0.05,0.44a1.07,1.07 0 0 1 0.17,0.82l0,0a0.3,0.3 0 0 1 -0.1,0.23l-0.22,0.21a0.41,0.41 0 0 1 -0.27,0.13l0,0a1.06,1.06 0 0 1 -0.8,-0.22a0.28,0.28 0 0 0 -0.45,0l0,0a0.28,0.28 0 0 0 0.18,0.41c0.25,0.06 0.44,0.36 0.56,0.62l0,0a0.28,0.28 0 0 1 0,0.25l-0.09,0.31a0.35,0.35 0 0 1 -0.16,0.23l0,0a1.07,1.07 0 0 1 -0.79,0.22a0.28,0.28 0 0 0 -0.37,0.26l0,0a0.28,0.28 0 0 0 0.36,0.27a1.06,1.06 0 0 1 0.79,0.25l0,0a0.47,0.47 0 0 1 0.18,0.27a2.17,2.17 0 0 0 0.07,0.24a0.39,0.39 0 0 1 0,0.3l0,0a1.08,1.08 0 0 1 -0.59,0.58a0.28,0.28 0 0 0 -0.18,0.41l0,0a0.27,0.27 0 0 0 0.44,0.05a1.07,1.07 0 0 1 0.82,-0.17l0,0a0.29,0.29 0 0 1 0.23,0.1l0.22,0.22a0.4,0.4 0 0 1 0.12,0.27l0,0a1.09,1.09 0 0 1 -0.21,0.8a0.28,0.28 0 0 0 0,0.45l0,0a0.28,0.28 0 0 0 0.41,-0.18c0.06,-0.25 0.36,-0.44 0.62,-0.56l0,0a0.42,0.42 0 0 1 0.33,0l0.24,0.06a0.42,0.42 0 0 1 0.25,0.18l0,0a1.06,1.06 0 0 1 0.21,0.79a0.29,0.29 0 0 0 0.27,0.37l0,0a0.28,0.28 0 0 0 0.26,-0.36a1.07,1.07 0 0 1 0.26,-0.79l0,0a0.47,0.47 0 0 1 0.27,-0.18l0.25,-0.07a0.37,0.37 0 0 1 0.29,0l0,0c0.23,0.13 0.52,0.33 0.58,0.59a0.28,0.28 0 0 0 0.41,0.18l0,0a0.28,0.28 0 0 0 0.05,-0.44a1.08,1.08 0 0 1 -0.18,-0.82l0,0a0.41,0.41 0 0 1 0.13,-0.28c0.07,-0.06 0.13,-0.13 0.2,-0.2a0.4,0.4 0 0 1 0.27,-0.12l0,0a1.11,1.11 0 0 1 0.8,0.21a0.27,0.27 0 0 0 0.44,0l0,0a0.27,0.27 0 0 0 -0.17,-0.41c-0.26,-0.06 -0.45,-0.36 -0.56,-0.62l0,0a0.3,0.3 0 0 1 0,-0.26c0,-0.1 0.06,-0.2 0.08,-0.3a0.37,0.37 0 0 1 0.17,-0.24l0,0a1.09,1.09 0 0 1 0.8,-0.21a0.28,0.28 0 0 0 0.36,-0.27l0,0a0.28,0.28 0 0 0 -0.4,-0.2z" class="cls-57"/>
      <path stroke="null" id="svg_106" d="m17.760008,27.349994a3.45,3.45 0 0 1 -3.06,-5a3.45,3.45 0 1 0 4,4.91a3.28,3.28 0 0 1 -0.94,0.09z" class="cls-58"/>
      <circle stroke="null" id="svg_107" r="0.86" cy="23.729994" cx="14.500008" class="cls-59"/>
      <path stroke="null" id="svg_108" d="m14.680008,23.739994a0.37,0.37 0 0 1 -0.19,-0.49a0.37,0.37 0 1 1 0.68,0.3a0.37,0.37 0 0 1 -0.49,0.19z" class="cls-60"/>
      <path stroke="null" id="svg_109" d="m13.880008,25.689994a0.46,0.46 0 0 1 -0.46,0.45a0.45,0.45 0 0 1 0,-0.9a0.46,0.46 0 0 1 0.46,0.45z" class="cls-59"/>
      <path stroke="null" id="svg_110" d="m16.370008,26.839994a0.46,0.46 0 0 1 -0.46,0.45a0.45,0.45 0 1 1 0,-0.9a0.46,0.46 0 0 1 0.46,0.45z" class="cls-59"/>
      <path stroke="null" id="svg_111" d="m16.210008,26.689994a0.23,0.23 0 1 1 -0.22,-0.22a0.22,0.22 0 0 1 0.22,0.22z" class="cls-60"/>
      <circle stroke="null" id="svg_112" r="0.7" cy="27.309994" cx="14.270008" class="cls-59"/>
      <path stroke="null" id="svg_113" d="m16.220008,28.109994a0.29,0.29 0 0 1 0.26,0.32a0.29,0.29 0 1 1 -0.26,-0.32z" class="cls-59"/>
      <path stroke="null" id="svg_114" d="m16.850008,24.149994a0.71,0.71 0 1 1 -0.78,0.63a0.71,0.71 0 0 1 0.78,-0.63z" class="cls-59"/>
      <circle stroke="null" id="svg_115" r="0.49" cy="26.689994" cx="18.020008" class="cls-59"/>
      <path stroke="null" id="svg_116" d="m16.990008,23.229994a0.41,0.41 0 0 1 -0.42,0.42a0.42,0.42 0 0 1 -0.42,-0.42a0.42,0.42 0 0 1 0.42,-0.42a0.42,0.42 0 0 1 0.42,0.42z" class="cls-59"/>
      <path stroke="null" id="svg_117" d="m18.370008,26.559994a0.28,0.28 0 1 1 -0.55,0a0.28,0.28 0 0 1 0.55,0z" class="cls-60"/>
      <path stroke="null" id="svg_118" d="m16.430008,21.009994a2.12,2.12 0 0 1 -0.77,0.07a2.17,2.17 0 0 1 -0.77,-0.07a2.17,2.17 0 0 1 0.77,-0.07a2.12,2.12 0 0 1 0.77,0.07z" class="cls-57"/>
      <path stroke="null" id="svg_119" d="m14.020008,21.239994a2.32,2.32 0 0 1 -0.63,0.45a2.28,2.28 0 0 1 -0.7,0.32s0.26,-0.24 0.63,-0.45a2,2 0 0 1 0.7,-0.32z" class="cls-57"/>
      <path stroke="null" id="svg_120" d="m12.050008,22.639994a2.28,2.28 0 0 1 -0.32,0.71a2.1,2.1 0 0 1 -0.45,0.63a2,2 0 0 1 0.32,-0.71c0.21,-0.36 0.41,-0.65 0.45,-0.63z" class="cls-59"/>
      <path stroke="null" id="svg_121" d="m11.040008,24.849994a2,2 0 0 1 0.08,0.77a2,2 0 0 1 -0.08,0.77a2.17,2.17 0 0 1 -0.07,-0.77a2.12,2.12 0 0 1 0.07,-0.77z" class="cls-57"/>
      <path stroke="null" id="svg_122" d="m11.270008,27.259994s0.24,0.26 0.45,0.63a2,2 0 0 1 0.32,0.7a4.57,4.57 0 0 1 -0.77,-1.33z" class="cls-57"/>
      <path stroke="null" id="svg_123" d="m12.680008,29.229994a2.28,2.28 0 0 1 0.7,0.32a2.32,2.32 0 0 1 0.63,0.45a2,2 0 0 1 -0.7,-0.32c-0.37,-0.21 -0.65,-0.41 -0.63,-0.45z" class="cls-57"/>
      <path stroke="null" id="svg_124" d="m14.880008,30.239994a2,2 0 0 1 0.77,-0.08a2,2 0 0 1 0.77,0.08a2.12,2.12 0 0 1 -0.77,0.07a2.17,2.17 0 0 1 -0.77,-0.07z" class="cls-59"/>
      <path stroke="null" id="svg_125" d="m17.290008,30.009994s0.26,-0.24 0.63,-0.45a2,2 0 0 1 0.71,-0.32a2.37,2.37 0 0 1 -0.63,0.44a2.18,2.18 0 0 1 -0.71,0.33z" class="cls-57"/>
      <path stroke="null" id="svg_126" d="m19.270008,28.599994a1.82,1.82 0 0 1 0.32,-0.7a2.18,2.18 0 0 1 0.44,-0.63a1.82,1.82 0 0 1 -0.27,0.74a2.18,2.18 0 0 1 -0.49,0.59z" class="cls-57"/>
      <path stroke="null" id="svg_127" d="m20.270008,26.399994a2.17,2.17 0 0 1 -0.07,-0.77a2.12,2.12 0 0 1 0.07,-0.77a2.12,2.12 0 0 1 0.07,0.77a2.17,2.17 0 0 1 -0.07,0.77z" class="cls-57"/>
      <path stroke="null" id="svg_128" d="m20.040008,24.009994a2.32,2.32 0 0 1 -0.45,-0.63a2.28,2.28 0 0 1 -0.32,-0.71s0.24,0.27 0.45,0.63a2,2 0 0 1 0.32,0.71z" class="cls-59"/>
      <path stroke="null" id="svg_129" d="m18.640008,22.009994a1.83,1.83 0 0 1 -0.71,-0.32a2.18,2.18 0 0 1 -0.63,-0.44a1.83,1.83 0 0 1 0.71,0.32a2.37,2.37 0 0 1 0.63,0.44z" class="cls-57"/>
     </g>
    </g>
   </g>
  </g>
 </g>
</svg>