<?xml version="1.0" encoding="utf-8"?>
<!-- Generator: Adobe Illustrator 19.0.0, SVG Export Plug-In . SVG Version: 6.00 Build 0)  -->
<svg version="1.1" id="Calque_1" xmlns="http://www.w3.org/2000/svg" xmlns:xlink="http://www.w3.org/1999/xlink" x="0px" y="0px"
	 viewBox="0 0 320 480" style="enable-background:new 0 0 320 480;" xml:space="preserve">
<style type="text/css">
	.st0{fill:#D4EEFF;}
	.st1{opacity:0.2;enable-background:new    ;}
	.st2{fill:#3F3D56;}
	.st3{fill:#6C63FF;}
	.st4{opacity:0.5;fill:#91B8CE;enable-background:new    ;}
	.st5{fill:#FFFFFF;}
	.st6{opacity:0.1;enable-background:new    ;}
	.st7{fill:#CF6F80;}
	.st8{fill:#91B8CE;}
	.st9{fill:#512E4E;}
	.st10{opacity:0.1;}
</style>
<g id="XMLID_7_">
	<g id="XMLID_147_">
		<ellipse id="XMLID_145_" class="st0" cx="176.3" cy="167.8" rx="31.6" ry="31.2"/>
		<path id="XMLID_144_" class="st1" d="M153,147c-6.9,15.9,0.6,34.2,16.6,41c12.5,5.3,27,2.1,36-7.9c-6.9,15.9-25.4,23.2-41.5,16.4
			c-16.1-6.8-23.5-25.1-16.6-41C148.9,152.4,150.7,149.5,153,147z"/>
		<polygon id="XMLID_143_" class="st2" points="176.4,167.8 176.5,167.8 178.1,256.3 174.8,256.3 		"/>
		<polygon id="XMLID_142_" class="st2" points="181.5,214.7 182.2,216 177,218.8 176.2,217.4 		"/>
	</g>
	<path id="XMLID_141_" class="st2" d="M197.9,255.4c0,0,0.1-2.4,2.5-2.1"/>
	<ellipse id="XMLID_140_" class="st3" cx="197.2" cy="252" rx="1.2" ry="1.2"/>
	<rect id="XMLID_139_" x="197" y="253.9" class="st2" width="0.3" height="2.3"/>
	<path id="XMLID_138_" class="st2" d="M116.8,255.1c0,0,0.1-2.4,2.5-2.1"/>
	<ellipse id="XMLID_137_" class="st3" cx="116.2" cy="251.6" rx="1.2" ry="1.2"/>
	<rect id="XMLID_136_" x="116" y="253.6" class="st2" width="0.3" height="2.3"/>
	<path id="XMLID_135_" class="st2" d="M136,255.2c0,0,0.1-2.4,2.5-2.1"/>
	<ellipse id="XMLID_134_" class="st3" cx="135.3" cy="251.8" rx="1.2" ry="1.2"/>
	<rect id="XMLID_133_" x="135.1" y="253.8" class="st2" width="0.3" height="2.3"/>
	<path id="XMLID_132_" class="st2" d="M186.9,148.8l2.3-1.9c-1.8-0.2-2.6,0.8-2.9,1.6c-1.4-0.6-3,0.2-3,0.2l4.7,1.7
		C187.9,149.8,187.4,149.2,186.9,148.8z"/>
	<path id="XMLID_131_" class="st2" d="M222.6,167.7l2.3-1.9c-1.8-0.2-2.6,0.8-2.9,1.6c-1.4-0.6-3,0.2-3,0.2l4.7,1.7
		C223.5,168.6,223.1,168.1,222.6,167.7z"/>
	<path id="XMLID_130_" class="st2" d="M184.1,183.8l2.3-1.9c-1.8-0.2-2.6,0.8-2.9,1.6c-1.4-0.6-3,0.2-3,0.2l4.7,1.7
		C185.1,184.8,184.6,184.2,184.1,183.8z"/>
	<path id="XMLID_113_" class="st2" d="M229.9,256.2c0,0,0.1-2.4,2.5-2.1"/>
	<path id="XMLID_112_" class="st2" d="M207.9,256.2c0,0,0.1-2.4,2.5-2.1"/>
	<path id="XMLID_111_" class="st2" d="M127.9,256.2c0,0,0.1-2.4,2.5-2.1"/>
	<path id="XMLID_110_" class="st2" d="M239.8,256.2c0,0,0.1-2.4,2.5-2.1"/>
	<path id="XMLID_109_" class="st2" d="M235.2,256.2c0,0,0.1-2.4,2.5-2.1"/>
	<path id="XMLID_108_" class="st2" d="M225.6,256.2c0,0-0.1-2.4-2.5-2.1"/>
	<path id="XMLID_107_" class="st2" d="M187.7,256.2c0,0-0.1-2.4-2.5-2.1"/>
	<path id="XMLID_106_" class="st2" d="M156.1,256.2c0,0-0.1-2.4-2.5-2.1"/>
	<path id="XMLID_105_" class="st2" d="M122.6,256.2c0,0-0.1-2.4-2.5-2.1"/>
	<path id="XMLID_104_" class="st2" d="M249.8,256.2c0,0-0.1-2.4-2.5-2.1"/>
	<path id="XMLID_103_" class="st2" d="M235.6,256.4c0,0-0.1-2.4-2.5-2.1"/>
	<rect id="XMLID_102_" x="104.5" y="255.9" class="st2" width="215.5" height="0.4"/>
</g>
<g id="XMLID_1_">
	<ellipse id="XMLID_121_" class="st4" cx="238.5" cy="387.9" rx="34.4" ry="5.5"/>
	<path id="XMLID_120_" class="st5" d="M213,278l0.8,3.2c0,0,6.1-3.1,7.2-7.1c1.1-4-1.8-5.5-1.8-5.5l-5.7,2.4L213,278z"/>
	<path id="XMLID_119_" class="st6" d="M213,278l0.8,3.2c0,0,6.1-3.1,7.2-7.1c1.1-4-1.8-5.5-1.8-5.5l-5.7,2.4L213,278z"/>
	<path id="XMLID_118_" class="st5" d="M247.3,388.5c0,0,5.6,2.1,9.5,2.3c2.1,0.1,3.1-1.1,3.7-2.3c0.3-0.7,0.5-1.4,0.6-2.1l-0.5-5.6
		l-0.3-3l-8.2-2.1l-1.2,3.6l-0.1,0.3c-0.5,1.2-2.3,6-2.3,7.1c0,0.5-0.2,1-0.6,1.4C247.7,388.1,247.5,388.3,247.3,388.5z"/>
	<path id="XMLID_117_" class="st5" d="M208.7,385.7c0,0.2,0,0.3,0,0.5c0,0,12.1,2,14.5,0c1.4-1.2,3.3-1.7,5.1-1.5
		c0,0,4.7,0.1,5.5-1.4c0.3-0.6,0.2-1.9,0-3.1c-0.2-1.2-0.5-2.3-0.8-3.4l-0.2-0.1l-1.1-0.9l-13-0.4h-0.1c0.1,2.7-4.4,5.7-4.4,5.7
		C209.5,382.7,208.8,384.7,208.7,385.7z"/>
	<path id="XMLID_116_" class="st6" d="M208.7,385.7c0,0.2,0,0.3,0.1,0.5c0,0,12.1,2,14.5,0c1.4-1.2,3.2-1.7,5.1-1.5
		c0,0,4.7,0.1,5.5-1.4c0.3-0.6,0.2-1.9,0-3.1c-1.8,0.2-4.6,0.6-5.8,1.7c-1.7,1.6-4.5,3.2-6.3,3.4
		C220.4,385.3,212.2,385.5,208.7,385.7z"/>
	<path id="XMLID_115_" class="st6" d="M247.3,388.5c0,0,5.6,2.1,9.5,2.3c2.1,0.1,3.1-1.1,3.7-2.3c-1.4,0.5-3.4,1-4.5,0.5
		c-1.2-0.6-5.6-0.9-8.1-1.1C247.7,388.2,247.5,388.3,247.3,388.5z"/>
	<path id="XMLID_114_" class="st7" d="M238.9,221.3c4.7-1.8,10.6-7.8,9.2-10.6c-0.3-0.7-0.5-1.5-0.6-2.2c-0.1-1.1-0.1-2.1,0-3.2
		c0.1-1.7,0.3-3.5,0.6-5.2c0,0-14.5,0.3-13.7,2.5c0.2,0.6,0.3,1.7,0.2,2.9c-0.1,1.2-0.2,2.6-0.4,3.8c-0.3,1.6-0.5,2.8-0.5,2.8
		s0.9,1.2,1.4,1.3C235.6,213.6,232.2,223.9,238.9,221.3z"/>
	<path id="XMLID_101_" class="st6" d="M250.8,379.5l0.1,0.1c4.3-5.3,9.6,1.3,9.6,1.3l0.1-0.1l-0.3-3l-8.2-2.1l-1.2,3.6L250.8,379.5z
		"/>
	<path id="XMLID_100_" class="st6" d="M218.6,375.6c0,0,3.2-0.1,4.9,1.4c1.7,1.5,9.9,0.3,9.5,0c-0.1-0.2-0.2-0.3-0.2-0.5l-1.1-0.9
		l-13-0.4C218.7,375.5,218.6,375.6,218.6,375.6z"/>
	<path id="XMLID_99_" class="st8" d="M245.4,334.4c0.2,0.6,0.4,1.2,0.5,1.8c0.3,1.7,0.4,3.4,0.2,5.1c-0.1,2.5,0,19,0,19
		s2.8,4.4,4.3,6c1.6,1.6-3.2,4.3-3.2,4.3c-0.7,4,3.6,8.6,3.6,8.6c4.3-5.3,9.6,1.3,9.6,1.3s2.9-4.9,3.6-6.7c0.7-1.8-2.8-3-4-3.7
		c-1.2-0.7,0.1-4.9,0.1-4.9s1-3.7,2.3-7.1s-1.4-20.2-1.4-20.2s-0.1-3-0.5-4c-0.2-0.8-0.2-1.5-0.1-2.3c0-0.3,0-0.5,0.1-0.6
		c0-0.1,0-0.2,0-0.2l0-0.1l-1.8-3.3C258.7,327.4,244.5,332.3,245.4,334.4z"/>
	<path id="XMLID_98_" class="st8" d="M218.6,375.3c0,0,3.2-0.1,4.9,1.4c1.7,1.5,9.9,0.3,9.5,0c-0.4-0.3-0.3-2.7-0.3-2.7
		c4.8-6.6,0.7-9.2,0.7-9.2s2.1-10.3,2.5-14.1c0.3-2.7,0.6-9.9,0.8-14c0.1-1.8,0.1-3,0.1-3l-3.9-0.8l-0.5-0.1l-9.5-1.9
		c0,0-0.3,1.8-0.4,3.2c-0.1,0.6-0.1,1.2-0.1,1.9c0.1,0.7,0,2.9,0,2.9l-0.3,6.6c0.2,0.7,0.3,1.4,0.3,2.1c-0.1,0.8-1.3,12.9-1.3,12.9
		s-2.1,7.2-1.4,7.7S218.6,375.3,218.6,375.3z"/>
	<path id="XMLID_97_" class="st6" d="M234.3,202.6c0.2,0.6,0.3,1.7,0.2,2.9c4,2.4,9,2.3,12.8-0.2c0.1-1.7,0.3-3.5,0.6-5.2
		C248,200.2,233.5,200.5,234.3,202.6z"/>
	<path id="XMLID_96_" class="st7" d="M228.7,194.8c0,1.3,0.2,2.5,0.6,3.7c2.1,6.3,8.9,9.8,15.2,7.7c4.9-1.6,8.2-6.1,8.3-11.2
		c0-0.1,0-0.2,0-0.3c0.1-6.7-5.2-12.2-11.9-12.3c-6.7-0.1-12.2,5.2-12.3,11.9C228.7,194.6,228.7,194.7,228.7,194.8L228.7,194.8z"/>
	<path id="XMLID_95_" class="st6" d="M238.9,221.3c4.7-1.8,10.6-7.8,9.2-10.6c-0.3-0.7-0.5-1.5-0.6-2.2l-6.4,5.2l-3.9,3.2l-3-7.6
		c-0.3,1.6-0.5,2.8-0.5,2.8s0.9,1.2,1.4,1.3C235.6,213.6,232.2,223.9,238.9,221.3z"/>
	<polygon id="XMLID_94_" class="st8" points="222.4,244.5 227.7,333.9 234.7,334.4 252.6,282.5 249.7,221 249.1,208 241.1,214.5 
		237.1,217.8 234,209.9 228.3,214.9 	"/>
	<path id="XMLID_93_" class="st6" d="M245.4,334.4c0.2,0.6,0.4,1.2,0.5,1.8c5.1-0.8,10-2.3,14.6-4.5l0.1,0l0-0.6l0-0.3l-1.8-3.3
		C258.7,327.4,244.5,332.3,245.4,334.4z"/>
	<path id="XMLID_92_" class="st6" d="M232.8,336.2c1.3,0.2,2.6,0.4,3.9,0.4c0.1-1.8,0.1-3,0.1-3l-3.9-0.8L232.8,336.2z"/>
	<path id="XMLID_91_" class="st6" d="M222.5,334.1c2.5,0.7,6.4,1.4,9.8,0.9l0-2.2l-9.5-1.9C223,330.9,222.7,332.6,222.5,334.1z"/>
	<path id="XMLID_90_" class="st6" d="M232.5,335.4c14.5,2.5,27.7-4.6,27.7-4.6l-0.1-2.4c0,0-0.3-27.2,0.6-29.3
		c0.9-2.1,1.6-12.7,1.1-14.3c-0.5-1.6,1.9-26,1.9-26l0.4-9.9l14.2-5.8l-6.3-13.2c-0.9-1.9-1.6-3.8-2.2-5.7c-1.1-3.4-6.2-6.8-6.2-6.8
		s-5.3-3.4-7.3-3.2c-2.1,0.1-4.8-3-4.8-3c-2-5.1-3.8-2.8-3.8-2.8c0,0.2,0,0,0.1,0.8c0.7,5.6-11.4,23.4-11.6,23.7l0,0l-1.2,28.1
		l-1.2,35.6L232.5,335.4z"/>
	<path id="XMLID_89_" class="st5" d="M232.8,335.4c14.5,2.5,27.7-4.6,27.7-4.6l-0.1-2.4c0,0-0.3-27.2,0.6-29.3s1.6-12.7,1.1-14.3
		c-0.5-1.6,1.9-26,1.9-26l0.4-9.9l14.2-5.8l-6.3-13.2c-0.9-1.9-1.6-3.8-2.2-5.7c-1.1-3.4-6.2-6.8-6.2-6.8s-5.3-3.4-7.3-3.2
		c-2.1,0.1-4.8-3-4.8-3c-2-5.1-4.2-2.8-4.2-2.8c0,0.2,0.2,0.4,0.1,0.8c-1.6,5.5-11,23.4-11.2,23.7l0,0l-1.2,28.1l-1.2,35.6
		L232.8,335.4z"/>
	<path id="XMLID_88_" class="st6" d="M236.7,233.7c1.6-0.6,9.8-10.1,9.8-10.1v-2.1c0.3-0.7,2.1-0.3,3.5,0.2l-0.6-13l-0.7,0.6
		C247.2,214.8,236.9,233.4,236.7,233.7z"/>
	<path id="XMLID_87_" class="st5" d="M236.3,232.9c1.6-0.6,9.8-10.1,9.8-10.1v-2.1c0.3-0.7,2.1-0.3,3.5,0.2l-0.6-13l-0.7,0.6
		C246.8,214,236.5,232.6,236.3,232.9z"/>
	<path id="XMLID_86_" class="st6" d="M260.2,279.9c-0.2,0-10.1-1-10.1-1s-6,11.7-5.6,14.6c0.4,2.9,1.1,5.4,3.5,4.9
		c2.4-0.4,12.9,0.4,12.9,0.4L260.2,279.9z"/>
	<path id="XMLID_85_" class="st5" d="M260.6,279.1c-0.2,0-10.1-1-10.1-1s-6,11.7-5.6,14.6c0.4,2.9,1.1,5.4,3.5,4.9
		c2.4-0.4,12.9,0.4,12.9,0.4L260.6,279.1z"/>
	<path id="XMLID_84_" class="st7" d="M253.1,273.6c0,0-9.1,4.9-9.2,6.3s4.6-0.6,5.6-0.9c0.7-0.2,1.4-0.3,2.1-0.3l6.9,0.2
		L253.1,273.6z"/>
	<circle id="XMLID_83_" class="st6" cx="239.3" cy="233.4" r="1"/>
	<circle id="XMLID_82_" class="st2" cx="239.3" cy="233" r="1"/>
	<circle id="XMLID_81_" class="st6" cx="237.5" cy="274.6" r="1"/>
	<circle id="XMLID_80_" class="st2" cx="237.5" cy="274.2" r="1"/>
	<circle id="XMLID_79_" class="st6" cx="238.3" cy="254" r="1"/>
	<circle id="XMLID_78_" class="st2" cx="238.3" cy="253.6" r="1"/>
	<path id="XMLID_77_" class="st5" d="M216.4,278.5c0,0-0.6,1,0,1.4c0.6,0.5-0.1,1.6-0.1,1.6s1.6,0.9,0.9,1.8
		c-0.7,0.9-0.3,4.7-0.3,4.7l1.9,3.2c0,0-0.1,2.1-0.1,4.9c0,4.4,0.3,10.5,1.7,13.3l-0.2,23c0,0,6.8,2.5,12.5,1.7l0.8-37
		c0,0-1.2-21-1.7-25c-0.3-2.1-0.4-4.2-0.3-6.3c0,0,0.2-6.3,0.8-9.2c0,0,0.7-12.7,0.8-16.2c0-1.7-0.1-6.6-0.2-11.2
		c-0.1-5.1-0.2-9.9-0.2-9.9l1.3-10.2c0,0-1.3-0.1-1.7,0.4c-0.2,0.2-0.4,0.3-0.6,0.4l0,0c-2.2,1.5-10.1,6.1-10.1,6.1
		s-4.3,1.7-5.4,4.2s-1.8,4.2-2.3,4.9c-0.5,0.7-0.8,4-0.8,4s-1.5,6.1-2.7,7.1s-2,7.6-2,7.6l10.3,8.1c0,0,0.9,13.5,1.1,14
		C220.3,266.8,216.4,278.5,216.4,278.5z"/>
	<path id="XMLID_76_" class="st5" d="M216,278.5c0,0-0.6,1,0,1.4s-0.1,1.6-0.1,1.6s1.6,1,0.9,1.8c-0.7,0.9-0.3,4.7-0.3,4.7l1.9,3.2
		c0,0-0.1,2.1-0.1,4.9c0,4.4,0.3,10.5,1.7,13.3l-0.2,23c0,0,6.8,2.5,12.5,1.7l0.8-37c0,0-1.2-21-1.7-25c-0.3-2.1-0.4-4.2-0.3-6.3
		c0,0,0.2-6.3,0.8-9.2c0,0,0.7-12.7,0.8-16.2c0-1.7-0.1-6.6-0.2-11.2c-0.1-5.1-0.2-9.9-0.2-9.9l1.7-10.3c0,0-1.7,0-2.1,0.5
		c-0.2,0.2-0.4,0.3-0.6,0.4l0,0c-2.2,1.5-10.1,6.1-10.1,6.1s-4.3,1.7-5.4,4.2s-1.8,4.2-2.3,4.9c-0.5,0.7-0.8,4-0.8,4
		s-1.5,6.1-2.7,7.1c-1.2,1-2,7.6-2,7.6l10.3,8.1c0,0,0.9,13.5,1.1,14C219.9,266.8,216,278.5,216,278.5z"/>
	<path id="XMLID_75_" class="st6" d="M228.3,222.5l-0.9,2.7l4.9,4.9c-0.1-5.1-0.2-9.9-0.2-9.9l1.7-10.3c0,0-1.7,0-2.1,0.5
		c-0.2,0.2-0.4,0.3-0.6,0.4l0,0l-4.2,12L228.3,222.5z"/>
	<path id="XMLID_74_" class="st5" d="M228.7,221.7l-0.9,2.7l4.9,4.9c-0.1-5.1-0.2-9.9-0.2-9.9l1.7-10.3c0,0-1.7,0-2.1,0.5
		c-0.2,0.2-0.4,0.3-0.6,0.4l0,0l-4.2,12L228.7,221.7z"/>
	<path id="XMLID_73_" class="st6" d="M228.7,194.8c0,1.3,0.2,2.5,0.6,3.7c0.1,0,0.3,0,0.4-0.1c0.1-3.2,1.7-6.2,3.6-8.7
		c0.5-0.8,1.2-1.4,1.9-2c0.8-0.6,1.7-0.8,2.6-0.7c1.1,0.1,2,0.9,3.1,1c1.4,0.1,2.7-0.9,4.1-0.9c1.2,0,2.2,0.5,3,1.4
		c0.7,0.9,1.3,1.9,1.6,3c0.6,1.7,0.9,3.4,0.9,5.1c0,1,0.1,2.2,1,2.6c-0.1-1.5,0.3-2.9,1.3-4l0,0c0-0.1,0-0.2,0-0.3
		c0.1-6.7-5.2-12.2-11.9-12.3c-6.7-0.1-12.2,5.2-12.3,11.9C228.7,194.6,228.7,194.7,228.7,194.8L228.7,194.8z"/>
	<path id="XMLID_72_" class="st9" d="M235.8,175.7c1.8-0.9,3.9-1,5.9-0.5c1,0.3,1.9,0.8,2.9,1c2.1,0.5,4.6,0,6.4,1.2
		c1,0.7,1.6,1.8,2.2,2.9l1.4,2.7c0.8,1.5,1.5,3,1.9,4.6s0.1,3.4-0.9,4.7c-0.7,0.9-1.9,1.5-2.7,2.4c-1,1.1-1.5,2.6-1.3,4
		c-0.9-0.4-1-1.6-1-2.6c0-1.7-0.3-3.5-0.9-5.1c-0.3-1.1-0.9-2.1-1.6-3c-0.8-0.9-1.8-1.4-3-1.4c-1.4,0-2.7,1-4.1,0.9
		c-1.1-0.1-2-0.8-3.1-1c-0.9-0.1-1.9,0.2-2.6,0.7c-0.7,0.6-1.4,1.2-1.9,2c-1.9,2.5-3.5,5.5-3.6,8.7c-0.4,0.3-1-0.1-1.2-0.5
		c-0.2-0.5-0.2-1-0.5-1.4c-0.3-0.5-0.8-0.8-1.3-1.1c-1.1-0.9-1.4-2.5-1.3-4c0-1.4,0.3-2.9,0-4.3c-0.2-0.9-0.5-1.7-0.7-2.6
		c-0.2-0.9-0.2-1.8,0.3-2.6c0.7-1.1,2.2-1.3,3.5-1.4c1.5-0.1,2.8,0,3.7-1.2c0.4-0.6,0.9-1.3,1.5-1.8
		C233.9,176.9,235.8,175.8,235.8,175.7z"/>
	<path id="XMLID_71_" class="st6" d="M274.1,250.1l3.7-6.8l1.2,10.5c0,0-0.6,4.7-0.5,5.4c0.1,0.7-2.7,7.1-2.7,7.1s-9.2,16.4-13,17.3
		l-12.7-9.1l3.4-4.3c0,0,1.2-0.5,1.5,0c0,0,6.3-10.8,6.9-11.6c0.6-0.8,0.5-2.3,0.5-2.3s1-1,0.6-2c-0.3-1,1.9-4.3,1.9-4.3l-2-1.9
		L274.1,250.1z"/>
	<path id="XMLID_70_" class="st5" d="M277.6,242.5l1,0.8l1.2,10.5c0,0-0.6,4.7-0.5,5.4s-2.7,7.1-2.7,7.1s-9.2,16.4-13,17.3
		l-12.7-9.1l3.4-4.3c0,0,1.2-0.5,1.5,0c0,0,6.3-10.8,6.9-11.6c0.6-0.8,0.5-2.3,0.5-2.3s1-1,0.6-2c-0.3-1,1.9-4.3,1.9-4.3l-2-1.9
		L277.6,242.5z"/>
	<path id="XMLID_69_" class="st6" d="M217.2,283.7c-0.7,0.9-0.3,4.7-0.3,4.7l1.9,3.2c0,0-0.1,2.1-0.1,4.9l3.3,1
		c1,0.3,2.1-0.3,2.4-1.3c0.1-0.2,0.1-0.4,0.1-0.6l-0.6-18.2l-7.6,2.9c0.6,0.5-0.1,1.6-0.1,1.6S217.9,282.8,217.2,283.7z"/>
	<path id="XMLID_68_" class="st5" d="M216.8,283.3c-0.7,0.9-0.3,4.7-0.3,4.7l1.9,3.2c0,0-0.1,2.1-0.1,4.9l3.3,1
		c1,0.3,2.1-0.2,2.4-1.3c0.1-0.2,0.1-0.4,0.1-0.6l-0.6-18.3l-7.6,2.9c0.7,0.5-0.1,1.6-0.1,1.6S217.5,282.4,216.8,283.3z"/>
	<path id="XMLID_67_" class="st7" d="M214.3,274.6c0,0,0.5,3.3,1.8,3.5c1.3,0.2,1.9,5.4,3.2,5.2s0.4-4.8,0.4-5.7
		c0-0.9,1.4-4.6,0.3-5.5c-1.1-0.8-4.5,0-4.5,0L214.3,274.6z"/>
	<path id="XMLID_66_" class="st6" d="M211.5,249.1l-2.4-4.9c0,0-1,3.8-1,5.8c0,2-1.4,2.2-1.4,2.2s-1.5,1.8-0.7,3s1.1,4.5,1.1,4.5
		s-0.3,6.1,0.9,6.9c1.2,0.8,1.4,2.9,1.4,2.9s2.1,3.8,2.1,4.7c-0.1,0.9,3,7.1,3,7.1s-1.5-7.7,7.2-11c0,0,0.1-2.6-0.6-3.3
		s-1.7-1-1-4.6c0.6-3.6,0.2-7.9,0.2-8.8c0-0.9-1.9-6.3-1.9-6.3L211.5,249.1z"/>
	<path id="XMLID_65_" class="st5" d="M210.5,243.5l-2.1,0.7c0,0-1,3.8-1,5.8c0,2-1.4,2.2-1.4,2.2s-1.5,1.8-0.7,3
		c0.8,1.3,1.1,4.5,1.1,4.5s-0.3,6.1,0.9,6.9s1.4,2.9,1.4,2.9s2.1,3.8,2.1,4.7c-0.1,0.9,3,7.1,3,7.1s-1.5-7.7,7.2-11
		c0,0,0.1-2.6-0.6-3.3c-0.6-0.7-1.7-1-1-4.6c0.6-3.6,0.2-7.9,0.2-8.8c0-0.9-1.9-6.3-1.9-6.3L210.5,243.5z"/>
	<path id="XMLID_64_" class="st6" d="M257.7,371.5c0,0-3.4-2.1-5.6-0.6C249.8,372.4,257.7,371.5,257.7,371.5z"/>
	<path id="XMLID_63_" class="st6" d="M231.2,364.8c0,0-3-0.4-5.5,2.3C223.1,369.9,231.2,364.8,231.2,364.8z"/>
	<g id="XMLID_31_" class="st10">
		<path id="XMLID_62_" d="M226.8,194.2c0.4,0.4,1,0.6,1.3,1.1c0.2,0.4,0.3,1,0.5,1.4c0.2,0.5,0.8,0.8,1.2,0.5
			c0.1-3.2,1.7-6.2,3.6-8.7c0.5-0.8,1.2-1.4,1.9-2c0.8-0.6,1.7-0.8,2.6-0.7c1.1,0.1,2,0.9,3.1,1c1.4,0.1,2.7-0.9,4.1-0.9
			c1.2,0,2.2,0.5,3,1.4c0.7,0.9,1.3,1.9,1.6,3c0.6,1.7,0.9,3.4,0.9,5.1c0,1,0.1,2.2,1,2.6c0,0.3,0,0.5,0,0.8c-0.9-0.4-1-1.6-1-2.6
			c0-1.7-0.3-3.5-0.9-5.1c-0.3-1.1-0.9-2.1-1.6-3c-0.8-0.9-1.8-1.4-3-1.4c-1.4,0-2.7,1-4.1,0.9c-1.1-0.1-2-0.8-3.1-1
			c-0.9-0.1-1.9,0.2-2.6,0.7c-0.7,0.6-1.4,1.2-1.9,2c-1.9,2.5-3.5,5.5-3.6,8.7c-0.4,0.3-1-0.1-1.2-0.5s-0.2-1-0.5-1.4
			c-0.3-0.5-0.8-0.8-1.3-1.1c-1.1-0.9-1.4-2.5-1.3-4c0,0,0-0.1,0-0.1C225.5,192.2,225.9,193.4,226.8,194.2z"/>
		<path id="XMLID_35_" d="M252.8,194c0.8-0.9,1.9-1.5,2.7-2.4c0.6-0.8,1-1.8,1-2.9c0.1,1.3-0.3,2.6-1,3.7c-0.7,0.9-1.9,1.5-2.7,2.4
			c-0.8,0.9-1.2,2-1.3,3.1C251.4,196.5,251.9,195.1,252.8,194z"/>
		<path id="XMLID_33_" d="M224.8,183.3c0.2,0.9,0.6,1.7,0.7,2.6c0.1,0.6,0.1,1.2,0.1,1.8c0-0.3,0-0.7-0.1-1
			c-0.2-0.9-0.5-1.7-0.7-2.6c-0.1-0.5-0.2-1-0.1-1.5C224.7,182.9,224.7,183.1,224.8,183.3z"/>
	</g>
</g>
</svg>
