<svg width="24" height="20" viewBox="0 0 24 20" fill="none" xmlns="http://www.w3.org/2000/svg">
<path d="M9.66675 8.97078C10.2826 8.73402 10.8086 8.30985 11.1704 7.75812C11.5323 7.2064 11.7117 6.55498 11.6835 5.89579C11.6835 2.96329 9.492 2.24854 6.963 2.24854H0V16.971H7.158C9.8415 16.971 12.3622 15.6878 12.3622 12.696C12.4285 11.8561 12.1937 11.0199 11.6998 10.3372C11.206 9.65457 10.4853 9.16992 9.66675 8.97004V8.97078ZM3.246 4.76254H6.29175C7.4625 4.76254 8.517 5.09104 8.517 6.44479C8.517 7.69504 7.6965 8.19754 6.53775 8.19754H3.246V4.76254ZM6.717 14.4735H3.246V10.4168H6.783C8.2125 10.4168 9.11625 11.0108 9.11625 12.5168C9.11625 14.004 8.037 14.4668 6.71625 14.4668L6.717 14.4735ZM21.654 4.47229H15.6667V3.02253H21.654V4.47229ZM24 11.7953C24 8.64528 22.1497 6.01279 18.7957 6.01279C18.0585 5.99715 17.326 6.13369 16.6439 6.41388C15.9618 6.69406 15.3448 7.11187 14.8315 7.64121C14.3181 8.17056 13.9194 8.80006 13.6602 9.49041C13.4011 10.1808 13.287 10.9171 13.3253 11.6535C13.3252 14.9723 15.4208 17.2493 18.7957 17.2493C21.3503 17.2493 23.004 16.1025 23.7997 13.6643H21.2085C21.0028 14.0998 20.6725 14.4644 20.2594 14.7121C19.8463 14.9597 19.369 15.0793 18.888 15.0555C17.1675 15.0555 16.263 14.0505 16.263 12.3428H23.9753C23.9872 12.1695 24 11.9828 24 11.7953ZM16.2668 10.4985C16.2683 10.1862 16.3336 9.87752 16.4587 9.59138C16.5838 9.30523 16.7661 9.04767 16.9944 8.83451C17.2226 8.62135 17.4921 8.45709 17.7861 8.35181C18.0801 8.24653 18.3926 8.20246 18.7043 8.22229C20.1795 8.22229 20.9213 9.08628 21.0457 10.4985H16.2668Z" fill="#0C0C0E"/>
</svg>
