<svg width="24" height="20" viewBox="0 0 24 20" fill="none" xmlns="http://www.w3.org/2000/svg">
<g clip-path="url(#clip0_289_576)">
<path d="M12.0041 4.75087C11.0153 4.75073 10.0486 5.04382 9.22635 5.59308C8.40408 6.14234 7.76317 6.9231 7.38465 7.83663C7.00614 8.75016 6.90703 9.75541 7.09985 10.7253C7.29267 11.6951 7.76877 12.586 8.46793 13.2853C9.16709 13.9846 10.0579 14.4608 11.0277 14.6538C11.9976 14.8467 13.0028 14.7478 13.9164 14.3694C14.83 13.991 15.6109 13.3502 16.1603 12.528C16.7096 11.7058 17.0029 10.7392 17.0029 9.75037C17.004 9.09359 16.8754 8.44305 16.6246 7.83604C16.3738 7.22903 16.0056 6.67749 15.5412 6.21304C15.0769 5.74858 14.5254 5.38035 13.9184 5.12944C13.3114 4.87853 12.6609 4.74989 12.0041 4.75087ZM12.0041 13.0009C11.3612 13.001 10.7327 12.8105 10.198 12.4534C9.6634 12.0964 9.24666 11.5887 9.00052 10.9948C8.75438 10.4009 8.6899 9.74728 8.81524 9.11669C8.94058 8.48611 9.2501 7.90686 9.70466 7.45219C10.1592 6.99752 10.7384 6.68787 11.369 6.56239C11.9995 6.4369 12.6531 6.50123 13.2471 6.74723C13.8411 6.99323 14.3488 7.40986 14.706 7.94442C15.0632 8.47897 15.2539 9.10745 15.2539 9.75037C15.2525 10.6119 14.9097 11.4378 14.3006 12.047C13.6914 12.6563 12.8657 12.9993 12.0041 13.0009ZM18.3709 4.54688C18.3707 4.77736 18.3022 5.00262 18.1741 5.19419C18.0459 5.38575 17.8639 5.53502 17.6509 5.62312C17.4379 5.71122 17.2036 5.73419 16.9775 5.68914C16.7515 5.64408 16.5439 5.53302 16.381 5.36999C16.2181 5.20696 16.1071 4.99929 16.0622 4.77323C16.0173 4.54716 16.0404 4.31286 16.1287 4.09993C16.2169 3.88701 16.3663 3.70503 16.5579 3.57699C16.7496 3.44896 16.9749 3.38062 17.2054 3.38062C17.3586 3.38033 17.5103 3.4103 17.6519 3.46881C17.7935 3.52732 17.9221 3.61323 18.0304 3.7216C18.1387 3.82996 18.2246 3.95865 18.283 4.10028C18.3414 4.2419 18.3713 4.39367 18.3709 4.54688ZM21.6791 5.72962C21.7109 4.21367 21.1452 2.74604 20.1041 1.64363C19.0001 0.605661 17.534 0.0404341 16.0189 0.068625C14.4094 -0.022875 9.58462 -0.022875 7.97512 0.068625C6.46179 0.0393248 4.99699 0.602958 3.89363 1.63912C2.85403 2.74246 2.28855 4.20947 2.31863 5.72513C2.22712 7.33538 2.22712 12.1609 2.31863 13.7704C2.28686 15.2863 2.85257 16.754 3.89363 17.8564C4.99812 18.8937 6.46392 19.4588 7.97887 19.4314C9.58837 19.5229 14.4131 19.5229 16.0226 19.4314C17.5384 19.4636 19.006 18.8978 20.1079 17.8564C21.144 16.7517 21.7078 15.2861 21.6791 13.7719C21.7706 12.1616 21.7706 7.34062 21.6791 5.73112V5.72962ZM19.6024 15.4969C19.4369 15.9163 19.187 16.2972 18.8682 16.616C18.5494 16.9348 18.1685 17.1847 17.7491 17.3501C16.4659 17.8594 13.4209 17.7416 12.0026 17.7416C10.5844 17.7416 7.53487 17.8549 6.25612 17.3501C5.83659 17.1848 5.45553 16.9349 5.13659 16.6161C4.81766 16.2973 4.56766 15.9163 4.40213 15.4969C3.89288 14.2136 4.01063 11.1671 4.01063 9.74887C4.01063 8.33062 3.89738 5.28038 4.40213 4.00087C4.56749 3.58134 4.81733 3.20028 5.13614 2.88134C5.45494 2.56241 5.83591 2.31241 6.25537 2.14687C7.53862 1.63912 10.5844 1.75688 12.0041 1.75688C13.4239 1.75688 16.4719 1.64363 17.7506 2.14838C18.17 2.31383 18.5509 2.56371 18.8697 2.88251C19.1885 3.20131 19.4384 3.58223 19.6039 4.00163C20.1131 5.28487 19.9954 8.33138 19.9954 9.74963C19.9954 11.1679 20.1109 14.2219 19.6024 15.4969Z" fill="#0C0C0E"/>
</g>
<defs>
<clipPath id="clip0_289_576">
<rect width="24" height="19.5" fill="white"/>
</clipPath>
</defs>
</svg>
