<svg width="24" height="20" viewBox="0 0 24 20" fill="none" xmlns="http://www.w3.org/2000/svg">
<path d="M3.74973 3.41757C3.74272 3.15973 3.79134 2.90341 3.89229 2.66605C3.99324 2.42869 4.14414 2.21587 4.33473 2.04207C4.74933 1.67164 5.29198 1.47739 5.84748 1.50057C6.3924 1.47642 6.92487 1.66802 7.32948 2.03382C7.52269 2.21774 7.67457 2.44065 7.77504 2.68775C7.87551 2.93486 7.92227 3.20051 7.91223 3.46707C7.91815 3.71683 7.87071 3.96499 7.77306 4.19495C7.67541 4.42491 7.5298 4.63138 7.34598 4.80057C6.92775 5.17828 6.37744 5.37582 5.81448 5.35032H5.79798C5.52678 5.36209 5.25597 5.31953 5.00146 5.22512C4.74695 5.13071 4.51389 4.98636 4.31598 4.80057C4.1305 4.62218 3.98433 4.40702 3.88682 4.16886C3.78931 3.93071 3.74262 3.67481 3.74973 3.41757ZM3.96648 18.0006V6.86757H7.66248V18.0006H3.96648ZM9.71073 18.0006H13.4097V11.7838C13.3964 11.4781 13.4418 11.1726 13.5432 10.8838C13.6955 10.5102 13.9389 10.1807 14.2512 9.92532C14.5886 9.65714 15.0107 9.5183 15.4415 9.53382C16.6845 9.53382 17.306 10.3728 17.306 12.0508V18.0006H20.9997V11.6136C21.0967 10.264 20.6804 8.9276 19.8342 7.87182C19.4437 7.44896 18.9661 7.11595 18.4342 6.89581C17.9024 6.67567 17.3291 6.57366 16.754 6.59682C16.082 6.58039 15.4178 6.74355 14.83 7.06945C14.2421 7.39536 13.7518 7.87221 13.4097 8.45082V8.48382H13.3932L13.4097 8.45082V6.86757H9.71073C9.73273 7.22307 9.74373 8.32857 9.74373 10.1841C9.74373 12.0396 9.73273 14.6451 9.71073 18.0006Z" fill="#0C0C0E"/>
</svg>
