<svg width="40" height="40" viewBox="0 0 40 40" fill="none" xmlns="http://www.w3.org/2000/svg">
<path fill-rule="evenodd" clip-rule="evenodd" d="M19.7606 40C30.9385 40 40 31.0457 40 20C40 8.9543 30.9385 0 19.7606 0C10.0924 0 2.00748 6.69897 0 15.656C3.96988 15.5353 6.96256 13.6772 7.90386 15.7445C7.94681 15.8388 8.07175 15.8527 8.10172 15.7536C8.62385 14.0273 5.7073 8.32194 15.6495 7.23032C26.7671 6.00964 25.9604 3.92844 27.6809 4.13996C27.7672 4.15057 27.8116 4.24217 27.765 4.31477C27.2469 5.12298 24.5361 9.0227 19.9504 9.91781C14.5743 11.1053 14.9307 14.7284 15.2068 14.6678C16.9041 14.2951 25.4744 14.8485 24.9575 18.66C24.9517 18.7026 24.9668 18.7475 24.9995 18.7759C27.0557 20.5585 29.1784 22.2204 31.9712 23.8213C32.0082 23.8424 32.0323 23.8797 32.0337 23.9219C32.072 25.1011 31.4901 27.6754 29.6906 28.4178C23.176 31.1053 25.0109 29.6689 22.7333 29.3553C15.017 28.2928 10.2314 32 7.44846 35.875C10.8419 38.4143 15.1759 40 19.7606 40ZM26.4649 12.6053C29.1846 11.8553 31.4615 9.84638 31.9675 10.4178C32.4102 10.9178 29.4432 14.6566 26.6547 15.875C24.9427 16.623 22.2906 14.5 22.417 14.125C22.5435 13.75 24.1418 13.4983 26.4649 12.6053Z" fill="#0C0C0E"/>
<path d="M20.2471 18.0185C20.2591 17.9947 20.2795 17.9725 20.306 17.9677C20.7581 17.8849 22.4803 19.3083 22.4803 19.7928C22.4803 20.171 19.0381 20.4152 20.2471 18.0185Z" fill="#0C0C0E"/>
</svg>
