<svg width="759" height="274" viewBox="0 0 759 274" fill="none" xmlns="http://www.w3.org/2000/svg">
<path d="M101.506 77.9375H79.108C78.6989 75.0398 77.8636 72.4659 76.6023 70.2159C75.3409 67.9318 73.7216 65.9886 71.7443 64.3864C69.767 62.7841 67.483 61.5568 64.892 60.7045C62.3352 59.8523 59.5568 59.4261 56.5568 59.4261C51.1364 59.4261 46.4148 60.7727 42.392 63.4659C38.3693 66.125 35.25 70.0114 33.0341 75.125C30.8182 80.2045 29.7102 86.375 29.7102 93.6364C29.7102 101.102 30.8182 107.375 33.0341 112.455C35.2841 117.534 38.4205 121.369 42.4432 123.96C46.4659 126.551 51.1193 127.847 56.4034 127.847C59.3693 127.847 62.1136 127.455 64.6364 126.67C67.1932 125.886 69.4602 124.744 71.4375 123.244C73.4148 121.71 75.0511 119.852 76.3466 117.67C77.6761 115.489 78.5966 113 79.108 110.205L101.506 110.307C100.926 115.114 99.4773 119.75 97.1591 124.216C94.875 128.648 91.7898 132.619 87.9034 136.131C84.0511 139.608 79.4489 142.369 74.0966 144.415C68.7784 146.426 62.7614 147.432 56.0455 147.432C46.7045 147.432 38.3523 145.318 30.9886 141.091C23.6591 136.864 17.8636 130.744 13.6023 122.733C9.375 114.722 7.26136 105.023 7.26136 93.6364C7.26136 82.2159 9.40909 72.5 13.7045 64.4886C18 56.4773 23.8295 50.375 31.1932 46.1818C38.5568 41.9545 46.8409 39.8409 56.0455 39.8409C62.1136 39.8409 67.7386 40.6932 72.9205 42.3977C78.1364 44.1023 82.7557 46.5909 86.7784 49.8636C90.8011 53.1023 94.0739 57.0739 96.5966 61.7784C99.1534 66.483 100.79 71.8693 101.506 77.9375ZM117.384 146V41.2727H158.702C166.611 41.2727 173.361 42.6875 178.952 45.517C184.577 48.3125 188.855 52.2841 191.787 57.4318C194.753 62.5455 196.236 68.5625 196.236 75.483C196.236 82.4375 194.736 88.4205 191.736 93.4318C188.736 98.4091 184.389 102.227 178.696 104.886C173.037 107.545 166.185 108.875 158.139 108.875H130.474V91.0795H154.56C158.787 91.0795 162.298 90.5 165.094 89.3409C167.889 88.1818 169.969 86.4432 171.332 84.125C172.73 81.8068 173.429 78.9261 173.429 75.483C173.429 72.0057 172.73 69.0739 171.332 66.6875C169.969 64.3011 167.872 62.4943 165.043 61.267C162.247 60.0057 158.719 59.375 154.457 59.375H139.526V146H117.384ZM173.94 98.3409L199.969 146H175.526L150.06 98.3409H173.94ZM211.884 146V41.2727H282.452V59.5284H234.026V84.483H278.821V102.739H234.026V127.744H282.656V146H211.884ZM318.107 146H294.379L330.533 41.2727H359.067L395.169 146H371.442L345.209 65.2045H344.391L318.107 146ZM316.624 104.835H372.669V122.119H316.624V104.835ZM390.989 59.5284V41.2727H477V59.5284H444.938V146H423.051V59.5284H390.989ZM160.466 266H136.739L172.892 161.273H201.426L237.528 266H213.801L187.568 185.205H186.75L160.466 266ZM158.983 224.835H215.028V242.119H158.983V224.835ZM307.036 266L277.07 161.273H301.257L318.592 234.04H319.462L338.587 161.273H359.297L378.371 234.193H379.291L396.626 161.273H420.814L390.848 266H369.268L349.325 197.528H348.507L328.615 266H307.036ZM522.997 213.636C522.997 225.057 520.832 234.773 516.503 242.784C512.207 250.795 506.344 256.915 498.912 261.142C491.514 265.335 483.196 267.432 473.957 267.432C464.651 267.432 456.298 265.318 448.901 261.091C441.503 256.864 435.656 250.744 431.361 242.733C427.065 234.722 424.918 225.023 424.918 213.636C424.918 202.216 427.065 192.5 431.361 184.489C435.656 176.477 441.503 170.375 448.901 166.182C456.298 161.955 464.651 159.841 473.957 159.841C483.196 159.841 491.514 161.955 498.912 166.182C506.344 170.375 512.207 176.477 516.503 184.489C520.832 192.5 522.997 202.216 522.997 213.636ZM500.548 213.636C500.548 206.239 499.44 200 497.224 194.92C495.043 189.841 491.957 185.989 487.969 183.364C483.98 180.739 479.31 179.426 473.957 179.426C468.605 179.426 463.935 180.739 459.946 183.364C455.957 185.989 452.855 189.841 450.639 194.92C448.457 200 447.366 206.239 447.366 213.636C447.366 221.034 448.457 227.273 450.639 232.352C452.855 237.432 455.957 241.284 459.946 243.909C463.935 246.534 468.605 247.847 473.957 247.847C479.31 247.847 483.98 246.534 487.969 243.909C491.957 241.284 495.043 237.432 497.224 232.352C499.44 227.273 500.548 221.034 500.548 213.636ZM539.399 266V161.273H580.717C588.626 161.273 595.376 162.687 600.967 165.517C606.592 168.312 610.871 172.284 613.803 177.432C616.768 182.545 618.251 188.562 618.251 195.483C618.251 202.437 616.751 208.42 613.751 213.432C610.751 218.409 606.405 222.227 600.712 224.886C595.053 227.545 588.2 228.875 580.155 228.875H552.49V211.08H576.575C580.803 211.08 584.314 210.5 587.109 209.341C589.905 208.182 591.984 206.443 593.348 204.125C594.746 201.807 595.445 198.926 595.445 195.483C595.445 192.006 594.746 189.074 593.348 186.688C591.984 184.301 589.888 182.494 587.058 181.267C584.263 180.006 580.734 179.375 576.473 179.375H561.541V266H539.399ZM595.956 218.341L621.984 266H597.541L572.075 218.341H595.956ZM633.899 266V161.273H656.041V207.449H657.422L695.109 161.273H721.649L682.786 208.165L722.109 266H695.621L666.933 222.943L656.041 236.239V266H633.899Z" fill="white"/>
<path d="M743.292 180.717C740.829 180.717 738.734 180.25 737.006 179.316C735.279 178.39 733.959 177.125 733.048 175.523C732.143 173.927 731.691 172.134 731.691 170.141C731.691 168.134 732.147 166.333 733.059 164.738C733.97 163.142 735.29 161.882 737.018 160.955C738.745 160.029 740.837 159.566 743.292 159.566C745.755 159.566 747.85 160.029 749.578 160.955C751.305 161.882 752.621 163.142 753.526 164.738C754.437 166.333 754.893 168.134 754.893 170.141C754.893 172.134 754.437 173.927 753.526 175.523C752.621 177.125 751.305 178.39 749.578 179.316C747.85 180.25 745.755 180.717 743.292 180.717ZM743.292 175.876C744.887 175.876 746.233 175.637 747.328 175.159C748.424 174.688 749.254 174.023 749.82 173.163C750.387 172.303 750.67 171.295 750.67 170.141C750.67 168.987 750.387 167.98 749.82 167.12C749.254 166.26 748.424 165.591 747.328 165.113C746.233 164.642 744.887 164.407 743.292 164.407C741.697 164.407 740.351 164.642 739.256 165.113C738.161 165.591 737.33 166.26 736.764 167.12C736.198 167.98 735.915 168.987 735.915 170.141C735.915 171.295 736.198 172.303 736.764 173.163C737.33 174.023 738.161 174.688 739.256 175.159C740.351 175.637 741.697 175.876 743.292 175.876ZM732 183.943H754.584V198.896H750.648V188.718H745.266V197.904H741.329V188.718H732V183.943ZM732 212.567V207.45L754.584 215.247V221.4L732 229.185V224.069L749.423 218.412V218.235L732 212.567ZM740.877 212.247V224.333H737.15V212.247H740.877ZM732 231.593H754.584V240.503C754.584 242.209 754.279 243.665 753.669 244.87C753.066 246.083 752.21 247.006 751.1 247.638C749.997 248.278 748.699 248.598 747.207 248.598C745.707 248.598 744.417 248.274 743.336 247.627C742.263 246.98 741.44 246.043 740.866 244.815C740.293 243.595 740.006 242.117 740.006 240.382V234.416H743.844V239.61C743.844 240.522 743.969 241.279 744.218 241.882C744.468 242.485 744.843 242.933 745.343 243.227C745.843 243.529 746.464 243.679 747.207 243.679C747.957 243.679 748.589 243.529 749.104 243.227C749.618 242.933 750.008 242.481 750.273 241.871C750.545 241.268 750.681 240.507 750.681 239.588V236.368H732V231.593ZM742.278 243.79L732 249.403V244.132L742.278 238.64V243.79ZM750.648 250.801H754.584V269.35H750.648V262.435H732V257.716H750.648V250.801Z" fill="white"/>
<path d="M1.96289 27V4.41568H6.7378V23.0632H16.4199V27H1.96289ZM19.2715 27V4.41568H34.4895V8.3525H24.0465V13.7339H33.7065V17.6707H24.0465V23.0632H34.5336V27H19.2715ZM37.115 8.3525V4.41568H55.6633V8.3525H48.749V27H44.0293V8.3525H37.115ZM62.256 4.41568V6.79762C62.256 7.47397 62.1236 8.16503 61.859 8.87079C61.6017 9.5692 61.2561 10.2308 60.8224 10.8557C60.3887 11.4733 59.9145 11.9989 59.3999 12.4327L57.3267 11.2086C57.6943 10.6278 58.0177 9.98457 58.2971 9.27881C58.5838 8.57305 58.7272 7.75334 58.7272 6.81967V4.41568H62.256ZM77.4143 10.9109C77.326 10.0213 76.9474 9.33027 76.2784 8.83771C75.6094 8.34514 74.7015 8.09886 73.5546 8.09886C72.7754 8.09886 72.1174 8.20914 71.5807 8.42969C71.044 8.64289 70.6324 8.94063 70.3456 9.32292C70.0663 9.7052 69.9266 10.139 69.9266 10.6242C69.9119 11.0285 69.9964 11.3814 70.1802 11.6828C70.3714 11.9842 70.6324 12.2452 70.9632 12.4658C71.294 12.679 71.6763 12.8664 72.11 13.0282C72.5438 13.1825 73.0069 13.3149 73.4995 13.4251L75.5286 13.9104C76.5137 14.1309 77.4179 14.425 78.2413 14.7926C79.0647 15.1601 79.7778 15.6123 80.3807 16.1489C80.9835 16.6856 81.4503 17.3179 81.7812 18.0457C82.1193 18.7735 82.2921 19.6079 82.2994 20.5489C82.2921 21.931 81.9392 23.1293 81.2408 24.1439C80.5498 25.1511 79.5499 25.934 78.2413 26.4927C76.9401 27.0441 75.3705 27.3198 73.5326 27.3198C71.7094 27.3198 70.1214 27.0404 68.7687 26.4817C67.4234 25.923 66.3721 25.0959 65.6148 24.0005C64.865 22.8978 64.4717 21.534 64.4349 19.9093H69.0554C69.1069 20.6665 69.3238 21.2988 69.706 21.806C70.0957 22.306 70.614 22.6846 71.2609 22.9419C71.9152 23.1918 72.6541 23.3168 73.4774 23.3168C74.2861 23.3168 74.9882 23.1992 75.5837 22.9639C76.1865 22.7287 76.6534 22.4015 76.9842 21.9825C77.315 21.5634 77.4804 21.0819 77.4804 20.5379C77.4804 20.0306 77.3297 19.6042 77.0283 19.2587C76.7342 18.9132 76.3005 18.6191 75.7271 18.3765C75.161 18.1339 74.4662 17.9133 73.6429 17.7148L71.1837 17.0973C69.2796 16.6341 67.7762 15.91 66.6735 14.9249C65.5707 13.9398 65.023 12.6128 65.0304 10.944C65.023 9.57655 65.3869 8.3819 66.1221 7.36002C66.8646 6.33814 67.8828 5.54048 69.1767 4.96705C70.4706 4.39362 71.9409 4.10691 73.5877 4.10691C75.2639 4.10691 76.7269 4.39362 77.9767 4.96705C79.2338 5.54048 80.2116 6.33814 80.91 7.36002C81.6084 8.3819 81.9686 9.56552 81.9907 10.9109H77.4143Z" fill="white"/>
</svg>
