<?xml version="1.0" standalone="no"?>
<!DOCTYPE svg PUBLIC "-//W3C//DTD SVG 20010904//EN"
 "http://www.w3.org/TR/2001/REC-SVG-20010904/DTD/svg10.dtd">
<svg version="1.0" xmlns="http://www.w3.org/2000/svg"
 width="1280.000000pt" height="872.000000pt" viewBox="0 0 1280.000000 872.000000"
 preserveAspectRatio="xMidYMid meet">
<g transform="translate(0.000000,872.000000) scale(0.100000,-0.100000)"
fill="#000000" stroke="none">
<path d="M2288 8709 c-441 -57 -865 -310 -1179 -704 -160 -200 -323 -502 -405
-748 -140 -423 -161 -866 -57 -1237 149 -537 532 -922 1109 -1115 l123 -41 43
-62 c24 -34 65 -90 92 -124 28 -35 41 -56 30 -47 -57 48 -318 50 -430 3 -18
-8 -43 -14 -54 -14 -12 0 -28 -7 -36 -15 -9 -8 -40 -22 -71 -31 -31 -9 -70
-25 -87 -35 -17 -10 -39 -19 -48 -19 -10 0 -18 -4 -18 -10 0 -5 -8 -10 -18
-10 -10 0 -24 -9 -32 -20 -8 -11 -22 -20 -32 -20 -10 0 -18 -4 -18 -10 0 -5
-9 -10 -20 -10 -11 0 -20 -4 -20 -10 0 -5 -9 -10 -20 -10 -11 0 -20 -4 -20
-10 0 -5 -9 -10 -20 -10 -11 0 -20 -4 -20 -10 0 -5 -5 -10 -10 -10 -6 0 -16
-5 -23 -10 -20 -17 -86 -59 -120 -76 -17 -9 -41 -28 -52 -40 -11 -13 -24 -24
-28 -24 -4 0 -19 -11 -33 -25 -14 -14 -29 -25 -34 -25 -14 0 -58 -47 -65 -70
-3 -11 -11 -20 -16 -20 -16 0 -34 -22 -49 -60 -8 -19 -18 -38 -22 -41 -14 -9
-12 -100 2 -144 16 -46 47 -85 67 -85 8 0 11 -5 8 -10 -3 -5 2 -10 11 -10 10
0 15 -3 11 -6 -3 -3 5 -17 19 -31 13 -13 24 -28 24 -33 0 -6 7 -10 16 -10 8 0
12 -5 9 -10 -3 -6 -1 -10 4 -10 6 0 11 -9 11 -20 0 -11 3 -20 8 -20 4 0 13
-15 20 -32 8 -18 17 -42 22 -53 11 -26 19 -72 29 -160 8 -71 39 -177 53 -183
4 -2 8 -10 8 -18 0 -25 62 -91 100 -106 35 -13 162 -17 250 -7 190 22 310 22
420 0 115 -24 160 -39 160 -52 0 -5 18 -9 40 -9 22 0 40 -4 40 -10 0 -5 9 -10
20 -10 11 0 20 -4 20 -10 0 -5 14 -10 30 -10 17 0 30 -4 30 -10 0 -5 14 -10
30 -10 17 0 30 -4 30 -10 0 -5 9 -10 20 -10 11 0 20 -4 20 -10 0 -5 11 -10 25
-10 14 0 25 -4 25 -9 0 -5 13 -11 29 -14 16 -3 36 -13 44 -22 9 -8 22 -15 29
-15 18 0 232 -110 236 -121 2 -5 10 -9 18 -9 8 0 14 -4 14 -9 0 -5 8 -11 18
-14 21 -7 71 -37 90 -54 7 -7 17 -13 22 -13 5 0 20 -11 34 -25 14 -14 32 -25
41 -25 8 0 15 -4 15 -8 0 -5 11 -15 25 -22 13 -7 22 -16 20 -20 -2 -4 8 -13
23 -21 15 -8 61 -48 104 -89 42 -41 91 -87 107 -102 17 -15 31 -30 31 -34 0
-3 18 -23 40 -44 21 -20 36 -40 33 -44 -4 -3 -1 -6 6 -6 7 0 19 -7 27 -15 9
-8 12 -15 8 -15 -4 0 4 -10 17 -23 25 -24 41 -49 68 -102 8 -16 17 -32 20 -35
3 -3 11 -16 17 -30 6 -14 21 -46 33 -73 11 -26 21 -54 21 -62 0 -8 4 -15 10
-15 5 0 15 -20 21 -45 6 -25 15 -42 20 -39 5 3 9 -9 9 -25 0 -17 5 -31 10 -31
6 0 10 -11 10 -25 0 -14 5 -25 10 -25 6 0 10 -9 10 -20 0 -11 5 -20 10 -20 6
0 10 -10 10 -22 0 -19 2 -20 10 -8 8 12 10 10 10 -8 0 -13 4 -20 10 -17 5 3
10 1 10 -5 0 -17 26 -40 47 -40 15 0 16 -2 3 -10 -11 -7 -6 -10 20 -10 26 0
31 -3 20 -10 -12 -8 -11 -10 8 -10 12 0 22 -4 22 -10 0 -5 11 -10 25 -10 14 0
25 -4 25 -10 0 -5 23 -10 50 -10 28 0 50 -4 50 -9 0 -11 52 -24 188 -48 17 -3
32 -9 32 -14 0 -5 19 -9 43 -10 23 0 78 -7 122 -15 44 -8 98 -18 120 -21 22
-3 43 -10 47 -16 8 -13 92 -36 136 -37 21 0 32 -5 32 -14 0 -9 7 -12 19 -9 10
3 22 0 25 -6 4 -6 16 -11 26 -11 11 0 35 -9 55 -20 20 -11 47 -20 61 -20 14 0
22 -4 19 -10 -3 -5 -1 -10 6 -10 17 0 157 -71 170 -87 6 -7 18 -13 26 -13 8 0
25 -10 38 -23 37 -34 55 -48 55 -43 0 8 54 -41 134 -121 89 -90 120 -126 124
-143 2 -7 16 -25 32 -40 17 -16 30 -32 30 -38 0 -5 14 -23 30 -40 17 -18 30
-37 30 -42 0 -6 5 -8 10 -5 6 3 10 1 10 -5 0 -14 58 -89 89 -115 13 -11 38
-33 55 -50 17 -16 43 -36 59 -44 15 -8 27 -19 27 -25 0 -6 5 -4 10 4 8 12 10
11 10 -5 0 -15 7 -21 27 -23 15 -1 29 -6 32 -10 8 -12 92 -32 131 -32 16 0 39
-6 50 -13 14 -8 23 -9 28 -1 4 6 32 12 62 13 30 2 61 6 70 11 18 10 19 10 76
10 27 0 43 4 39 10 -4 6 6 10 24 10 16 0 33 5 36 10 3 6 19 10 35 10 16 0 45
9 65 20 20 11 47 20 60 20 14 0 25 5 25 11 0 5 4 8 9 4 5 -3 15 0 23 7 7 7 24
15 37 16 13 2 33 12 44 23 12 10 31 19 44 19 13 0 23 5 23 10 0 6 7 10 16 10
20 0 94 41 94 52 0 4 6 8 14 8 22 0 100 37 126 60 14 12 37 24 52 27 16 3 28
9 28 14 0 5 9 9 20 9 11 0 25 9 32 20 7 11 18 20 25 20 7 0 13 5 13 10 0 6 9
10 20 10 11 0 20 5 20 10 0 6 9 10 20 10 11 0 20 5 20 10 0 6 8 10 18 10 10 0
24 9 32 20 8 11 22 20 31 20 10 0 19 4 21 9 2 5 10 11 18 13 8 2 22 10 30 18
8 8 22 16 30 18 8 2 17 8 18 13 2 5 12 9 21 9 10 0 26 9 36 20 10 11 23 20 30
20 7 0 19 8 28 18 9 9 33 26 54 37 21 11 45 27 53 35 8 8 22 16 30 18 8 2 17
8 18 13 2 5 13 9 25 10 14 0 17 3 8 6 -9 4 -2 11 20 20 19 8 35 14 36 14 1 0
16 13 34 30 17 16 37 29 45 29 8 0 14 4 14 9 0 5 13 14 30 21 16 7 27 16 24
21 -3 5 3 9 13 9 10 0 25 9 33 20 8 11 21 20 30 20 9 0 22 9 30 20 8 11 20 20
28 20 13 0 25 9 67 47 13 13 28 23 33 23 6 0 20 11 33 25 13 14 39 33 56 41
18 9 30 20 27 25 -3 5 2 9 10 9 9 0 16 5 16 10 0 6 7 10 15 10 8 0 15 5 15 10
0 6 6 10 13 10 7 0 19 9 27 20 8 11 18 20 22 20 4 0 33 25 64 55 32 30 61 55
66 55 4 0 8 4 8 9 0 5 12 23 28 39 34 38 44 50 61 85 8 15 18 27 23 27 4 0 8
8 8 18 0 10 6 26 14 37 18 26 28 81 33 187 5 93 -12 167 -45 197 -9 9 -18 23
-20 31 -2 8 -8 17 -13 18 -5 2 -9 11 -9 21 0 9 -9 23 -20 31 -11 8 -20 20 -20
27 0 7 -4 13 -9 13 -11 0 -71 55 -71 65 0 12 -53 55 -67 55 -7 0 -13 5 -13 10
0 6 -7 10 -15 10 -8 0 -27 13 -42 29 -16 16 -50 39 -78 52 -27 12 -52 25 -55
28 -9 10 -54 30 -75 33 -11 2 -28 12 -37 22 -12 12 -18 14 -18 6 0 -7 -9 -3
-20 10 -13 15 -20 18 -20 9 0 -8 -3 -10 -8 -4 -4 6 -22 16 -41 22 -27 10 -38
10 -50 0 -9 -6 43 49 114 123 345 359 600 760 795 1250 277 698 333 1383 155
1915 -25 73 -104 245 -126 271 -7 8 21 18 93 33 247 51 493 86 1158 166 1161
139 1627 219 2011 345 232 76 360 150 475 273 155 167 209 329 159 477 -14 44
-34 71 -94 130 -162 161 -293 193 -641 155 -455 -48 -1002 -167 -2315 -504
-829 -212 -1004 -255 -1201 -291 -140 -26 -148 -25 -192 10 -116 92 -295 111
-437 46 -68 -31 -146 -103 -171 -157 l-18 -42 -150 7 -150 7 -85 82 c-170 163
-327 275 -506 363 -217 106 -397 148 -630 148 -217 -1 -380 -33 -594 -118 -48
-20 -94 -36 -100 -36 -7 0 -92 34 -189 76 l-177 75 -59 104 c-296 525 -759
805 -1328 805 l-137 0 -63 41 c-170 110 -467 234 -658 273 -170 35 -371 44
-522 25z m1378 -4535 c193 -89 254 -121 258 -137 7 -28 0 -34 -9 -8 -4 15 -15
21 -36 21 -16 0 -29 5 -29 10 0 6 -10 10 -23 10 -12 0 -47 9 -77 20 -30 11
-63 20 -73 20 -10 0 -15 5 -12 10 3 6 -3 10 -15 10 -12 0 -34 7 -50 15 -17 9
-33 15 -37 15 -5 1 -26 6 -48 12 -22 6 -49 13 -59 15 -11 2 -24 7 -30 11 -6 5
-31 14 -56 22 -25 7 -58 18 -73 24 l-28 11 53 17 c29 9 62 17 72 17 10 1 133
-51 272 -115z m-409 70 c-3 -3 -12 -4 -19 -1 -8 3 -5 6 6 6 11 1 17 -2 13 -5z"/>
<path d="M11120 6340 c0 -5 -18 -10 -40 -10 -22 0 -40 -4 -40 -10 0 -5 -18
-10 -39 -10 -24 0 -41 -5 -44 -14 -3 -8 -24 -17 -48 -21 -36 -6 -105 -38 -119
-55 -3 -4 -40 -17 -82 -31 -43 -13 -78 -30 -78 -36 0 -7 -9 -13 -20 -13 -11 0
-20 -4 -20 -10 0 -5 -10 -10 -23 -10 -13 0 -27 -4 -33 -10 -5 -5 -22 -11 -37
-12 -16 -1 -27 -8 -27 -18 0 -8 -24 -26 -55 -40 -30 -14 -55 -28 -55 -32 0 -5
-13 -8 -30 -8 -23 0 -30 -4 -30 -20 0 -13 -7 -20 -20 -20 -16 0 -20 -7 -20
-30 0 -16 -4 -30 -10 -30 -5 0 -10 -9 -10 -19 0 -35 46 -37 172 -10 32 7 49
17 53 30 5 14 16 19 46 19 21 0 39 5 39 10 0 6 14 10 30 10 17 0 30 5 30 10 0
6 13 10 28 10 16 0 34 8 42 20 8 11 20 20 28 20 7 0 20 7 28 15 9 8 24 15 35
15 10 0 19 6 19 14 0 7 12 16 28 19 88 17 144 42 190 84 7 7 32 17 55 23 68
18 128 51 139 76 6 13 19 24 30 24 10 0 18 5 18 10 0 6 6 10 14 10 8 0 18 9
21 20 3 11 11 20 16 20 5 0 9 5 9 10 0 6 -38 10 -95 10 -57 0 -95 -4 -95 -10z"/>
</g>
</svg>
