<svg xmlns="http://www.w3.org/2000/svg" xmlns:xlink="http://www.w3.org/1999/xlink" width="109" height="109" viewBox="0 0 109 109">
  <defs>
    <clipPath id="clip-path">
      <circle id="Ellipse_26" data-name="Ellipse 26" cx="54.5" cy="54.5" r="54.5" transform="translate(-0.071 -0.028)" fill="#a5da76"/>
    </clipPath>
  </defs>
  <g id="Groupe_174" data-name="Groupe 174" transform="translate(0.071 0.028)">
    <circle id="Ellipse_27" data-name="Ellipse 27" cx="54.5" cy="54.5" r="54.5" transform="translate(-0.071 -0.028)" fill="#a5da76"/>
    <g id="Groupe_de_masques_2" data-name="Groupe de masques 2" transform="translate(0 0)" clip-path="url(#clip-path)">
      <g id="Groupe_34" data-name="Groupe 34" transform="translate(20.328 12.941)">
        <g id="Groupe_33" data-name="Groupe 33" transform="translate(0 0)">
          <path id="Tracé_30" data-name="Tracé 30" d="M414.52,204.839a28.434,28.434,0,0,0-3.146-8.65c-1.9-3.637-3.916-6.284-7.006-7.8-7.236-3.55-15.063-4.781-22.587-6.492a10.91,10.91,0,0,0-1.845,0c-7.525,1.711-15.352,2.942-22.588,6.492-3.09,1.516-5.1,4.162-7.006,7.8a28.474,28.474,0,0,0-3.142,8.65Z" transform="translate(-347.199 -109.671)" fill="#ffb381"/>
          <g id="Groupe_30" data-name="Groupe 30" transform="translate(4.112 5.33)">
            <g id="Groupe_23" data-name="Groupe 23" transform="translate(7.742)">
              <rect id="Rectangle_4" data-name="Rectangle 4" width="12.464" height="21.499" transform="translate(15.575 53.258)" fill="#ffb381"/>
              <path id="Tracé_31" data-name="Tracé 31" d="M395.6,164.878a9.435,9.435,0,0,0,12.464,0v-7H395.6Z" transform="translate(-380.024 -104.625)" fill="#ffb381" style="mix-blend-mode: multiply;isolation: isolate"/>
              <path id="Tracé_32" data-name="Tracé 32" d="M410.95,77.282c-.856-9.357-14.884-13.437-22.125-13.376-8,.069-19.051,3.729-19.936,13.387a165.059,165.059,0,0,0-.759,17.458c.079,5.259-.314,11.268,1.348,16.322,2.569,7.805,12.391,9.709,19.285,11.65a5.659,5.659,0,0,0,2.314,0c6.874-1.934,16.13-3.732,19.1-11.179,1.915-4.809,1.388-10.832,1.518-15.912A157.736,157.736,0,0,0,410.95,77.282Z" transform="translate(-368.116 -63.906)" fill="#ffb381"/>
            </g>
            <g id="Groupe_26" data-name="Groupe 26" transform="translate(0 25.818)">
              <g id="Groupe_24" data-name="Groupe 24">
                <path id="Tracé_33" data-name="Tracé 33" d="M370.927,113.55c-.031-.083-.025-.066,0,0Z" transform="translate(-361.582 -111.21)" fill="#ffb381"/>
                <path id="Tracé_34" data-name="Tracé 34" d="M364.912,114.193a19.653,19.653,0,0,0-.916-1.942,4.691,4.691,0,0,1-.2-.448c.03.078.091.244.2.548q-.173-.456-.383-.9-.995-1.3-.1-.106a3.921,3.921,0,0,0-2.784-1.639,3.62,3.62,0,0,0-.369-.124,4.459,4.459,0,0,0-4.408,1.494c-2.388,2.718-1.683,6.867.382,9.505a5.033,5.033,0,0,0,3.958,1.806,5.244,5.244,0,0,0,4.327-2.907A6.091,6.091,0,0,0,364.912,114.193Z" transform="translate(-354.454 -109.463)" fill="#ffb381"/>
              </g>
              <g id="Groupe_25" data-name="Groupe 25" transform="translate(48.17)">
                <path id="Tracé_35" data-name="Tracé 35" d="M442.25,113.55c.031-.083.026-.066,0,0Z" transform="translate(-440.665 -111.21)" fill="#ffb381"/>
                <path id="Tracé_36" data-name="Tracé 36" d="M440.21,119.485a5.247,5.247,0,0,0,4.329,2.907,5.033,5.033,0,0,0,3.958-1.806c2.066-2.638,2.771-6.787.382-9.505a4.458,4.458,0,0,0-4.407-1.494,3.606,3.606,0,0,0-.371.124,3.927,3.927,0,0,0-2.784,1.639q.9-1.193-.1.106-.211.439-.383.9c.111-.3.172-.47.2-.548a4.842,4.842,0,0,1-.2.448,19.907,19.907,0,0,0-.918,1.942A6.1,6.1,0,0,0,440.21,119.485Z" transform="translate(-439.454 -109.463)" fill="#ffb381"/>
              </g>
            </g>
            <path id="Tracé_37" data-name="Tracé 37" d="M400.6,106.5c3.4,4.25,5.95,12.184.283,15.585.85,1.133,2.55,2.834,4.25,3.117" transform="translate(-374.447 -82.361)" fill="none" stroke="#d1722e" stroke-miterlimit="10" stroke-width="1"/>
            <g id="Groupe_29" data-name="Groupe 29" transform="translate(16.122 28.011)">
              <g id="Groupe_27" data-name="Groupe 27">
                <path id="Tracé_38" data-name="Tracé 38" d="M388.017,117.395c0,2.243-1.145,4.062-2.557,4.062s-2.558-1.819-2.558-4.062,1.146-4.062,2.558-4.062S388.017,115.152,388.017,117.395Z" transform="translate(-382.902 -113.333)" fill="#3c1e05"/>
              </g>
              <g id="Groupe_28" data-name="Groupe 28" transform="translate(22.574)">
                <path id="Tracé_39" data-name="Tracé 39" d="M427.851,117.395c0,2.243-1.146,4.062-2.558,4.062s-2.557-1.819-2.557-4.062,1.145-4.062,2.557-4.062S427.851,115.152,427.851,117.395Z" transform="translate(-422.736 -113.333)" fill="#3c1e05"/>
              </g>
            </g>
          </g>
          <g id="Groupe_31" data-name="Groupe 31" transform="translate(14.447 25.995)">
            <path id="Tracé_40" data-name="Tracé 40" d="M375.435,106.264a35.753,35.753,0,0,1,5.389-1.307c1.578-.18,3.133.241,4.593-.561a1.29,1.29,0,0,0,.594-1.462c-1.531-4.558-8.632-1.828-11.755-.942-2.745.779-1.582,5.036,1.178,4.273Z" transform="translate(-372.692 -100.37)" fill="#341908"/>
          </g>
          <g id="Groupe_32" data-name="Groupe 32" transform="translate(39.949 25.995)">
            <path id="Tracé_41" data-name="Tracé 41" d="M428.323,106.264a35.736,35.736,0,0,0-5.388-1.307c-1.578-.18-3.133.241-4.593-.561a1.291,1.291,0,0,1-.6-1.462c1.532-4.558,8.632-1.828,11.755-.942,2.746.779,1.583,5.036-1.178,4.273Z" transform="translate(-417.692 -100.37)" fill="#341908"/>
          </g>
          <path id="Tracé_42" data-name="Tracé 42" d="M389.539,79.827c8.623,0,16.382-1.588,21.793-4.121-2.184-8.239-15.022-11.858-21.842-11.8-7.779.067-18.45,3.535-19.838,12.616A56.155,56.155,0,0,0,389.539,79.827Z" transform="translate(-356.928 -58.575)" fill="#341908"/>
          <path id="Tracé_43" data-name="Tracé 43" d="M408.042,65.786c-1.985-3.961-5.7-8.257-9.976-9.826a26.683,26.683,0,0,0-9.144-1.46c-8.639,0-15.2,3.518-19.242,11.285a40,40,0,0,0-4.122,23c.141,1.22,1.986,1.29,1.957,0a38.2,38.2,0,0,1,1.149-10.323c.793-3.145,2.435-5.885,3.81-8.781a26.368,26.368,0,0,1,2.671-4.607c2.476,2.462,7.715,4.16,13.777,4.16,6,0,11.183-1.662,13.693-4.079a29.757,29.757,0,0,1,2.449,4.149c3.23,6.342,5.312,12.257,5.144,19.481-.03,1.29,1.816,1.22,1.957,0A40.654,40.654,0,0,0,408.042,65.786Z" transform="translate(-355.036 -54.5)" fill="#341908"/>
          <path id="Tracé_44" data-name="Tracé 44" d="M411.375,199.424c-1.9-3.637-3.916-6.284-7.006-7.8a47.669,47.669,0,0,0-5.549-2.28c-3.926,1.469-10.446,2.431-17.83,2.431-7.461,0-14.041-.982-17.953-2.477a47.754,47.754,0,0,0-5.688,2.326c-3.09,1.516-5.1,4.162-7.006,7.8a28.474,28.474,0,0,0-3.142,8.65H414.52A28.434,28.434,0,0,0,411.375,199.424Z" transform="translate(-347.199 -112.907)" fill="#a46e3a"/>
        </g>
        <path id="Tracé_45" data-name="Tracé 45" d="M395.677,146h13.2S402.66,155.113,395.677,146Z" transform="translate(-368.204 -94.146)" fill="#fff"/>
      </g>
    </g>
  </g>
</svg>
