<svg xmlns="http://www.w3.org/2000/svg" width="502.856" height="650.405" viewBox="0 0 502.856 650.405">
  <path id="Tracé_510" data-name="Tracé 510" d="M615.99,502.842c17.877-19.732,37.054-48.01,34.115-79.9s-28.345-40.345-35.957-74.378c-11.783-52.682,20.843-75.5,23.375-123.35,4.537-85.876-91.347-187.029-183.345-197.728-55.607-6.446-63.408,25.474-133.019,21.574C235.446,44.263,220.223-5.67,159.388.533,89.967,7.6,17.485,82.021,17.377,149.722c-.108,69.8,76.775,101.071,61.119,154.58-10.347,35.361-50.109,33.492-71.9,75.5C-14.1,419.675,18.961,481.024,36.269,502.856Z" transform="translate(502.856 0) rotate(90)" fill="#a5da76" opacity="0.47"/>
</svg>
