<svg id="Groupe_91" data-name="Groupe 91" xmlns="http://www.w3.org/2000/svg" xmlns:xlink="http://www.w3.org/1999/xlink" width="390.007" height="258.541" viewBox="0 0 390.007 258.541">
  <defs>
    <clipPath id="clip-path">
      <path id="Tracé_430" data-name="Tracé 430" d="M0,21.271c1.026-1.052,1.974-2.1,2.876-3.157a7.567,7.567,0,0,0,1.6-2.347,6.153,6.153,0,0,0,.406-1.957,5.171,5.171,0,0,0,1-1.052,5.225,5.225,0,0,0,.868-2.1c.214-.905.993-2.1,3.53-3.652-.056-.379-.53-4.009,1.816-5.883A5.737,5.737,0,0,1,14.211.139C18-.766,19.229,2.939,16.466,5.4a6.865,6.865,0,0,0-.947,9.261c1.038,1.515,1.613,2.673,2.075,3.157a9.417,9.417,0,0,0,.914.852c.553.442,1.816.852,5,2.1-2.436-.926-5.4,1.41-6.62,3.883s.09,4.693-.88,5.483S11.03,29.763,0,21.271Z" transform="translate(0 0)" fill="#ea717d"/>
    </clipPath>
  </defs>
  <g id="OBJECTS" transform="translate(0 0)">
    <g id="Groupe_86" data-name="Groupe 86">
      <g id="Groupe_85" data-name="Groupe 85">
        <g id="Groupe_9" data-name="Groupe 9" transform="translate(17.333)">
          <path id="Tracé_1" data-name="Tracé 1" d="M526.209,245.182a2.657,2.657,0,1,1-2.656-2.658A2.66,2.66,0,0,1,526.209,245.182Zm-1.317,0a1.341,1.341,0,1,0-1.339,1.341A1.341,1.341,0,0,0,524.892,245.182Z" transform="translate(-242.723 -116.514)" fill="#91a8f6"/>
          <g id="Groupe_1" data-name="Groupe 1" transform="translate(304.716 31.374)">
            <path id="Tracé_2" data-name="Tracé 2" d="M586.358,105.148h-15.05a.658.658,0,0,0,0,1.316h15.05a.658.658,0,1,0,0-1.316Z" transform="translate(-562.92 -105.145)" fill="#91a8f6"/>
            <path id="Tracé_3" data-name="Tracé 3" d="M563.027,105.144h-2.94a.659.659,0,1,0,0,1.317h2.94a.659.659,0,1,0,0-1.317Z" transform="translate(-559.428 -105.144)" fill="#91a8f6"/>
            <path id="Tracé_4" data-name="Tracé 4" d="M575.8,112.463a.659.659,0,0,1-.659.659h-1.883a.659.659,0,0,1,0-1.317h1.883A.659.659,0,0,1,575.8,112.463Zm-5.174,0a.659.659,0,0,1-.659.659h-3.292a.659.659,0,1,1,0-1.317h3.292A.659.659,0,0,1,570.622,112.463Zm-6.584,0a.658.658,0,0,1-.658.659h-3.292a.659.659,0,0,1,0-1.317h3.292A.658.658,0,0,1,564.038,112.463Z" transform="translate(-559.429 -107.216)" fill="#91a8f6"/>
          </g>
          <g id="Groupe_2" data-name="Groupe 2" transform="translate(80.077 70.694)">
            <path id="Tracé_5" data-name="Tracé 5" d="M238.7,169.04a.659.659,0,0,0-.659.659v1.527a.659.659,0,0,0,1.317,0V169.7A.659.659,0,0,0,238.7,169.04Z" transform="translate(-234.795 -164.345)" fill="#91a8f6"/>
            <path id="Tracé_6" data-name="Tracé 6" d="M235.513,166.816h-1.528a.659.659,0,0,0,0,1.317h1.528a.659.659,0,0,0,0-1.317Z" transform="translate(-233.327 -163.653)" fill="#91a8f6"/>
            <path id="Tracé_7" data-name="Tracé 7" d="M238.7,162.224a.658.658,0,0,0-.659.658v1.527a.659.659,0,0,0,1.317,0v-1.527A.658.658,0,0,0,238.7,162.224Z" transform="translate(-234.795 -162.224)" fill="#91a8f6"/>
            <path id="Tracé_8" data-name="Tracé 8" d="M242.733,166.664H241.2a.658.658,0,0,0,0,1.316h1.528a.658.658,0,0,0,0-1.316Z" transform="translate(-235.573 -163.605)" fill="#91a8f6"/>
          </g>
          <g id="Groupe_3" data-name="Groupe 3" transform="translate(245.681 28.009)">
            <path id="Tracé_9" data-name="Tracé 9" d="M479.1,107.076a.659.659,0,0,0-.659.659v1.527a.659.659,0,0,0,1.317,0v-1.527A.659.659,0,0,0,479.1,107.076Z" transform="translate(-475.196 -102.38)" fill="#91a8f6"/>
            <path id="Tracé_10" data-name="Tracé 10" d="M475.914,104.852h-1.528a.658.658,0,0,0,0,1.316h1.528a.658.658,0,0,0,0-1.316Z" transform="translate(-473.728 -101.688)" fill="#91a8f6"/>
            <path id="Tracé_11" data-name="Tracé 11" d="M479.1,100.259a.659.659,0,0,0-.659.659v1.527a.659.659,0,0,0,1.317,0v-1.527A.659.659,0,0,0,479.1,100.259Z" transform="translate(-475.196 -100.259)" fill="#91a8f6"/>
            <path id="Tracé_12" data-name="Tracé 12" d="M483.134,104.7h-1.528a.658.658,0,0,0,0,1.316h1.528a.658.658,0,0,0,0-1.316Z" transform="translate(-475.974 -101.641)" fill="#91a8f6"/>
          </g>
          <g id="Groupe_4" data-name="Groupe 4" transform="translate(164.769)">
            <path id="Tracé_13" data-name="Tracé 13" d="M383.2,59.6h-15.05a.658.658,0,0,0,0,1.316H383.2a.658.658,0,1,0,0-1.316Z" transform="translate(-359.764 -59.601)" fill="#91a8f6"/>
            <path id="Tracé_14" data-name="Tracé 14" d="M359.871,59.6H356.93a.658.658,0,0,0,0,1.316h2.941a.658.658,0,1,0,0-1.316Z" transform="translate(-356.272 -59.6)" fill="#91a8f6"/>
            <path id="Tracé_15" data-name="Tracé 15" d="M372.64,66.919a.658.658,0,0,1-.659.658H370.1a.658.658,0,0,1,0-1.316h1.883A.659.659,0,0,1,372.64,66.919Zm-5.174,0a.658.658,0,0,1-.659.658h-3.292a.658.658,0,0,1,0-1.316h3.292A.659.659,0,0,1,367.466,66.919Zm-6.584,0a.658.658,0,0,1-.658.658h-3.292a.658.658,0,1,1,0-1.316h3.292A.658.658,0,0,1,360.881,66.919Z" transform="translate(-356.272 -61.672)" fill="#91a8f6"/>
          </g>
          <path id="Tracé_16" data-name="Tracé 16" d="M625.128,158.684a2.325,2.325,0,1,0,2.325-2.325A2.324,2.324,0,0,0,625.128,158.684Z" transform="translate(-275.154 -89.705)" fill="#91a8f6"/>
          <g id="Groupe_5" data-name="Groupe 5" transform="translate(36.814 181.572)">
            <path id="Tracé_17" data-name="Tracé 17" d="M182.4,324.5h15.05a.658.658,0,0,0,0-1.316H182.4a.658.658,0,1,0,0,1.316Z" transform="translate(-174.016 -323.182)" fill="#91a8f6"/>
            <path id="Tracé_18" data-name="Tracé 18" d="M171.183,324.5h2.941a.658.658,0,0,0,0-1.316h-2.941a.658.658,0,1,0,0,1.316Z" transform="translate(-170.524 -323.183)" fill="#91a8f6"/>
          </g>
          <path id="Tracé_19" data-name="Tracé 19" d="M592.53,340.636s.9,6.413-6.592,6.265c0,0,6.435.065,6.266,6.083,0,0,.579-4.734,6.484-5.791C598.687,347.193,593.7,348.338,592.53,340.636Z" transform="translate(-262.96 -147.04)" fill="#91a8f6"/>
          <path id="Tracé_20" data-name="Tracé 20" d="M644.449,209.323s.9,6.413-6.592,6.265c0,0,6.435.065,6.265,6.083,0,0,.579-4.734,6.484-5.791C650.606,215.88,645.616,217.025,644.449,209.323Z" transform="translate(-279.114 -106.184)" fill="#91a8f6"/>
          <path id="Tracé_21" data-name="Tracé 21" d="M299.544,83.28s.9,6.413-6.592,6.265c0,0,6.435.066,6.266,6.083,0,0,.579-4.733,6.484-5.791C305.7,89.837,300.711,90.982,299.544,83.28Z" transform="translate(-171.802 -66.968)" fill="#91a8f6"/>
          <path id="Tracé_22" data-name="Tracé 22" d="M205.932,108.99s.9,6.413-6.592,6.265c0,0,6.435.066,6.265,6.083,0,0,.579-4.734,6.484-5.791C212.089,115.547,207.1,116.692,205.932,108.99Z" transform="translate(-142.675 -74.967)" fill="#91a8f6"/>
          <path id="Tracé_23" data-name="Tracé 23" d="M264.612,69.2s.313,2.235-2.3,2.184c0,0,2.244.023,2.183,2.121a2.546,2.546,0,0,1,2.26-2.02S265.018,71.884,264.612,69.2Z" transform="translate(-162.269 -62.587)" fill="#91a8f6"/>
          <path id="Tracé_24" data-name="Tracé 24" d="M434.9,181.07s.313,2.235-2.3,2.184c0,0,2.244.023,2.183,2.121a2.547,2.547,0,0,1,2.26-2.02S435.309,183.754,434.9,181.07Z" transform="translate(-215.253 -97.394)" fill="#91a8f6"/>
          <path id="Tracé_25" data-name="Tracé 25" d="M119.379,236.533s.313,2.235-2.3,2.184c0,0,2.243.023,2.183,2.121a2.545,2.545,0,0,1,2.26-2.019S119.786,239.217,119.379,236.533Z" transform="translate(-117.082 -114.65)" fill="#91a8f6"/>
          <path id="Tracé_26" data-name="Tracé 26" d="M402.525,324.013s.313,2.235-2.3,2.184c0,0,2.244.023,2.183,2.12a2.546,2.546,0,0,1,2.26-2.019S402.931,326.7,402.525,324.013Z" transform="translate(-205.179 -141.868)" fill="#91a8f6"/>
          <g id="Groupe_6" data-name="Groupe 6" transform="translate(90.587 134.182)">
            <path id="Tracé_27" data-name="Tracé 27" d="M266.587,266.323H251.975a3.39,3.39,0,0,1-.109-6.778,5.247,5.247,0,0,1,9.641-2.776,3.8,3.8,0,0,1,4.225,2.774h.855a3.39,3.39,0,0,1,0,6.78Zm-14.613-5.777a2.387,2.387,0,1,0,0,4.774h14.613a2.387,2.387,0,1,0,0-4.774H264.9l-.067-.423a2.8,2.8,0,0,0-3.459-2.309l-.369.088-.185-.331a4.243,4.243,0,0,0-7.952,2.063c0,.124.008.247.019.367l.047.545Z" transform="translate(-248.584 -254.387)" fill="#91a8f6"/>
          </g>
          <g id="Groupe_7" data-name="Groupe 7" transform="translate(351.281 10.513)">
            <path id="Tracé_28" data-name="Tracé 28" d="M645.027,86.8H630.414a3.39,3.39,0,0,1-.108-6.779,5.246,5.246,0,0,1,9.641-2.775,3.807,3.807,0,0,1,4.226,2.774h.855a3.39,3.39,0,0,1,0,6.78ZM630.414,81.02a2.387,2.387,0,0,0,0,4.774h14.614a2.387,2.387,0,1,0,0-4.774H643.34l-.067-.423a2.806,2.806,0,0,0-3.459-2.309l-.369.088-.185-.331a4.244,4.244,0,0,0-7.952,2.064c0,.124.008.246.019.367l.046.544Z" transform="translate(-627.024 -74.861)" fill="#91a8f6"/>
          </g>
          <g id="Groupe_8" data-name="Groupe 8" transform="translate(125.012 47.822)">
            <path id="Tracé_29" data-name="Tracé 29" d="M316.561,140.959H301.948a3.39,3.39,0,0,1-.108-6.778,5.246,5.246,0,0,1,9.641-2.775,3.807,3.807,0,0,1,4.226,2.774h.855a3.39,3.39,0,0,1,0,6.78Zm-14.614-5.777a2.387,2.387,0,1,0,0,4.774h14.614a2.387,2.387,0,0,0,0-4.774h-1.687l-.067-.423a2.806,2.806,0,0,0-3.459-2.309l-.369.088-.185-.331a4.244,4.244,0,0,0-7.952,2.063c0,.124.008.247.019.367l.046.545Z" transform="translate(-298.558 -129.022)" fill="#91a8f6"/>
          </g>
        </g>
        <g id="Groupe_40" data-name="Groupe 40" transform="translate(122.519 124.895)">
          <g id="Groupe_11" data-name="Groupe 11" transform="translate(59.197 62.879)">
            <path id="Tracé_30" data-name="Tracé 30" d="M380.111,392.865h0a11.81,11.81,0,0,1-14.579-8.149L356.16,351.6a11.81,11.81,0,0,1,8.149-14.58h0a11.811,11.811,0,0,1,14.58,8.149l9.371,33.119A11.81,11.81,0,0,1,380.111,392.865Z" transform="translate(-355.711 -333.549)" fill="#93c7ea"/>
            <path id="Tracé_31" data-name="Tracé 31" d="M370.117,397.645h0a11.81,11.81,0,0,1-.162-16.7l24.1-24.573a11.81,11.81,0,0,1,16.7-.162h0a11.81,11.81,0,0,1,.162,16.7l-24.1,24.572A11.81,11.81,0,0,1,370.117,397.645Z" transform="translate(-359.092 -338.608)" fill="#93c7ea"/>
            <g id="Groupe_10" data-name="Groupe 10" transform="translate(39.153)">
              <path id="Tracé_32" data-name="Tracé 32" d="M432.772,347.3a10.348,10.348,0,1,1-14.349-2.877A10.348,10.348,0,0,1,432.772,347.3Z" transform="translate(-412.94 -335.451)" fill="#ff8383"/>
              <path id="Tracé_33" data-name="Tracé 33" d="M416.835,351.534h0a2.7,2.7,0,0,1-3.284-1.939l-.918-3.561a2.7,2.7,0,0,1,1.938-3.284h0a2.7,2.7,0,0,1,3.284,1.938l.917,3.561A2.7,2.7,0,0,1,416.835,351.534Z" transform="translate(-412.547 -335.445)" fill="#ff8383"/>
              <path id="Tracé_34" data-name="Tracé 34" d="M429.742,336.013l-3.667,9.282a2.8,2.8,0,0,1-3.632,1.575h0a2.8,2.8,0,0,1-1.575-3.632l3.667-9.282a2.8,2.8,0,0,1,3.632-1.575h0A2.8,2.8,0,0,1,429.742,336.013Z" transform="translate(-415.075 -332.185)" fill="#ff8383"/>
              <path id="Tracé_35" data-name="Tracé 35" d="M438.821,338.741l-4.428,8.944a2.8,2.8,0,0,1-3.75,1.267h0a2.8,2.8,0,0,1-1.267-3.751l4.427-8.944a2.8,2.8,0,0,1,3.751-1.267h0A2.8,2.8,0,0,1,438.821,338.741Z" transform="translate(-417.693 -332.967)" fill="#ff8383"/>
              <path id="Tracé_36" data-name="Tracé 36" d="M445.148,345.748l-6.184,7.834a2.8,2.8,0,0,1-3.932.463h0a2.8,2.8,0,0,1-.462-3.932l6.183-7.834a2.8,2.8,0,0,1,3.932-.463h0A2.8,2.8,0,0,1,445.148,345.748Z" transform="translate(-419.212 -334.994)" fill="#ff8383"/>
            </g>
          </g>
          <g id="Groupe_31" data-name="Groupe 31" transform="translate(49.128 27.413)">
            <g id="Groupe_12" data-name="Groupe 12" transform="translate(0)">
              <path id="Rectangle_2" data-name="Rectangle 2" d="M0,0H13.8a0,0,0,0,1,0,0V19.346a6.9,6.9,0,0,1-6.9,6.9h0a6.9,6.9,0,0,1-6.9-6.9V0A0,0,0,0,1,0,0Z" transform="translate(1.032 0.75) rotate(2.253)" fill="#ff8383"/>
              <path id="Tracé_37" data-name="Tracé 37" d="M356.28,281.242l-13.786-.542-.213,5.415c-.209,5.306,4.11,9.964,9.407,9.578a9.51,9.51,0,0,0,4.073-1.252Z" transform="translate(-341.462 -280.7)" fill="#d15e79"/>
            </g>
          </g>
          <g id="Groupe_193" data-name="Groupe 193" transform="matrix(0.978, -0.208, 0.208, 0.978, 40.056, 7.207)">
            <path id="Tracé_426" data-name="Tracé 426" d="M5,31.028c-11.8-12.07.293-24.4,5.413-29.95C14.094-2.91,31.587,5.393,32.286,6.151c1.128,1.21,1.523,3.61,0,4.378s-3.169.989-4.681,1.736c-1.94,1.473-3.959,2.894-5.955,4.315.406,1.347-2.143,3-3.124,5.356s-5.368,1.252-5.357-2.557C13.181,18.242,6.324,31.544,5,31.028Z" transform="translate(1.38 0)" fill="#282e5b"/>
            <path id="Tracé_427" data-name="Tracé 427" d="M17.348.569A26.406,26.406,0,0,1,18.476,5.7c.1,1.61-.62,1.61-1.128,3.157s1.624,3.809,1.489,5.262a1.014,1.014,0,0,1-.2.474c-.677.989-2.673.768-3.124.705-1.286,2.641-2.583,5.262-3.846,7.9a2.96,2.96,0,0,1-1.331,1.452c-1.94.979-4.635-.831-5.5-1.421A11.19,11.19,0,0,1,.453,17.2a11.47,11.47,0,0,1,.44-7.63l3.575,1.41A29.732,29.732,0,0,1,6.837,6.063a2.417,2.417,0,0,1,.925-.937c.947-.474,1.929.095,2.617-1.052C11.281,2.59,12.014-.062,13.762,0S15.86.517,17.348.569Z" transform="translate(14.208 10.654)" fill="#ff8383"/>
            <path id="Tracé_428" data-name="Tracé 428" d="M0,21.271c1.026-1.052,1.974-2.1,2.876-3.157a7.567,7.567,0,0,0,1.6-2.347,6.153,6.153,0,0,0,.406-1.957,5.171,5.171,0,0,0,1-1.052,5.225,5.225,0,0,0,.868-2.1c.214-.905.993-2.1,3.53-3.652-.056-.379-.53-4.009,1.816-5.883A5.737,5.737,0,0,1,14.211.139C18-.766,19.229,2.939,16.466,5.4a6.865,6.865,0,0,0-.947,9.261c1.038,1.515,1.613,2.673,2.075,3.157a9.417,9.417,0,0,0,.914.852c.553.442,1.816.852,5,2.1-2.436-.926-5.4,1.41-6.62,3.883s.09,4.693-.88,5.483S11.03,29.763,0,21.271Z" transform="translate(0 14.893)" fill="#ff8383"/>
            <g id="Groupe_41" data-name="Groupe 41" transform="translate(0 14.893)" clip-path="url(#clip-path)">
              <path id="Tracé_429" data-name="Tracé 429" d="M8.8,9.187,0,0,4.4,13.218l6.429-3.546Z" transform="translate(14.177 10.715)" fill="#bc6c56"/>
            </g>
          </g>
          <g id="Groupe_32" data-name="Groupe 32" transform="translate(21.002 42.295)">
            <path id="Tracé_53" data-name="Tracé 53" d="M346.776,394.151l-36.048,1.015a10.89,10.89,0,0,1-10.453-11.309l2.277-60.326a7.5,7.5,0,0,1,5.217-6.849l26.874-8.557,21.482,10.3a7.5,7.5,0,0,1,4.251,7.055l-2.29,58.221A10.89,10.89,0,0,1,346.776,394.151Z" transform="translate(-300.266 -304.115)" fill="#93c7ea"/>
            <path id="Tracé_54" data-name="Tracé 54" d="M381.382,333.313c.124,6.291.052,12.573-.052,18.855-.083,6.282-.307,12.559-.53,18.836-.267,6.275-.538,12.55-.947,18.818a16.764,16.764,0,0,1-.745,4.8,10.929,10.929,0,0,1-11.324,7.365,10.933,10.933,0,0,0,8.106-3.8,10.227,10.227,0,0,0,2.137-3.91,15.6,15.6,0,0,0,.444-4.507c.083-6.282.307-12.559.533-18.836.269-6.274.539-12.549.951-18.819C380.344,345.843,380.765,339.575,381.382,333.313Z" transform="translate(-321.273 -311.952)" fill="#6eacce"/>
            <path id="Rectangle_3" data-name="Rectangle 3" d="M3.786,0H15.71A3.787,3.787,0,0,1,19.5,3.787V14.2a0,0,0,0,1,0,0H0a0,0,0,0,1,0,0V3.786A3.786,3.786,0,0,1,3.786,0Z" transform="translate(25.7 0) rotate(3.691)" fill="#93c7ea"/>
          </g>
          <g id="Groupe_39" data-name="Groupe 39" transform="translate(0 60.143)">
            <g id="Groupe_33" data-name="Groupe 33">
              <path id="Tracé_55" data-name="Tracé 55" d="M277.06,382.718h0a11.809,11.809,0,0,1-6.377-15.436l13.2-31.786a11.81,11.81,0,0,1,15.437-6.377h0a11.81,11.81,0,0,1,6.377,15.436l-13.2,31.786A11.81,11.81,0,0,1,277.06,382.718Z" transform="translate(-269.777 -328.212)" fill="#93c7ea"/>
              <path id="Tracé_56" data-name="Tracé 56" d="M309.583,329.528a11.608,11.608,0,0,1,5.456,3.832,12.2,12.2,0,0,1,2.483,6.379,13.377,13.377,0,0,1-1.281,6.766l-2.493,6.134c-1.712,4.068-3.426,8.135-5.27,12.148l-2.771,6.019c-.984,1.98-1.912,3.985-2.947,5.944.658-2.116,1.424-4.188,2.132-6.282l2.308-6.211c1.542-4.139,3.213-8.224,4.887-12.308l2.585-6.1a17.219,17.219,0,0,0,1.118-2.966,11.462,11.462,0,0,0,.357-3.07A12,12,0,0,0,309.583,329.528Z" transform="translate(-280.039 -328.622)" fill="#6eacce"/>
            </g>
            <g id="Groupe_38" data-name="Groupe 38" transform="translate(0.738 22.379)">
              <g id="Groupe_36" data-name="Groupe 36" transform="translate(51.667)">
                <g id="Groupe_34" data-name="Groupe 34" transform="translate(0 4.184)">
                  <path id="Tracé_57" data-name="Tracé 57" d="M355.7,378.057l-6.014-.388a4.1,4.1,0,0,1-3.825-4.352l.175-2.711a4.1,4.1,0,0,1,4.352-3.824l6.014.388Zm-5.485-8.582a1.4,1.4,0,0,0-1.484,1.3l-.175,2.711a1.4,1.4,0,0,0,1.3,1.484l3.32.214.355-5.5Z" transform="translate(-345.851 -366.774)" fill="#86294e"/>
                </g>
                <g id="Groupe_35" data-name="Groupe 35" transform="translate(5.131)">
                  <path id="Tracé_58" data-name="Tracé 58" d="M363.864,384.817l-5.2-.335a5.732,5.732,0,0,1-5.35-6.088l1.079-16.721c.12-1.865,16.76-.792,16.64,1.073l-1.078,16.722A5.731,5.731,0,0,1,363.864,384.817Z" transform="translate(-353.299 -360.699)" fill="#d15e79"/>
                  <path id="Tracé_59" data-name="Tracé 59" d="M370.469,363.543c-.043.672-3.133,1.02-6.9.776s-6.786-.984-6.743-1.656,3.133-1.019,6.9-.776S370.513,362.871,370.469,363.543Z" transform="translate(-354.396 -361.045)" fill="#86294e"/>
                </g>
              </g>
              <path id="Tracé_60" data-name="Tracé 60" d="M270.849,386.672h0a11.809,11.809,0,0,1,12-11.622l34.414.543a11.811,11.811,0,0,1,11.622,12h0a11.81,11.81,0,0,1-12,11.623l-34.414-.544A11.81,11.81,0,0,1,270.849,386.672Z" transform="translate(-270.848 -365.164)" fill="#93c7ea"/>
              <path id="Tracé_61" data-name="Tracé 61" d="M288.263,374.808c4.419-.3,8.835-.406,13.25-.48,4.416-.1,8.829-.048,13.243,0l6.619.152A13.409,13.409,0,0,1,328.093,376a12.222,12.222,0,0,1,4.865,4.819,11.618,11.618,0,0,1,1.341,6.533,12,12,0,0,0-6.827-10.115,11.6,11.6,0,0,0-2.957-.9,17.307,17.307,0,0,0-3.166-.154l-6.621-.057c-4.413-.092-8.826-.185-13.237-.42C297.08,375.492,292.67,375.249,288.263,374.808Z" transform="translate(-276.266 -364.922)" fill="#6eacce"/>
              <g id="Groupe_37" data-name="Groupe 37" transform="translate(45.035 5.271)">
                <ellipse id="Ellipse_6" data-name="Ellipse 6" cx="10.348" cy="10.348" rx="10.348" ry="10.348" transform="translate(0 15.927) rotate(-50.316)" fill="#ff8383"/>
                <path id="Tracé_62" data-name="Tracé 62" d="M348.857,378.691h0a2.474,2.474,0,0,1-1.529-3.147l1.1-3.189a2.475,2.475,0,0,1,3.148-1.529h0a2.474,2.474,0,0,1,1.529,3.147l-1.1,3.189A2.474,2.474,0,0,1,348.857,378.691Z" transform="translate(-339.636 -369.078)" fill="#ff8383"/>
                <path id="Tracé_63" data-name="Tracé 63" d="M372.947,381.938l-9.184.855a2.587,2.587,0,0,1-2.815-2.336h0a2.588,2.588,0,0,1,2.337-2.816l9.183-.854a2.587,2.587,0,0,1,2.815,2.336h0A2.587,2.587,0,0,1,372.947,381.938Z" transform="translate(-343.913 -370.972)" fill="#ff8383"/>
                <path id="Tracé_64" data-name="Tracé 64" d="M370.3,393.926l-9.2-.594a2.586,2.586,0,0,1-2.414-2.748h0a2.587,2.587,0,0,1,2.748-2.415l9.2.594a2.586,2.586,0,0,1,2.415,2.748h0A2.587,2.587,0,0,1,370.3,393.926Z" transform="translate(-343.209 -374.516)" fill="#ff8383"/>
              </g>
            </g>
          </g>
        </g>
        <g id="Groupe_50" data-name="Groupe 50" transform="translate(173.008 177.664)">
          <g id="Groupe_45" data-name="Groupe 45" transform="translate(107.551 0)">
            <g id="Groupe_41-2" data-name="Groupe 41" transform="translate(7.337 10.591)">
              <path id="Tracé_65" data-name="Tracé 65" d="M510.93,345.347a1.079,1.079,0,0,1-.763-1.842l10.3-10.306A1.079,1.079,0,0,1,522,334.725l-10.3,10.305A1.071,1.071,0,0,1,510.93,345.347Z" transform="translate(-509.85 -332.883)" fill="#445eea"/>
            </g>
            <g id="Groupe_44" data-name="Groupe 44">
              <g id="Groupe_42" data-name="Groupe 42">
                <path id="Tracé_66" data-name="Tracé 66" d="M500.278,334.24a1.079,1.079,0,0,1-1.079-1.079V318.589a1.079,1.079,0,1,1,2.158,0v14.573A1.079,1.079,0,0,1,500.278,334.24Z" transform="translate(-499.199 -317.509)" fill="#445eea"/>
              </g>
              <g id="Groupe_43" data-name="Groupe 43" transform="translate(13.659 28.234)">
                <path id="Tracé_67" data-name="Tracé 67" d="M534.681,360.653H520.107a1.079,1.079,0,1,1,0-2.158h14.574a1.079,1.079,0,1,1,0,2.158Z" transform="translate(-519.027 -358.495)" fill="#445eea"/>
              </g>
            </g>
          </g>
          <g id="Groupe_49" data-name="Groupe 49" transform="translate(0 27.59)">
            <g id="Groupe_47" data-name="Groupe 47">
              <path id="Tracé_68" data-name="Tracé 68" d="M351.815,425.4h89.167c2.487,0,3.253-2.015,3.253-4.5H347.31A4.5,4.5,0,0,0,351.815,425.4Z" transform="translate(-344.389 -377.266)" fill="#6eacce"/>
              <path id="Tracé_69" data-name="Tracé 69" d="M345.324,420.9H376.93c0,2.488-2.29,4.5-5.115,4.5H345.19C342.276,425.356,342.41,420.9,345.324,420.9Z" transform="translate(-343.07 -377.266)" fill="#6eacce"/>
              <g id="Groupe_46" data-name="Groupe 46" transform="translate(31.874)">
                <path id="Tracé_70" data-name="Tracé 70" d="M393.3,402.5h64.013a3.958,3.958,0,0,0,3.887-3.22l8.628-37.022a3.958,3.958,0,0,0-3.889-4.7H401.928a3.958,3.958,0,0,0-3.89,3.22L389.411,397.8A3.959,3.959,0,0,0,393.3,402.5Z" transform="translate(-389.34 -357.56)" fill="#e0eef7"/>
                <path id="Tracé_71" data-name="Tracé 71" d="M398.038,361.118a3.951,3.951,0,0,1,1.578-2.474,3.943,3.943,0,0,1,1.58,3.951l-8.626,37.022a3.949,3.949,0,0,1-1.577,2.471,3.948,3.948,0,0,1-1.582-3.949Z" transform="translate(-389.34 -357.897)" fill="#6eacce"/>
                <path id="Tracé_72" data-name="Tracé 72" d="M453.906,393.513h-10.5a3.9,3.9,0,0,1-3.9-3.9h0a3.9,3.9,0,0,1,3.9-3.9h10.5a3.9,3.9,0,0,1,3.9,3.9h0A3.9,3.9,0,0,1,453.906,393.513Z" transform="translate(-404.95 -366.32)" fill="#fff"/>
              </g>
            </g>
            <g id="Groupe_48" data-name="Groupe 48" transform="translate(7.522 42.621)">
              <path id="Tracé_73" data-name="Tracé 73" d="M358.264,421.681h-3.15a1.125,1.125,0,0,1-1.125-1.125h0a1.125,1.125,0,0,1,1.125-1.125h3.15a1.125,1.125,0,0,1,1.125,1.125h0A1.125,1.125,0,0,1,358.264,421.681Z" transform="translate(-353.99 -419.431)" fill="#6eacce"/>
              <path id="Tracé_74" data-name="Tracé 74" d="M367.19,421.681h-3.15a1.125,1.125,0,0,1-1.125-1.125h0a1.125,1.125,0,0,1,1.125-1.125h3.15a1.125,1.125,0,0,1,1.125,1.125h0A1.125,1.125,0,0,1,367.19,421.681Z" transform="translate(-356.767 -419.431)" fill="#6eacce"/>
              <path id="Tracé_75" data-name="Tracé 75" d="M376.116,421.681h-3.149a1.125,1.125,0,0,1-1.125-1.125h0a1.125,1.125,0,0,1,1.125-1.125h3.149a1.125,1.125,0,0,1,1.125,1.125h0A1.125,1.125,0,0,1,376.116,421.681Z" transform="translate(-359.544 -419.431)" fill="#6eacce"/>
              <path id="Tracé_76" data-name="Tracé 76" d="M385.042,421.681h-3.15a1.125,1.125,0,0,1-1.125-1.125h0a1.125,1.125,0,0,1,1.125-1.125h3.15a1.125,1.125,0,0,1,1.125,1.125h0A1.125,1.125,0,0,1,385.042,421.681Z" transform="translate(-362.322 -419.431)" fill="#6eacce"/>
            </g>
          </g>
        </g>
        <path id="Tracé_77" data-name="Tracé 77" d="M434.415,432.477H165.069a2.7,2.7,0,0,1-2.7-2.7h0a2.7,2.7,0,0,1,2.7-2.7H434.415a2.7,2.7,0,0,1,2.7,2.7h0A2.7,2.7,0,0,1,434.415,432.477Z" transform="translate(-113.839 -173.936)" fill="#1b2a67"/>
        <g id="Groupe_57" data-name="Groupe 57" transform="translate(76.002 207.468)">
          <g id="Groupe_55" data-name="Groupe 55" transform="translate(0 0)">
            <path id="Tracé_78" data-name="Tracé 78" d="M222.3,394.6s-1.983-14.894-5.572-18.555" transform="translate(-206.754 -365.526)" fill="none" stroke="#1b2a67" stroke-linecap="round" stroke-miterlimit="10" stroke-width="0.827"/>
            <g id="Groupe_53" data-name="Groupe 53" transform="translate(2.418)">
              <path id="Tracé_79" data-name="Tracé 79" d="M215.547,362.434c.959,3.174.763,6.041-.438,6.4s-2.951-1.916-3.91-5.091c-.01-.032-.019-.063-.028-.1a2.271,2.271,0,0,1,4.347-1.313C215.528,362.37,215.538,362.4,215.547,362.434Z" transform="translate(-207.411 -360.774)" fill="#ffd2d4"/>
              <g id="Groupe_51" data-name="Groupe 51" transform="translate(0 4.275)">
                <path id="Tracé_80" data-name="Tracé 80" d="M222.928,371.458c-3.174.959-6.041.763-6.4-.438s1.916-2.951,5.091-3.91l.1-.028a2.271,2.271,0,0,1,1.314,4.347Z" transform="translate(-209.096 -366.979)" fill="#ffd2d4"/>
                <path id="Tracé_81" data-name="Tracé 81" d="M208.732,376c3.174-.959,5.453-2.71,5.09-3.91s-3.23-1.4-6.4-.438l-.094.03a2.271,2.271,0,0,0,1.313,4.347Z" transform="translate(-205.759 -368.245)" fill="#ffd2d4"/>
              </g>
              <g id="Groupe_52" data-name="Groupe 52" transform="translate(3.827 8.714)">
                <path id="Tracé_82" data-name="Tracé 82" d="M215.8,380.579c.892-3.194.637-6.056-.572-6.393s-2.91,1.977-3.8,5.171c-.008.032-.017.064-.025.1a2.271,2.271,0,0,0,4.373,1.222C215.786,380.642,215.795,380.61,215.8,380.579Z" transform="translate(-211.315 -373.65)" fill="#ffd2d4"/>
                <path id="Tracé_83" data-name="Tracé 83" d="M220.788,379.426c-2.512-2.165-3.883-4.691-3.064-5.64s3.519.035,6.03,2.2l.074.065a2.271,2.271,0,0,1-2.965,3.439Z" transform="translate(-213.235 -373.424)" fill="#ffd2d4"/>
              </g>
              <path id="Tracé_84" data-name="Tracé 84" d="M217.734,372.585a1.552,1.552,0,1,1-1.935-1.037A1.552,1.552,0,0,1,217.734,372.585Z" transform="translate(-208.539 -364.106)" fill="#d15e79"/>
            </g>
            <g id="Groupe_54" data-name="Groupe 54" transform="translate(0 14.038)">
              <path id="Tracé_85" data-name="Tracé 85" d="M211.941,387.7c4.124,3.249,6.471,7.147,5.241,8.707s-5.568.191-9.692-3.059-5.242-8.707-5.242-8.707S207.817,384.455,211.941,387.7Z" transform="translate(-202.249 -382.238)" fill="#445eea"/>
              <path id="Tracé_86" data-name="Tracé 86" d="M232.3,391.535c-4.353,4.088-9.135,6.068-10.682,4.42s.729-6.295,5.082-10.383,10.682-4.42,10.682-4.42S236.653,387.448,232.3,391.535Z" transform="translate(-208.125 -381.152)" fill="#445eea"/>
            </g>
          </g>
          <g id="Groupe_56" data-name="Groupe 56" transform="translate(2.483 26.588)">
            <path id="Tracé_87" data-name="Tracé 87" d="M225.139,420.291H210.9L208.4,402.373h19.228Z" transform="translate(-206.647 -400.306)" fill="#1b2a67"/>
            <rect id="Rectangle_4" data-name="Rectangle 4" width="22.742" height="6.662" rx="1.469" fill="#1b2a67"/>
          </g>
        </g>
        <g id="Groupe_84" data-name="Groupe 84" transform="translate(0 22.59)">
          <g id="Groupe_61" data-name="Groupe 61" transform="translate(0 13.551)">
            <g id="Groupe_58" data-name="Groupe 58" transform="translate(118.907 41.049)">
              <path id="Tracé_88" data-name="Tracé 88" d="M285.44,201.218l7.063,7.575,53.836-22.455Z" transform="translate(-271.038 -176.223)" fill="#78c335"/>
              <path id="Tracé_89" data-name="Tracé 89" d="M281.447,171.655l-5.317,8.022,3.595,7.861-8.065,1.372-7.127,15.647,77.029-23.31Z" transform="translate(-264.533 -171.655)" fill="#a5da76"/>
              <path id="Tracé_90" data-name="Tracé 90" d="M284.962,191.161l-3.595-7.861,41.723,1.951Z" transform="translate(-269.77 -175.278)" fill="#78c335"/>
            </g>
            <g id="Groupe_59" data-name="Groupe 59" transform="translate(60.972 69.285)">
              <path id="Tracé_91" data-name="Tracé 91" d="M249.5,278.035q-.889,0-1.779-.011a1.078,1.078,0,0,1-1.067-1.091,1.056,1.056,0,0,1,1.092-1.067c2.8.032,5.571-.012,8.616-.141h.046a1.08,1.08,0,0,1,.045,2.158C254.018,277.985,251.742,278.035,249.5,278.035Zm-10.431-.426a.884.884,0,0,1-.1,0c-2.973-.255-5.9-.636-8.7-1.133a1.079,1.079,0,0,1-.873-1.253,1.1,1.1,0,0,1,1.253-.873c2.731.486,5.592.859,8.5,1.108a1.079,1.079,0,0,1-.092,2.155Zm-17.038-3.116a1.04,1.04,0,0,1-.317-.05,62.443,62.443,0,0,1-8.23-3.163,1.079,1.079,0,1,1,.918-1.954,60.665,60.665,0,0,0,7.945,3.054,1.08,1.08,0,0,1-.316,2.113ZM206.4,267.128a1.076,1.076,0,0,1-.6-.181,57.25,57.25,0,0,1-6.947-5.457,1.08,1.08,0,1,1,1.462-1.588A55.146,55.146,0,0,0,207,265.15a1.08,1.08,0,0,1-.6,1.978Zm-12.724-11.693a1.082,1.082,0,0,1-.846-.406,57.6,57.6,0,0,1-4.956-7.316,1.08,1.08,0,0,1,1.877-1.068,55.356,55.356,0,0,0,4.77,7.038,1.079,1.079,0,0,1-.845,1.753Zm-8.552-15.019a1.082,1.082,0,0,1-1.011-.7,53,53,0,0,1-2.427-8.51,1.08,1.08,0,0,1,2.12-.415,50.812,50.812,0,0,0,2.328,8.162,1.082,1.082,0,0,1-1.011,1.462Zm-3.444-16.942a1.08,1.08,0,0,1-1.076-1.011c-.112-1.764-.168-3.622-.168-5.519v-.437q.005-1.407.05-2.821a1.079,1.079,0,0,1,1.079-1.044h.035a1.079,1.079,0,0,1,1.044,1.114q-.044,1.382-.051,2.754v.434c0,1.852.057,3.663.165,5.381a1.078,1.078,0,0,1-1.008,1.146Z" transform="translate(-180.431 -212.643)" fill="#78c335"/>
            </g>
            <g id="Groupe_60" data-name="Groupe 60">
              <path id="Tracé_92" data-name="Tracé 92" d="M163.215,175.06q-2.473,0-4.866-.06a1.079,1.079,0,0,1,.028-2.158h.028q4.181.105,8.625.023a1.021,1.021,0,0,1,1.1,1.058,1.077,1.077,0,0,1-1.058,1.1Q165.119,175.06,163.215,175.06Zm12.5-.362a1.079,1.079,0,0,1-.058-2.156c2.792-.158,5.692-.367,8.62-.626a1.08,1.08,0,1,1,.19,2.151c-2.951.26-5.873.473-8.691.63Zm-26.005-.137h-.086c-3.006-.234-5.93-.554-8.693-.949a1.079,1.079,0,0,1-.915-1.221,1.1,1.1,0,0,1,1.221-.915c2.717.389,5.6.7,8.556.931a1.08,1.08,0,0,1-.083,2.156ZM193,173.181a1.079,1.079,0,0,1-.123-2.151q4.207-.493,8.576-1.115a1.08,1.08,0,0,1,.306,2.138q-4.4.627-8.633,1.121A.981.981,0,0,1,193,173.181Zm-60.451-1.108a1.117,1.117,0,0,1-.238-.026c-2.087-.469-4.123-1-6.047-1.569q-1.229-.367-2.417-.761a1.079,1.079,0,0,1,.678-2.049q1.157.382,2.354.74c1.879.559,3.865,1.074,5.9,1.531a1.08,1.08,0,0,1-.234,2.135Zm-16.4-5.546a1.075,1.075,0,0,1-.471-.11,52.533,52.533,0,0,1-7.622-4.492,1.08,1.08,0,1,1,1.255-1.757,50.543,50.543,0,0,0,7.309,4.306,1.081,1.081,0,0,1-.471,2.053Zm37.17-.965a1.08,1.08,0,0,1-1.079-1.079V164.1c0-2.722-.109-5.488-.325-8.223a1.081,1.081,0,0,1,2.155-.169c.218,2.789.329,5.614.329,8.392v.383A1.08,1.08,0,0,1,153.323,165.562Zm-51.13-9.156a1.078,1.078,0,0,1-.8-.351,37.573,37.573,0,0,1-5.19-7.239,1.081,1.081,0,1,1,1.894-1.04,35.363,35.363,0,0,0,4.891,6.824,1.079,1.079,0,0,1-.8,1.807Zm49.74-8.158a1.08,1.08,0,0,1-1.064-.9,73.557,73.557,0,0,0-1.907-8.344,1.079,1.079,0,1,1,2.07-.608A75.858,75.858,0,0,1,153,146.986a1.083,1.083,0,0,1-.882,1.248A1.119,1.119,0,0,1,151.932,148.248Zm-58.02-6.9a1.079,1.079,0,0,1-1.04-.792q-.2-.727-.376-1.467a20.909,20.909,0,0,1-.577-4.786,18.4,18.4,0,0,1,.207-2.769,1.079,1.079,0,1,1,2.133.323,16.368,16.368,0,0,0-.183,2.446,18.75,18.75,0,0,0,.52,4.289c.111.467.229.931.355,1.388a1.078,1.078,0,0,1-.752,1.329A1.108,1.108,0,0,1,93.913,141.349Zm53.014-9.683a1.081,1.081,0,0,1-.974-.613,36.576,36.576,0,0,0-4.431-7.146,1.08,1.08,0,0,1,1.684-1.353,38.914,38.914,0,0,1,4.694,7.564,1.082,1.082,0,0,1-.973,1.549ZM96.593,124.9a1.068,1.068,0,0,1-.654-.22,1.08,1.08,0,0,1-.206-1.513,24.471,24.471,0,0,1,6.761-5.974,1.08,1.08,0,0,1,1.128,1.842,22.314,22.314,0,0,0-6.171,5.439A1.076,1.076,0,0,1,96.593,124.9Zm39.413-6.42a1.073,1.073,0,0,1-.59-.176,24.4,24.4,0,0,0-7.568-3.276,1.08,1.08,0,1,1,.517-2.1A26.593,26.593,0,0,1,136.6,116.5a1.079,1.079,0,0,1-.594,1.982Zm-25.015-2.752a1.08,1.08,0,0,1-.306-2.116,40.748,40.748,0,0,1,8.488-1.534l.325-.01a1.15,1.15,0,0,1,1.1,1.058,1.078,1.078,0,0,1-1.058,1.1l-.235.009a38.432,38.432,0,0,0-8.009,1.448A1.1,1.1,0,0,1,110.991,115.726Z" transform="translate(-91.92 -112.065)" fill="#78c335"/>
            </g>
          </g>
          <g id="Groupe_71" data-name="Groupe 71" transform="translate(217.708 24.563)">
            <g id="Groupe_68" data-name="Groupe 68" transform="translate(48.103)">
              <path id="Tracé_93" data-name="Tracé 93" d="M490.852,128.051h57.716a13.063,13.063,0,0,1,13.063,13.064v29.769a13.063,13.063,0,0,1-13.063,13.063H510.826l-13.575,11.978V183.946h-6.4a13.063,13.063,0,0,1-13.064-13.063V141.115A13.064,13.064,0,0,1,490.852,128.051Z" transform="translate(-477.788 -128.051)" fill="#78c335"/>
              <g id="Groupe_67" data-name="Groupe 67" transform="translate(19.823 15.148)">
                <g id="Groupe_62" data-name="Groupe 62">
                  <path id="Tracé_94" data-name="Tracé 94" d="M508.2,153.317h40.923a1.638,1.638,0,0,0,0-3.276H508.2a1.638,1.638,0,0,0,0,3.276Z" transform="translate(-506.564 -150.041)" fill="#a5da76"/>
                </g>
                <g id="Groupe_63" data-name="Groupe 63" transform="translate(0 10.913)">
                  <path id="Tracé_95" data-name="Tracé 95" d="M508.2,169.158h40.923a1.637,1.637,0,1,0,0-3.275H508.2a1.637,1.637,0,0,0,0,3.275Z" transform="translate(-506.564 -165.883)" fill="#a5da76"/>
                </g>
                <g id="Groupe_64" data-name="Groupe 64" transform="translate(34.921 21.825)">
                  <path id="Tracé_96" data-name="Tracé 96" d="M558.9,185h6a1.638,1.638,0,0,0,0-3.276h-6a1.638,1.638,0,0,0,0,3.276Z" transform="translate(-557.258 -181.724)" fill="#a5da76"/>
                </g>
                <g id="Groupe_65" data-name="Groupe 65" transform="translate(21.28 21.825)">
                  <path id="Tracé_97" data-name="Tracé 97" d="M539.093,185h6a1.638,1.638,0,0,0,0-3.276h-6a1.638,1.638,0,0,0,0,3.276Z" transform="translate(-537.456 -181.724)" fill="#a5da76"/>
                </g>
                <g id="Groupe_66" data-name="Groupe 66" transform="translate(0 21.825)">
                  <path id="Tracé_98" data-name="Tracé 98" d="M508.2,185h13.642a1.638,1.638,0,0,0,0-3.276H508.2a1.638,1.638,0,0,0,0,3.276Z" transform="translate(-506.564 -181.724)" fill="#a5da76"/>
                </g>
              </g>
            </g>
            <g id="Groupe_70" data-name="Groupe 70" transform="translate(0 59.448)">
              <path id="Tracé_99" data-name="Tracé 99" d="M461.825,214.35h-44.18a7.867,7.867,0,0,0-7.868,7.867v25.476a7.862,7.862,0,0,0,7.292,7.838l-9.11,14.928,24.009-14.9h29.857a7.867,7.867,0,0,0,7.867-7.868V222.217A7.867,7.867,0,0,0,461.825,214.35Z" transform="translate(-407.959 -214.35)" fill="#a5da76"/>
              <g id="Groupe_69" data-name="Groupe 69" transform="translate(19.413 7.026)">
                <circle id="Ellipse_7" data-name="Ellipse 7" cx="5.231" cy="5.231" r="5.231" transform="translate(4.966 7.397) rotate(-45)" stroke-width="2.761" stroke="#78c335" stroke-linecap="round" stroke-linejoin="round" fill="#78c335"/>
                <path id="Tracé_100" data-name="Tracé 100" d="M460.866,257.249H436.14a7.924,7.924,0,0,1,7.925-7.925h8.876a7.925,7.925,0,0,1,7.925,7.925Z" transform="translate(-436.14 -232.258)" fill="#78c335" stroke="#78c335" stroke-linecap="round" stroke-linejoin="round" stroke-width="2.761"/>
              </g>
            </g>
          </g>
          <g id="Groupe_83" data-name="Groupe 83" transform="translate(196.912)">
            <g id="Groupe_74" data-name="Groupe 74">
              <g id="Groupe_72" data-name="Groupe 72">
                <path id="Tracé_101" data-name="Tracé 101" d="M399.1,134.973a21.64,21.64,0,0,1-4.353-.443,1.081,1.081,0,0,1-.84-1.276,1.1,1.1,0,0,1,1.276-.84,19.541,19.541,0,0,0,6.779.188,1.081,1.081,0,0,1,.32,2.138A21.8,21.8,0,0,1,399.1,134.973Zm9.8-2.522a1.081,1.081,0,0,1-.525-2.027,19.17,19.17,0,0,0,5.26-4.278,1.079,1.079,0,1,1,1.634,1.41,21.394,21.394,0,0,1-5.847,4.759A1.082,1.082,0,0,1,408.9,132.451Zm-20.58-.58a1.07,1.07,0,0,1-.572-.165,21.4,21.4,0,0,1-5.575-5.076,1.08,1.08,0,0,1,1.712-1.318,19.278,19.278,0,0,0,5.012,4.566,1.079,1.079,0,0,1-.577,1.993Zm29.773-10.1a1.083,1.083,0,0,1-1.012-1.457,19.1,19.1,0,0,0,1.193-6.672,1.079,1.079,0,0,1,2.158,0,21.248,21.248,0,0,1-1.327,7.424A1.083,1.083,0,0,1,418.1,121.767ZM379.745,120.7a1.08,1.08,0,0,1-1.032-.763,21.381,21.381,0,0,1-.943-6.291c0-.4.01-.8.033-1.2a1.1,1.1,0,0,1,1.139-1.016,1.079,1.079,0,0,1,1.016,1.139c-.019.353-.03.712-.03,1.07a19.27,19.27,0,0,0,.849,5.658,1.08,1.08,0,0,1-.714,1.349A1.043,1.043,0,0,1,379.745,120.7Zm39.019-10.861a1.08,1.08,0,0,1-1.048-.821,19.013,19.013,0,0,0-2.773-6.183,1.079,1.079,0,1,1,1.781-1.219,21.135,21.135,0,0,1,3.086,6.882,1.077,1.077,0,0,1-.787,1.307A1.038,1.038,0,0,1,418.764,109.834Zm-38.232-3.213a1.082,1.082,0,0,1-.989-1.513,21.183,21.183,0,0,1,4.193-6.267,1.079,1.079,0,1,1,1.553,1.5,19.1,19.1,0,0,0-3.768,5.635A1.079,1.079,0,0,1,380.532,106.621Zm30.281-8.43a1.068,1.068,0,0,1-.624-.2,19,19,0,0,0-6.13-2.882,1.08,1.08,0,1,1,.555-2.088,21.151,21.151,0,0,1,6.826,3.209,1.079,1.079,0,0,1-.628,1.96ZM390.307,96.47a1.08,1.08,0,0,1-.469-2.053A21.176,21.176,0,0,1,397.1,92.4a1.093,1.093,0,0,1,1.176.975,1.082,1.082,0,0,1-.975,1.176,19.062,19.062,0,0,0-6.528,1.812A1.065,1.065,0,0,1,390.307,96.47Z" transform="translate(-377.77 -92.393)" fill="#78c335"/>
              </g>
              <g id="Groupe_73" data-name="Groupe 73" transform="translate(7.18 10.99)">
                <path id="Tracé_102" data-name="Tracé 102" d="M402.346,108.347c-7.817,0-14.153,4.188-14.153,9.357v.027c.005,1.349,1.07,2.274,2.065,1.849l3.715-1.586a2.231,2.231,0,0,0,.926-2.78l-.457-1.246a56.063,56.063,0,0,0,15.756,0l-.461,1.6a2.254,2.254,0,0,0,.86,2.563l3.674,2.006c.893.488,1.936-.167,2.142-1.387a6.275,6.275,0,0,0,.087-1.045C416.5,112.535,410.164,108.347,402.346,108.347Z" transform="translate(-388.193 -108.347)" fill="#78c335"/>
                <path id="Tracé_103" data-name="Tracé 103" d="M414.11,132.715H394.493l2.907-9.108a4.119,4.119,0,0,1,3.924-2.866h5.956a4.121,4.121,0,0,1,3.924,2.866Z" transform="translate(-390.153 -112.203)" fill="#a5da76"/>
              </g>
            </g>
            <g id="Groupe_82" data-name="Groupe 82" transform="translate(126.435 110.938)">
              <g id="Groupe_75" data-name="Groupe 75">
                <path id="Tracé_104" data-name="Tracé 104" d="M582.647,296.018a21.477,21.477,0,0,1-4.358-.445,1.082,1.082,0,0,1-.839-1.277,1.094,1.094,0,0,1,1.278-.838,19.411,19.411,0,0,0,6.777.188,1.08,1.08,0,0,1,.32,2.137A21.952,21.952,0,0,1,582.647,296.018Zm9.8-2.521a1.08,1.08,0,0,1-.526-2.025,19.225,19.225,0,0,0,5.26-4.279,1.079,1.079,0,1,1,1.635,1.409,21.362,21.362,0,0,1-5.847,4.757A1.062,1.062,0,0,1,592.446,293.5Zm-20.578-.581a1.073,1.073,0,0,1-.573-.165,21.411,21.411,0,0,1-5.573-5.076,1.08,1.08,0,1,1,1.712-1.318,19.23,19.23,0,0,0,5.011,4.566,1.079,1.079,0,0,1-.577,1.993Zm29.771-10.1a1.1,1.1,0,0,1-.376-.068,1.081,1.081,0,0,1-.636-1.389,19.1,19.1,0,0,0,1.194-6.671,1.079,1.079,0,1,1,2.158,0,21.238,21.238,0,0,1-1.327,7.423A1.079,1.079,0,0,1,601.64,282.813Zm-38.355-1.075a1.08,1.08,0,0,1-1.031-.763,21.337,21.337,0,0,1-.942-6.29c0-.4.011-.8.034-1.194a1.131,1.131,0,0,1,1.137-1.017,1.08,1.08,0,0,1,1.017,1.137c-.019.357-.03.715-.03,1.074a19.162,19.162,0,0,0,.847,5.654,1.081,1.081,0,0,1-.714,1.35A1.062,1.062,0,0,1,563.285,281.738Zm39.025-10.858a1.08,1.08,0,0,1-1.048-.82,19.06,19.06,0,0,0-2.773-6.181,1.08,1.08,0,1,1,1.782-1.219,21.136,21.136,0,0,1,3.085,6.88,1.078,1.078,0,0,1-.787,1.307A1.035,1.035,0,0,1,602.309,270.88Zm-38.233-3.214a1.081,1.081,0,0,1-.99-1.513,21.278,21.278,0,0,1,4.2-6.267,1.079,1.079,0,1,1,1.553,1.5,19.15,19.15,0,0,0-3.769,5.635A1.081,1.081,0,0,1,564.076,267.666Zm30.282-8.425a1.068,1.068,0,0,1-.624-.2,18.964,18.964,0,0,0-6.13-2.884,1.08,1.08,0,1,1,.555-2.088,21.186,21.186,0,0,1,6.826,3.211,1.08,1.08,0,0,1-.628,1.96Zm-20.506-1.728a1.08,1.08,0,0,1-.469-2.053,21.174,21.174,0,0,1,7.267-2.018,1.08,1.08,0,1,1,.2,2.151,19.008,19.008,0,0,0-6.529,1.81A1.056,1.056,0,0,1,573.853,257.513Z" transform="translate(-561.311 -253.438)" fill="#78c335"/>
              </g>
              <g id="Groupe_81" data-name="Groupe 81" transform="translate(8.611 12.177)">
                <rect id="Rectangle_5" data-name="Rectangle 5" width="25.11" height="14.239" transform="translate(0 5.227)" fill="#a5da76"/>
                <g id="Groupe_80" data-name="Groupe 80" transform="translate(4.594)">
                  <g id="Groupe_76" data-name="Groupe 76">
                    <path id="Tracé_105" data-name="Tracé 105" d="M605.264,275.229v-1.742a2.322,2.322,0,0,1,2.322-2.322h0a2.323,2.323,0,0,1,2.323,2.322v2.889h-4.645" transform="translate(-588.191 -271.131)" fill="#445eea"/>
                    <path id="Tracé_106" data-name="Tracé 106" d="M597.6,273.439v14.8H580.479v-14.8a2.322,2.322,0,0,1,2.322-2.323h16.926l-.47.1A2.323,2.323,0,0,0,597.6,273.439Z" transform="translate(-580.479 -271.116)" fill="#e0eef7"/>
                  </g>
                  <g id="Groupe_79" data-name="Groupe 79" transform="translate(1.064 2.388)">
                    <rect id="Rectangle_6" data-name="Rectangle 6" width="3.796" height="3.897" transform="translate(0 0.022)" fill="#7dc40c"/>
                    <g id="Groupe_78" data-name="Groupe 78">
                      <g id="Groupe_77" data-name="Groupe 77" transform="translate(4.959)">
                        <line id="Ligne_1" data-name="Ligne 1" x2="9.65" stroke-width="0.658" stroke="#7dc40c" stroke-linecap="round" stroke-linejoin="round" fill="none"/>
                        <line id="Ligne_2" data-name="Ligne 2" x2="9.65" transform="translate(0 1.312)" fill="none" stroke="#7dc40c" stroke-linecap="round" stroke-linejoin="round" stroke-width="0.658"/>
                        <line id="Ligne_3" data-name="Ligne 3" x2="9.65" transform="translate(0 2.625)" fill="none" stroke="#7dc40c" stroke-linecap="round" stroke-linejoin="round" stroke-width="0.658"/>
                        <line id="Ligne_4" data-name="Ligne 4" x2="9.65" transform="translate(0.091 3.937)" fill="none" stroke="#7dc40c" stroke-linecap="round" stroke-linejoin="round" stroke-width="0.658"/>
                      </g>
                      <line id="Ligne_5" data-name="Ligne 5" x2="14.609" transform="translate(0 5.231)" fill="none" stroke="#78c335" stroke-linecap="round" stroke-linejoin="round" stroke-width="0.658"/>
                      <line id="Ligne_6" data-name="Ligne 6" x2="14.609" transform="translate(0 6.544)" fill="none" stroke="#78c335" stroke-linecap="round" stroke-linejoin="round" stroke-width="0.658"/>
                      <line id="Ligne_7" data-name="Ligne 7" x2="14.609" transform="translate(0 7.827)" fill="none" stroke="#78c335" stroke-linecap="round" stroke-linejoin="round" stroke-width="0.658"/>
                      <line id="Ligne_8" data-name="Ligne 8" x2="7.1" transform="translate(0 9.139)" fill="none" stroke="#78c335" stroke-linecap="round" stroke-linejoin="round" stroke-width="0.658"/>
                    </g>
                  </g>
                </g>
                <path id="Tracé_107" data-name="Tracé 107" d="M592.752,292.943H573.811V278.7Z" transform="translate(-573.811 -273.477)" fill="#7dc40c"/>
                <path id="Tracé_108" data-name="Tracé 108" d="M582.765,292.943h18.941V278.7Z" transform="translate(-576.597 -273.477)" fill="#7dc40c"/>
                <path id="Tracé_109" data-name="Tracé 109" d="M598.921,296.473h-25.11l11.277-6.023a2.244,2.244,0,0,1,2.556,0Z" transform="translate(-573.811 -277.007)" fill="#7dc40c"/>
              </g>
            </g>
          </g>
        </g>
      </g>
    </g>
  </g>
</svg>
