<svg id="Component_6_1" data-name="Component 6 – 1" xmlns="http://www.w3.org/2000/svg" width="226.228" height="228.673" viewBox="0 0 226.228 228.673">
  <g id="Path_505" data-name="Path 505" fill="none" opacity="0.42">
    <path d="M113.114,0A113.114,113.114,0,1,1,0,113.114,113.114,113.114,0,0,1,113.114,0Z" stroke="none"/>
    <path d="M 113.1138610839844 9.999969482421875 C 56.25666809082031 9.999969482421875 9.999969482421875 56.25666809082031 9.999969482421875 113.1138610839844 C 9.999969482421875 169.9710083007813 56.25666809082031 216.2277069091797 113.1138610839844 216.2277069091797 C 169.9710083007813 216.2277069091797 216.2277069091797 169.9710083007813 216.2277069091797 113.1138610839844 C 216.2277069091797 56.25666809082031 169.9710083007813 9.999969482421875 113.1138610839844 9.999969482421875 M 113.1138610839844 -3.0517578125e-05 C 175.5849304199219 -3.0517578125e-05 226.2277069091797 50.642822265625 226.2277069091797 113.1138610839844 C 226.2277069091797 175.5849304199219 175.5849304199219 226.2277069091797 113.1138610839844 226.2277069091797 C 50.642822265625 226.2277069091797 -3.0517578125e-05 175.5849304199219 -3.0517578125e-05 113.1138610839844 C -3.0517578125e-05 50.642822265625 50.642822265625 -3.0517578125e-05 113.1138610839844 -3.0517578125e-05 Z" stroke="none" fill="#c0c0c1"/>
  </g>
  <path id="Path_504" data-name="Path 504" d="M1702.667,3996.567a145.968,145.968,0,0,0,35.152-6.088,123.052,123.052,0,0,0,18.165-7.659c6.557-3.248,12.074-7.673,17.281-11.783,1.86-1.468,3.5-3.4,5.4-4.909a13,13,0,0,0,2.258-1.964c.418-.531,1.075-.449,1.571-1.08,11.179-14.215,14.241-17.9,16.594-22.486a50.212,50.212,0,0,1,4.32-7.266" transform="translate(-1590.338 -3772.893)" fill="none" stroke="#a5da76" stroke-width="10"/>
  <g id="BACKGROUND" transform="translate(34.881 69.098)">
    <path id="Path_246" data-name="Path 246" d="M273.085,184.563c4.19-4.625,8.685-11.253,8-18.728s-6.644-9.456-8.428-17.433c-2.762-12.348,4.885-17.7,5.479-28.911,1.063-20.128-21.41-43.836-42.972-46.343-13.033-1.511-14.862,5.971-31.177,5.057-20.09-1.124-23.657-12.827-37.916-11.373-16.271,1.657-33.259,19.1-33.285,34.967-.025,16.36,17.995,23.689,14.325,36.23-2.425,8.288-11.745,7.85-16.852,17.7-4.85,9.345,2.9,23.724,6.955,28.841Z" transform="translate(-127.45 -66.707)" fill="#a5da76" opacity="0.47"/>
    <circle id="Ellipse_17" data-name="Ellipse 17" cx="6.24" cy="6.24" r="6.24" transform="translate(1.085 2.048)" fill="#a5def6" opacity="0.47"/>
    <circle id="Ellipse_18" data-name="Ellipse 18" cx="6.24" cy="6.24" r="6.24" transform="translate(3.519 61.127)" fill="#a5def6" opacity="0.47"/>
    <circle id="Ellipse_19" data-name="Ellipse 19" cx="3.419" cy="3.419" r="3.419" transform="translate(17.234 18.569) rotate(-45)" fill="#a5def6" opacity="0.47"/>
    <path id="Path_247" data-name="Path 247" d="M593.2,298.634a3.65,3.65,0,1,1,1.064,2.591,3.65,3.65,0,0,1-1.064-2.591Z" transform="translate(-444.502 -222.535)" fill="#a5def6" opacity="0.47"/>
    <circle id="Ellipse_20" data-name="Ellipse 20" cx="2.555" cy="2.555" r="2.555" transform="translate(147.644 67.948) rotate(-45)" fill="#a5def6" opacity="0.47"/>
    <circle id="Ellipse_21" data-name="Ellipse 21" cx="2.619" cy="2.619" r="2.619" transform="translate(0 21.987) rotate(-45)" fill="#a5def6" opacity="0.47"/>
    <circle id="Ellipse_22" data-name="Ellipse 22" cx="2.619" cy="2.619" r="2.619" transform="translate(70.401 6.37) rotate(-45)" fill="#a5def6" opacity="0.47"/>
    <circle id="Ellipse_23" data-name="Ellipse 23" cx="2.619" cy="2.619" r="2.619" transform="translate(125.924 11.158) rotate(-80.78)" fill="#a5def6" opacity="0.47"/>
  </g>
  <g id="OH5IPN1" transform="translate(76.45 46.542)">
    <g id="Layer_1" data-name="Layer 1">
      <rect id="Rectangle_200" data-name="Rectangle 200" width="34.774" height="65.302" transform="translate(16.479 74.747)" fill="#ffddc1"/>
      <path id="Path_1180" data-name="Path 1180" d="M323.49,386a4.427,4.427,0,0,0,4.415,4.421h36.833A4.43,4.43,0,0,0,369.162,386V309.918a4.435,4.435,0,0,0-4.424-4.418H327.92a4.432,4.432,0,0,0-4.427,4.418Z" transform="translate(-310.54 -305.5)" fill="#424242"/>
      <path id="Path_1201" data-name="Path 1201" d="M26.273,15.5H66.9V71.823H26.273Z" transform="translate(-10.795 -6.368)" fill="#fff"/>
      <g id="Group_199" data-name="Group 199" transform="translate(20.352 18.379)">
        <path id="Path_566" data-name="Path 566" d="M57.9,257.986A12.86,12.86,0,0,0,53.47,249c.568,1.372-.059,2.953.188,4.415a5.016,5.016,0,0,0,1.608,2.733,14.828,14.828,0,0,0,2.631,1.838Z" transform="translate(-42.239 -249)" fill="#87be00"/>
        <path id="Path_567" data-name="Path 567" d="M67.886,252.3a6.923,6.923,0,0,1,2.679,1.892,8.075,8.075,0,0,0,2.626,2,2.614,2.614,0,0,0,3.022-.654,2.971,2.971,0,0,1-2.8,1.683,22.229,22.229,0,0,1-3.435-.509,9.351,9.351,0,0,0-8.461,3.429,10.685,10.685,0,0,1,1.345-5.637A4.7,4.7,0,0,1,67.886,252.3Z" transform="translate(-45.975 -250.463)" fill="#87be00"/>
        <path id="Path_568" data-name="Path 568" d="M67.854,258.575a14.167,14.167,0,0,0,1.072-2.465,8.574,8.574,0,0,1-3.3,3.692,1.233,1.233,0,0,0,.279,0,9.162,9.162,0,0,1,1.527-.713A3.4,3.4,0,0,0,67.854,258.575Z" transform="translate(-47.883 -252.3)" fill="#add250"/>
        <path id="Path_569" data-name="Path 569" d="M71.05,259.366c.305-.075.611-.134.922-.182a2.292,2.292,0,0,0,.4-.279,2.143,2.143,0,0,0,.664-1.425A7.148,7.148,0,0,1,71.05,259.366Z" transform="translate(-50.399 -252.936)" fill="#add250"/>
        <path id="Path_570" data-name="Path 570" d="M76.267,259.557a1.7,1.7,0,0,0,1.141-1.227,14.931,14.931,0,0,1-1.838,1.184C75.8,259.52,76.042,259.536,76.267,259.557Z" transform="translate(-52.497 -253.331)" fill="#add250"/>
        <path id="Path_571" data-name="Path 571" d="M58.8,282.737c.23-6.607.772-13.2,1.565-19.767-2.535,6.489-2.679,13.637-2.749,20.6,0,.381.595.488.868.225A1.484,1.484,0,0,0,58.8,282.737Z" transform="translate(-44.165 -255.484)" fill="#87be00"/>
        <path id="Path_572" data-name="Path 572" d="M73.67,266.46a16.173,16.173,0,0,0-2.615,4.5,17.615,17.615,0,0,1-2.556,4.528,5.806,5.806,0,0,1-4.539,2.2c-2.277-.134-4.18-2.047-6.43-2.106a12.073,12.073,0,0,1,2.894-6.114,7.818,7.818,0,0,1,6.119-2.572c1.179.091,2.326.5,3.51.568A6.082,6.082,0,0,0,73.67,266.46Z" transform="translate(-44.123 -257.104)" fill="#87be00"/>
        <path id="Path_573" data-name="Path 573" d="M58.11,276.929a32.387,32.387,0,0,1,6.918-2.985A13.586,13.586,0,0,0,71.3,269.92a6.242,6.242,0,0,1-2.679,3.011,18.714,18.714,0,0,1-3.751,1.608Z" transform="translate(-44.392 -258.71)" fill="#add250"/>
        <path id="Path_574" data-name="Path 574" d="M65.23,274.013a11.788,11.788,0,0,0,1.838-3.113l-4.608,5.551A5.856,5.856,0,0,0,65.23,274.013Z" transform="translate(-46.412 -259.165)" fill="#add250"/>
        <path id="Path_575" data-name="Path 575" d="M72.538,273.318a6.8,6.8,0,0,0,.954-2.508,11.007,11.007,0,0,1-2.792,3.853,1.265,1.265,0,0,0,1.131-.354,3.912,3.912,0,0,0,.707-.991Z" transform="translate(-50.236 -259.123)" fill="#add250"/>
        <path id="Path_576" data-name="Path 576" d="M65.121,280.45c-.4-.155-.868-.332-1.211-.086a12.206,12.206,0,0,0,3.563,1.072,4.088,4.088,0,0,0,3.408-1.152,7.534,7.534,0,0,1-5.76.166Z" transform="translate(-47.085 -263.501)" fill="#add250"/>
        <path id="Path_577" data-name="Path 577" d="M75.993,277.37a15.539,15.539,0,0,1-4.823.182,1.918,1.918,0,0,0,1.072.627A4.249,4.249,0,0,0,75.993,277.37Z" transform="translate(-50.454 -262.168)" fill="#add250"/>
        <path id="Path_578" data-name="Path 578" d="M46.7,268.768a8.574,8.574,0,0,0-3.622-3.912,12.732,12.732,0,0,0-5.176-1.372c-1.8-.145-3.6-.1-5.4-.214a8.455,8.455,0,0,1,1.961,4.823,27.761,27.761,0,0,0,.873,5.208,5.278,5.278,0,0,0,3.542,3.622,6.569,6.569,0,0,0,3.933-.707,10.718,10.718,0,0,0,2.717-1.575,4.887,4.887,0,0,0,1.672-2.6A5.257,5.257,0,0,0,46.7,268.768Z" transform="translate(-32.51 -255.624)" fill="#87be00"/>
        <path id="Path_579" data-name="Path 579" d="M50.692,276.359a9.994,9.994,0,0,1-5.1-2.711,29.868,29.868,0,0,1-3.751-4.517c2,.916,2.99,3.156,4.587,4.672A15.616,15.616,0,0,0,50.692,276.359Z" transform="translate(-36.841 -258.344)" fill="#add250"/>
        <path id="Path_580" data-name="Path 580" d="M53.763,277.5l-1.206-4.667a12.63,12.63,0,0,0,.536,3.922C53.217,277.09,53.409,277.481,53.763,277.5Z" transform="translate(-41.814 -260.061)" fill="#add250"/>
        <path id="Path_581" data-name="Path 581" d="M48.318,273.82l-1-3.96a9.533,9.533,0,0,0,.059,2.106,3.263,3.263,0,0,0,.938,1.854Z" transform="translate(-39.37 -258.682)" fill="#add250"/>
        <path id="Path_582" data-name="Path 582" d="M43.081,276.029a7.723,7.723,0,0,1-3.751-1.259,7.03,7.03,0,0,0,5.583,1.94c-.027-.407-.182-.493-.579-.605A4.285,4.285,0,0,0,43.081,276.029Z" transform="translate(-35.676 -260.961)" fill="#add250"/>
        <path id="Path_583" data-name="Path 583" d="M42.09,279.36a5.155,5.155,0,0,0,3.113,1.95,6,6,0,0,0,3.89-.756c-.23-.134-.7-.225-.825-.461a4.614,4.614,0,0,1-3.145.4A13.716,13.716,0,0,1,42.09,279.36Z" transform="translate(-36.957 -263.092)" fill="#add250"/>
        <path id="Path_584" data-name="Path 584" d="M60.157,304.636a16.761,16.761,0,0,1-20.807.059,16.938,16.938,0,0,1,4.233-4.062,10.486,10.486,0,0,1,5.551-1.763,11.7,11.7,0,0,1,6.012,1.854,34.825,34.825,0,0,1,5.01,3.912Z" transform="translate(-35.685 -272.148)" fill="#664a3b"/>
      </g>
      <path id="Path_1186" data-name="Path 1186" d="M369.693,410.162H368.56v-6.9h6.9v1.133h-5.766Z" transform="translate(-342.845 -375.572)" fill="#a4ff26"/>
      <path id="Path_1187" data-name="Path 1187" d="M422.222,410.162h-1.133v-5.769H415.32V403.26h6.9Z" transform="translate(-376.362 -375.572)" fill="#a4ff26"/>
      <path id="Path_1188" data-name="Path 1188" d="M422.222,456.932h-6.9V455.8h5.769V450.03h1.133Z" transform="translate(-376.362 -409.096)" fill="#a4ff26"/>
      <path id="Path_1189" data-name="Path 1189" d="M375.459,456.932h-6.9v-6.9h1.133V455.8h5.766Z" transform="translate(-342.845 -409.096)" fill="#a4ff26"/>
      <rect id="Rectangle_201" data-name="Rectangle 201" width="40.274" height="9.4" transform="translate(15.649 65.455)" fill="#f1f2f2"/>
      <rect id="Rectangle_202" data-name="Rectangle 202" width="13.311" height="6.743" rx="3.372" transform="translate(29.13 66.783)" fill="#d1d3d4"/>
      <path id="Path_1190" data-name="Path 1190" d="M401.561,549.65a1.008,1.008,0,1,0,1.006,1.005A1.008,1.008,0,0,0,401.561,549.65Z" transform="translate(-365.775 -480.502)" fill="#6d6e71"/>
      <path id="Path_1192" data-name="Path 1192" d="M398.819,545.168h-1.7l-.329-.445a.337.337,0,0,0-.266-.133h-.932a.334.334,0,0,0-.263.133l-.331.445h-1.7a.419.419,0,0,0-.419.419v2.886a.419.419,0,0,0,.419.416h5.511a.416.416,0,0,0,.416-.416v-2.886A.416.416,0,0,0,398.819,545.168Zm-2.756,3.2a1.337,1.337,0,1,1,1.334-1.337A1.337,1.337,0,0,1,396.063,548.365Z" transform="translate(-360.277 -476.875)" fill="#6d6e71"/>
      <path id="Path_1193" data-name="Path 1193" d="M387.777,323.252h8.29a.634.634,0,0,0,0-1.266h-8.29a.634.634,0,1,0,0,1.266Z" transform="translate(-356.135 -317.316)" fill="#a7a9ac"/>
      <path id="Path_1194" data-name="Path 1194" d="M333.961,467.685a9.961,9.961,0,0,0,4.322-10.8,2.246,2.246,0,0,0-2.81-1.614l-11.983,3.506v34.51a4.427,4.427,0,0,0,4.415,4.421h14.356A27.4,27.4,0,0,0,327.1,479.017l1.878-8.14Z" transform="translate(-310.54 -412.789)" fill="#f1f2f2"/>
      <path id="Path_1195" data-name="Path 1195" d="M291.05,552.819V506.655a10.839,10.839,0,0,0-2.067-6.364l-10.131-13.963a5.712,5.712,0,0,1-.705-5.4l7.148-18.548a5.7,5.7,0,0,1,3.719-3.424l12.685-3.713a2.246,2.246,0,0,1,2.81,1.614h0a9.961,9.961,0,0,1-4.322,10.8l-4.979,3.195-1.878,8.14a27.435,27.435,0,0,1,15.393,19.738l-14.464,54.092Z" transform="translate(-277.766 -412.768)" fill="#ffddc1"/>
      <path id="Path_1196" data-name="Path 1196" d="M464.421,483.244V442.48a5.057,5.057,0,0,0-1.736,1.133l-4.724,4.721a5.1,5.1,0,0,0,0,7.225h0a5.014,5.014,0,0,0,1.014.779l-1.014,1.017a5.1,5.1,0,0,0,0,7.225h0a5.012,5.012,0,0,0,1.014.779l-1.014,1.014a5.1,5.1,0,0,0,0,7.225h0a5.015,5.015,0,0,0,1.014.779l-1.014,1.014a5.1,5.1,0,0,0,6.46,7.851Z" transform="translate(-405.799 -403.685)" fill="#f1f2f2"/>
      <path id="Path_1197" data-name="Path 1197" d="M460.662,453.2h0a5.1,5.1,0,0,1,0-7.225l4.724-4.724a5.1,5.1,0,0,1,7.225,0h0a5.1,5.1,0,0,1,0,7.225L467.9,453.2a5.1,5.1,0,0,1-7.233,0Z" transform="translate(-407.786 -401.728)" fill="#ffddc1"/>
      <path id="Path_1198" data-name="Path 1198" d="M460.665,485.038h0a5.1,5.1,0,0,1,0-7.222l4.724-4.724a5.1,5.1,0,0,1,7.225,0h0a5.1,5.1,0,0,1,0,7.225l-4.716,4.721a5.1,5.1,0,0,1-7.233,0Z" transform="translate(-407.79 -424.551)" fill="#ffddc1"/>
      <path id="Path_1199" data-name="Path 1199" d="M460.665,516.878h0a5.1,5.1,0,0,1,0-7.222l4.724-4.724a5.1,5.1,0,0,1,7.225,0h0a5.1,5.1,0,0,1,0,7.225l-4.716,4.721a5.1,5.1,0,0,1-7.233,0Z" transform="translate(-407.79 -447.373)" fill="#ffddc1"/>
      <path id="Path_1200" data-name="Path 1200" d="M460.665,548.718h0a5.1,5.1,0,0,1,0-7.222l4.724-4.724a5.1,5.1,0,0,1,7.225,0h0a5.1,5.1,0,0,1,0,7.222l-4.716,4.724a5.1,5.1,0,0,1-7.233,0Z" transform="translate(-407.79 -470.195)" fill="#ffddc1"/>
    </g>
  </g>
</svg>
