<svg xmlns="http://www.w3.org/2000/svg" width="269.027" height="251.591" viewBox="0 0 269.027 251.591">
  <g id="Component_4_1" data-name="Component 4 – 1" transform="translate(0 5.303)">
    <g id="Path_505" data-name="Path 505" transform="translate(0 17.615)" fill="none" opacity="0.42">
      <path d="M113.114,0A113.114,113.114,0,1,1,0,113.114,113.114,113.114,0,0,1,113.114,0Z" stroke="none"/>
      <path d="M 113.1138610839844 9.999969482421875 C 56.25666809082031 9.999969482421875 9.999969482421875 56.25666809082031 9.999969482421875 113.1138610839844 C 9.999969482421875 169.9710083007813 56.25666809082031 216.2277069091797 113.1138610839844 216.2277069091797 C 169.9710083007813 216.2277069091797 216.2277069091797 169.9710083007813 216.2277069091797 113.1138610839844 C 216.2277069091797 56.25666809082031 169.9710083007813 9.999969482421875 113.1138610839844 9.999969482421875 M 113.1138610839844 -3.0517578125e-05 C 175.5849304199219 -3.0517578125e-05 226.2277069091797 50.642822265625 226.2277069091797 113.1138610839844 C 226.2277069091797 175.5849304199219 175.5849304199219 226.2277069091797 113.1138610839844 226.2277069091797 C 50.642822265625 226.2277069091797 -3.0517578125e-05 175.5849304199219 -3.0517578125e-05 113.1138610839844 C -3.0517578125e-05 50.642822265625 50.642822265625 -3.0517578125e-05 113.1138610839844 -3.0517578125e-05 Z" stroke="none" fill="#c0c0c1"/>
    </g>
    <path id="Path_504" data-name="Path 504" d="M1702.667,3996.567a145.968,145.968,0,0,0,35.152-6.088,123.052,123.052,0,0,0,18.165-7.659c6.557-3.248,12.074-7.673,17.281-11.783,1.86-1.468,3.5-3.4,5.4-4.909a13,13,0,0,0,2.258-1.964c.418-.531,1.075-.449,1.571-1.08,11.179-14.215,14.241-17.9,16.594-22.486a50.212,50.212,0,0,1,4.32-7.266" transform="translate(-1590.338 -3755.278)" fill="none" stroke="#a5da76" stroke-width="10"/>
    <path id="Path_507" data-name="Path 507" d="M0,63.234a145.969,145.969,0,0,0,35.152-6.088,123.059,123.059,0,0,0,18.165-7.659C59.873,46.239,65.391,41.815,70.6,37.7c1.86-1.468,3.5-3.4,5.4-4.909a13,13,0,0,0,2.258-1.964c.418-.532,1.075-.449,1.571-1.08,11.179-14.215,14.241-17.9,16.594-22.485A50.2,50.2,0,0,1,100.742,0" transform="matrix(0.588, -0.809, 0.809, 0.588, 152.288, 158.787)" fill="none" stroke="#a5da76" stroke-width="10"/>
    <path id="Path_508" data-name="Path 508" d="M0,63.234a145.969,145.969,0,0,0,35.152-6.088,123.059,123.059,0,0,0,18.165-7.659C59.873,46.239,65.391,41.815,70.6,37.7c1.86-1.468,3.5-3.4,5.4-4.909a13,13,0,0,0,2.258-1.964c.418-.532,1.075-.449,1.571-1.08,11.179-14.215,14.241-17.9,16.594-22.485A50.2,50.2,0,0,1,100.742,0" transform="matrix(-0.309, -0.951, 0.951, -0.309, 158.8, 115.352)" fill="none" stroke="#a5da76" stroke-width="10"/>
    <g id="BACKGROUND" transform="translate(34.881 86.713)">
      <path id="Path_246" data-name="Path 246" d="M273.085,184.563c4.19-4.625,8.685-11.253,8-18.728s-6.644-9.456-8.428-17.433c-2.762-12.348,4.885-17.7,5.479-28.911,1.063-20.128-21.41-43.836-42.972-46.343-13.033-1.511-14.862,5.971-31.177,5.057-20.09-1.124-23.657-12.827-37.916-11.373-16.271,1.657-33.259,19.1-33.285,34.967-.025,16.36,17.995,23.689,14.325,36.23-2.425,8.288-11.745,7.85-16.852,17.7-4.85,9.345,2.9,23.724,6.955,28.841Z" transform="translate(-127.45 -66.707)" fill="#a5da76" opacity="0.47"/>
      <circle id="Ellipse_17" data-name="Ellipse 17" cx="6.24" cy="6.24" r="6.24" transform="translate(1.085 2.048)" fill="#a5def6" opacity="0.47"/>
      <circle id="Ellipse_18" data-name="Ellipse 18" cx="6.24" cy="6.24" r="6.24" transform="translate(3.519 61.127)" fill="#a5def6" opacity="0.47"/>
      <circle id="Ellipse_19" data-name="Ellipse 19" cx="3.419" cy="3.419" r="3.419" transform="translate(17.234 18.569) rotate(-45)" fill="#a5def6" opacity="0.47"/>
      <path id="Path_247" data-name="Path 247" d="M593.2,298.634a3.65,3.65,0,1,1,1.064,2.591,3.65,3.65,0,0,1-1.064-2.591Z" transform="translate(-444.502 -222.535)" fill="#a5def6" opacity="0.47"/>
      <circle id="Ellipse_20" data-name="Ellipse 20" cx="2.555" cy="2.555" r="2.555" transform="translate(147.644 67.948) rotate(-45)" fill="#a5def6" opacity="0.47"/>
      <circle id="Ellipse_21" data-name="Ellipse 21" cx="2.619" cy="2.619" r="2.619" transform="translate(0 21.987) rotate(-45)" fill="#a5def6" opacity="0.47"/>
      <circle id="Ellipse_22" data-name="Ellipse 22" cx="2.619" cy="2.619" r="2.619" transform="translate(70.401 6.37) rotate(-45)" fill="#a5def6" opacity="0.47"/>
      <circle id="Ellipse_23" data-name="Ellipse 23" cx="2.619" cy="2.619" r="2.619" transform="translate(125.924 11.158) rotate(-80.78)" fill="#a5def6" opacity="0.47"/>
    </g>
    <g id="_2924717" data-name="2924717" transform="translate(44.812 57.878)">
      <g id="Table" transform="translate(0 102.819)">
        <rect id="Rectangle_171" data-name="Rectangle 171" width="135.227" height="15.309" fill="#7dc40c"/>
        <rect id="Rectangle_172" data-name="Rectangle 172" width="29.007" height="15.309" transform="translate(106.224)" opacity="0.3"/>
        <rect id="Rectangle_173" data-name="Rectangle 173" width="14.93" height="27.322" transform="translate(0 15.309)" fill="#7dc40c"/>
        <path id="Path_1057" data-name="Path 1057" d="M94.72,298.54v1.528l10.572,3.192v22.6h4.354V298.54Z" transform="translate(-94.716 -283.231)" opacity="0.3"/>
        <rect id="Rectangle_174" data-name="Rectangle 174" width="14.93" height="27.322" transform="translate(120.301 15.309)" fill="#7dc40c"/>
        <rect id="Rectangle_175" data-name="Rectangle 175" width="14.93" height="27.322" transform="translate(120.301 15.309)" opacity="0.2"/>
        <path id="Path_1058" data-name="Path 1058" d="M371,298.54v1.528l10.576,3.192v22.6h4.354V298.54Z" transform="translate(-250.699 -283.231)" opacity="0.3"/>
        <rect id="Rectangle_176" data-name="Rectangle 176" width="14.93" height="27.322" transform="translate(91.294 15.309)" fill="#7dc40c"/>
        <path id="Path_1059" data-name="Path 1059" d="M304.38,298.54v1.528l10.576,3.192v22.6h4.354V298.54Z" transform="translate(-213.086 -283.231)" opacity="0.3"/>
        <rect id="Rectangle_177" data-name="Rectangle 177" width="14.93" height="27.322" transform="translate(29.007 15.309)" fill="#7dc40c"/>
        <rect id="Rectangle_178" data-name="Rectangle 178" width="14.93" height="27.322" transform="translate(29.007 15.309)" opacity="0.2"/>
        <path id="Path_1060" data-name="Path 1060" d="M161.33,298.54v1.528l10.576,3.192v22.6h4.354V298.54Z" transform="translate(-132.323 -283.231)" opacity="0.3"/>
      </g>
      <g id="Character" transform="translate(15.251 23.763)">
        <path id="Path_1061" data-name="Path 1061" d="M252.842,236.167H170.166a1.864,1.864,0,0,1-1.872-2l3.4-54.031a2.177,2.177,0,0,1,2.129-2H256.5a1.864,1.864,0,0,1,1.872,2l-3.4,54.031A2.177,2.177,0,0,1,252.842,236.167Z" transform="translate(-151.502 -160.119)" fill="#263238"/>
        <path id="Path_1062" data-name="Path 1062" d="M252.842,236.167H170.166a1.864,1.864,0,0,1-1.872-2l3.4-54.031a2.177,2.177,0,0,1,2.129-2H256.5a1.864,1.864,0,0,1,1.872,2l-3.4,54.031A2.177,2.177,0,0,1,252.842,236.167Z" transform="translate(-151.502 -160.119)" opacity="0.6"/>
        <path id="Path_1063" data-name="Path 1063" d="M251.422,236.167H168.75a1.864,1.864,0,0,1-1.877-2l3.4-54.031a2.177,2.177,0,0,1,2.129-2H255.08a1.859,1.859,0,0,1,1.872,2l-3.4,54.031A2.177,2.177,0,0,1,251.422,236.167Z" transform="translate(-150.7 -160.119)" fill="#263238"/>
        <path id="Path_1064" data-name="Path 1064" d="M230.354,313H131.98a2.4,2.4,0,0,0-2.177,1.345.688.688,0,0,0,.631.984H231.878a.688.688,0,0,0,.631-.984A2.39,2.39,0,0,0,230.354,313Z" transform="translate(-129.736 -236.265)" fill="#263238"/>
        <path id="Path_1065" data-name="Path 1065" d="M339.8,313h-13.99a2.386,2.386,0,0,0-2.155,1.345.688.688,0,0,0,.627.984h17.042a.688.688,0,0,0,.631-.984A2.391,2.391,0,0,0,339.8,313Z" transform="translate(-239.181 -236.265)" opacity="0.6"/>
        <path id="Path_1066" data-name="Path 1066" d="M335.807,316.076h-3.614a.318.318,0,0,1-.313-.318h0a.318.318,0,0,1,.314-.318h3.614a.318.318,0,0,1,.318.318h0A.318.318,0,0,1,335.807,316.076Z" transform="translate(-243.863 -237.642)" fill="#407bff"/>
        <path id="Path_1067" data-name="Path 1067" d="M229.077,316.076h-3.61a.318.318,0,0,1-.318-.318h0a.318.318,0,0,1,.318-.318h3.61a.318.318,0,0,1,.318.318h0a.318.318,0,0,1-.318.318Z" transform="translate(-183.605 -237.642)" fill="#fff" opacity="0.7"/>
        <rect id="Rectangle_179" data-name="Rectangle 179" width="2.887" height="0.636" rx="0.318" transform="translate(93.059 77.793)" fill="#407bff"/>
        <path id="Path_1068" data-name="Path 1068" d="M171.158,236.334l3.161-50.13a.84.84,0,0,1,.827-.775h81.636a.718.718,0,0,1,.727.775l-3.157,50.13a.845.845,0,0,1-.832.775H171.889a.727.727,0,0,1-.731-.775Z" transform="translate(-153.121 -164.241)" fill="#fff"/>
        <path id="Path_1069" data-name="Path 1069" d="M215.6,181.88l-27.192,51.684h-20.06a.723.723,0,0,1-.732-.779l3.161-50.125a.845.845,0,0,1,.827-.779Z" transform="translate(-151.122 -162.236)" fill="#407bff" opacity="0.1"/>
        <path id="Path_1070" data-name="Path 1070" d="M289.031,126.93,261.84,178.614H255.5l27.192-51.684Z" transform="translate(-200.74 -107.286)" fill="#407bff" opacity="0.1"/>
        <path id="Path_1071" data-name="Path 1071" d="M320.683,182.659l-3.161,50.125a.84.84,0,0,1-.827.779H285.78l27.192-51.684h6.967a.727.727,0,0,1,.745.779Z" transform="translate(-217.836 -162.236)" fill="#407bff" opacity="0.1"/>
        <path id="Path_1072" data-name="Path 1072" d="M274.109,181.238a.636.636,0,0,1-.623.588.544.544,0,0,1-.549-.588.631.631,0,0,1,.623-.588.544.544,0,0,1,.549.588Z" transform="translate(-210.584 -161.542)" fill="#fff" opacity="0.4"/>
        <path id="Path_1074" data-name="Path 1074" d="M201.195,229.413c-.893,3.048-1.842,6.1-2.826,9.144s-2.007,6.061-3.091,9.087l-.414,1.141-.209.57-.065.17-.1.257c-.065.165-.165.344-.252.514a4.742,4.742,0,0,1-1.833,1.855,4.963,4.963,0,0,1-2.282.6,8.42,8.42,0,0,1-3.261-.64,18.351,18.351,0,0,1-2.451-1.215,39,39,0,0,1-7.785-6.3l1.877-2.212c.631.4,1.306.836,1.959,1.241s1.337.8,2,1.184a39.692,39.692,0,0,0,4.01,2.051,13.6,13.6,0,0,0,1.933.684,3.523,3.523,0,0,0,1.419.165c.122,0,.1-.07,0-.031s-.209.152-.213.139,0,0,0-.026a.057.057,0,0,0,0-.026l.035-.109.165-.562.335-1.132,2.66-9.144q1.358-4.572,2.8-9.144Z" transform="translate(-156.206 -188.094)" fill="#b65b52"/>
        <path id="Path_1075" data-name="Path 1075" d="M174.06,258.872,169,257l2.007,5.347s3.57.514,4.955-1.363l-1.128-1.511A1.741,1.741,0,0,0,174.06,258.872Z" transform="translate(-151.904 -204.648)" fill="#b55b52"/>
        <path id="Path_1076" data-name="Path 1076" d="M158.75,203.593l1.925,4.385,4.568-.605-2.012-5.343Z" transform="translate(-146.117 -149.687)" fill="#b55b52"/>
        <path id="Path_1077" data-name="Path 1077" d="M219.5,213.054c-2.316.588-3.919,10.11-3.919,10.11l6.379,4.354s6.1-9.605,4.332-12.148C224.419,212.7,222.873,212.2,219.5,213.054Z" transform="translate(-178.202 -179.62)" fill="#7dc40c"/>
        <path id="Path_1078" data-name="Path 1078" d="M219.5,213.054c-2.316.588-3.919,10.11-3.919,10.11l6.379,4.354s6.1-9.605,4.332-12.148C224.419,212.7,222.873,212.2,219.5,213.054Z" transform="translate(-178.202 -179.62)" fill="#fff" opacity="0.5"/>
        <path id="Path_1079" data-name="Path 1079" d="M222.519,221.5l4.951,1.145.475,4.846a55.879,55.879,0,0,1-2.774,4.994l-3.871-2.613C221.47,227.631,221.888,223.024,222.519,221.5Z" transform="translate(-181.432 -184.605)" opacity="0.2"/>
        <path id="Path_1080" data-name="Path 1080" d="M223.713,211.442s-2.678.941,2.682,33.884h22.8c-.383-9.279-.392-15,4.041-34.045a67.054,67.054,0,0,0-9.679-1.276,72.014,72.014,0,0,0-10.354,0C228.755,210.41,223.713,211.442,223.713,211.442Z" transform="translate(-182.416 -178.009)" fill="#7dc40c"/>
        <path id="Path_1081" data-name="Path 1081" d="M223.713,211.442s-2.678.941,2.682,33.884h22.8c-.383-9.279-.392-15,4.041-34.045a67.054,67.054,0,0,0-9.679-1.276,72.014,72.014,0,0,0-10.354,0C228.755,210.41,223.713,211.442,223.713,211.442Z" transform="translate(-182.416 -178.009)" fill="#fff" opacity="0.5"/>
        <path id="Path_1082" data-name="Path 1082" d="M280,233.48l2.943,2.508c-.627,3.331-1.049,6.1-1.306,8.573C281.072,242.088,279.67,235.374,280,233.48Z" transform="translate(-214.543 -191.369)" opacity="0.2"/>
        <path id="Path_1083" data-name="Path 1083" d="M254.434,183.47c-.653,3.331-1.306,9.435,1.028,11.66a8.873,8.873,0,0,1-7.946,4.99c-5.769,0-2.408-4.99-2.408-4.99,3.714-.871,3.618-3.644,2.974-6.231Z" transform="translate(-194.323 -163.134)" fill="#b55b52"/>
        <path id="Path_1084" data-name="Path 1084" d="M253.856,207.01c-.549,1.11-2.316,3.649-7.254,4.554a.549.549,0,0,1-.4-.078,3.3,3.3,0,0,1-1.093-3.588.54.54,0,0,0-.723-.644,6.89,6.89,0,0,0-1.089.575.527.527,0,0,0-.179.2c-.361.679-1.824,4.006,2.591,6.057a.662.662,0,0,0,.222.052A10.559,10.559,0,0,0,256,208.477a.548.548,0,0,0-.048-.6,5.626,5.626,0,0,0-1.337-1.075.531.531,0,0,0-.762.209Z" transform="translate(-193.457 -176.259)" fill="#fafafa"/>
        <path id="Path_1085" data-name="Path 1085" d="M263.04,236.516l-5.878-.17a.435.435,0,0,1-.435-.483l.057-.727a.505.505,0,0,1,.509-.435l5.878.17a.435.435,0,0,1,.435.488l-.057.723A.5.5,0,0,1,263.04,236.516Z" transform="translate(-201.431 -192.058)" fill="#fafafa"/>
        <path id="Path_1086" data-name="Path 1086" d="M256.962,188.56l-3.762,3.209a10.563,10.563,0,0,1,.322,1.837c1.415-.2,3.366-1.763,3.518-3.248a4.981,4.981,0,0,0-.078-1.8Z" transform="translate(-199.442 -166.008)" opacity="0.2"/>
        <path id="Path_1087" data-name="Path 1087" d="M256.533,157.18c-1.049,5.473-1.376,7.811-4.528,10.28-4.742,3.718-11.234,1.228-11.835-4.446-.544-5.107,1.263-13.2,6.967-14.7a7.6,7.6,0,0,1,9.4,8.861Z" transform="translate(-192.033 -143.145)" fill="#b55b52"/>
        <path id="Path_1088" data-name="Path 1088" d="M270.2,155.209c-.679,3.427-.84,7.968,2.3,7.968s5.6-5.343,2.891-9.527S270.593,153.189,270.2,155.209Z" transform="translate(-208.81 -145.223)" fill="#263238"/>
        <path id="Path_1089" data-name="Path 1089" d="M258.227,147.174c0,3.727-4.694,1.885-6.771.279s-2.177-1.433-6.026-1.437-4.62-.27-5.756-2.107-1.032-3.048,1.528-2.66.409-2.225,2.316-3.675,4.167-1.084,6.775,2.225S258.227,140.717,258.227,147.174Z" transform="translate(-191.415 -136.766)" fill="#263238"/>
        <ellipse id="Ellipse_39" data-name="Ellipse 39" cx="3.179" cy="2.06" rx="3.179" ry="2.06" transform="translate(60.587 20.792) rotate(-73.66)" fill="#fff"/>
        <path id="Path_1090" data-name="Path 1090" d="M256.059,165.791a7.444,7.444,0,0,1-2.938-.6.161.161,0,0,1-.088-.214.17.17,0,0,1,.218-.087,7.119,7.119,0,0,0,5.543.03,6.927,6.927,0,0,0,3.8-3.81c1.306-3.74,2.639-8.408,1.1-11.321a4.481,4.481,0,0,0-3-2.234.164.164,0,1,1,.083-.318,4.811,4.811,0,0,1,3.209,2.395c1.6,3.009.266,7.768-1.08,11.578a7.267,7.267,0,0,1-3.993,4A7.534,7.534,0,0,1,256.059,165.791Z" transform="translate(-199.34 -142.673)" fill="#fff"/>
        <path id="Path_1091" data-name="Path 1091" d="M276.086,176.585c-.388,1.306-1.276,2.225-1.986,2.02s-.971-1.45-.583-2.774,1.276-2.229,1.985-2.02S276.474,175.261,276.086,176.585Z" transform="translate(-210.811 -157.664)" fill="#407bff" opacity="0.6"/>
        <path id="Path_1100" data-name="Path 1100" d="M228.749,296.922a17.259,17.259,0,0,1,.871-5.552h22.794A24.973,24.973,0,0,1,255,296.922Z" transform="translate(-185.637 -224.053)" fill="#7dc40c"/>
        <path id="Path_1101" data-name="Path 1101" d="M252.945,288.071l.179,2.038c.083.161-.1.322-.37.322H229.677c-.2,0-.374-.1-.388-.231l-.209-2.042c0-.139.165-.261.392-.261h23.077A.435.435,0,0,1,252.945,288.071Z" transform="translate(-185.824 -222.09)" fill="#407bff"/>
        <path id="Path_1102" data-name="Path 1102" d="M252.945,288.071l.179,2.038c.083.161-.1.322-.37.322H229.677c-.2,0-.374-.1-.388-.231l-.209-2.042c0-.139.165-.261.392-.261h23.077A.435.435,0,0,1,252.945,288.071Z" transform="translate(-185.824 -222.09)" fill="#fafafa" opacity="0.3"/>
        <path id="Path_1103" data-name="Path 1103" d="M276.059,290.42h.618c.126,0,.218-.061.209-.139l-.287-2.652c0-.078-.118-.139-.24-.139h-.631c-.126,0-.218.061-.209.139l.287,2.652A.256.256,0,0,0,276.059,290.42Z" transform="translate(-212.042 -221.862)" fill="#407bff"/>
        <path id="Path_1104" data-name="Path 1104" d="M233.78,290.42h.618c.122,0,.218-.061.209-.139l-.292-2.652c0-.078-.113-.139-.239-.139h-.618c-.122,0-.218.061-.209.139l.292,2.652C233.55,290.359,233.659,290.42,233.78,290.42Z" transform="translate(-188.178 -221.862)" fill="#407bff"/>
        <path id="Path_1105" data-name="Path 1105" d="M254.908,290.42h.6c.122,0,.218-.061.209-.139l-.292-2.652c0-.078-.118-.139-.239-.139h-.618c-.122,0-.218.061-.209.139l.292,2.652A.262.262,0,0,0,254.908,290.42Z" transform="translate(-200.096 -221.862)" fill="#407bff"/>
        <path id="Path_1106" data-name="Path 1106" d="M289.571,228q1.5,4.877,2.887,9.806l1.389,4.9.692,2.438.174.6.087.3.022.07h0l-.07-.109a1.741,1.741,0,0,0-.4-.409,2.177,2.177,0,0,0-1.167-.414,1.955,1.955,0,0,0-.923.183c-.313.17-.283.209-.257.178a1.441,1.441,0,0,0,.2-.213,7.888,7.888,0,0,0,.566-.806c.383-.627.762-1.332,1.119-2.055.74-1.446,1.406-2.978,2.081-4.52s1.306-3.1,1.959-4.672,1.276-3.152,1.92-4.711l2.782.827c-.723,3.4-1.567,6.732-2.613,10.054-.514,1.668-1.084,3.318-1.742,4.99-.34.836-.7,1.672-1.149,2.538a12.9,12.9,0,0,1-.8,1.359,6.422,6.422,0,0,1-.61.775,4.056,4.056,0,0,1-1.263.962,3.227,3.227,0,0,1-1.541.322,3.174,3.174,0,0,1-1.742-.64,3.593,3.593,0,0,1-.823-.871,4.736,4.736,0,0,1-.37-.675c-.039-.1-.083-.2-.113-.283l-.083-.213-.113-.309-.226-.614c-.3-.814-.6-1.628-.871-2.443-.557-1.628-1.115-3.253-1.637-4.885q-1.6-4.894-2.987-9.836Z" transform="translate(-216.803 -188.275)" fill="#b65b52"/>
        <path id="Path_1107" data-name="Path 1107" d="M284.272,213.017c2.286.692,5.782,9.658,5.782,9.658l-8.861,6.335s-3.984-7.663-3.026-10.615C279.169,215.32,281.668,212.225,284.272,213.017Z" transform="translate(-213.454 -179.745)" fill="#7dc40c"/>
        <path id="Path_1108" data-name="Path 1108" d="M284.272,213.017c2.286.692,5.782,9.658,5.782,9.658l-8.861,6.335s-3.984-7.663-3.026-10.615C279.169,215.32,281.668,212.225,284.272,213.017Z" transform="translate(-213.454 -179.745)" fill="#fff" opacity="0.5"/>
        <path id="Path_1109" data-name="Path 1109" d="M319.125,225.106l-1.215-5.356,5.051,2.665s.061,3.605-1.977,4.742Z" transform="translate(-235.976 -183.617)" fill="#b55b52"/>
        <path id="Path_1110" data-name="Path 1110" d="M320.026,155.04l3.222,2.282-.287,4.633-5.051-2.665Z" transform="translate(-235.976 -123.157)" fill="#b55b52"/>
      </g>
      <g id="Chat" transform="translate(2.303 0)">
        <path id="Path_1111" data-name="Path 1111" d="M106.531,148.09H141.8a4.868,4.868,0,0,1,4.9,5.225l-.984,15.962a5.66,5.66,0,0,1-5.547,5.225h-4.084l1.668,5.482-7.977-5.482H104.916a4.868,4.868,0,0,1-4.9-5.225l.975-15.962A5.66,5.66,0,0,1,106.531,148.09Z" transform="translate(-100 -119.396)" fill="#7dc40c"/>
        <path id="Path_1112" data-name="Path 1112" d="M148.727,164.721H118.9a.914.914,0,0,1-.906-1h0a1.062,1.062,0,0,1,1.041-.984h29.83a.919.919,0,0,1,.914.984h0a1.058,1.058,0,0,1-1.054,1Z" transform="translate(-110.158 -127.667)" fill="#fff"/>
        <path id="Path_1113" data-name="Path 1113" d="M130.574,178.128H118.06a.919.919,0,0,1-.923-.984h0a1.062,1.062,0,0,1,1.045-.984h12.527a.919.919,0,0,1,.927.984h0A1.067,1.067,0,0,1,130.574,178.128Z" transform="translate(-109.674 -135.244)" fill="#fff"/>
        <path id="Path_1114" data-name="Path 1114" d="M140.835,191.518h-23.6a.919.919,0,0,1-.923-.984h0a1.058,1.058,0,0,1,1.045-.984h23.6a.914.914,0,0,1,.923.984h0a1.062,1.062,0,0,1-1.045.984Z" transform="translate(-109.211 -142.803)" fill="#fff"/>
        <path id="Path_1115" data-name="Path 1115" d="M161.513,178.128H156.58a.919.919,0,0,1-.923-.984h0a1.067,1.067,0,0,1,1.045-.984h4.929a.914.914,0,0,1,.923.984h0A1.062,1.062,0,0,1,161.513,178.128Z" transform="translate(-131.422 -135.244)" fill="#fff"/>
        <path id="Path_1116" data-name="Path 1116" d="M196.279,82.19H177.051a4.393,4.393,0,0,0-4.315,4.062l-.749,12.427a3.792,3.792,0,0,0,3.819,4.062h3.148l-1.82,4.267,6.732-4.267h11.155a4.393,4.393,0,0,0,4.315-4.062l.762-12.427a3.793,3.793,0,0,0-3.819-4.062Z" transform="translate(-140.637 -82.19)" fill="#a5da76"/>
        <g id="Group_195" data-name="Group 195" transform="translate(31.34)" opacity="0.5">
          <path id="Path_1117" data-name="Path 1117" d="M196.279,82.19H177.051a4.393,4.393,0,0,0-4.315,4.062l-.749,12.427a3.792,3.792,0,0,0,3.819,4.062h3.148l-1.82,4.267,6.732-4.267h11.155a4.393,4.393,0,0,0,4.315-4.062l.762-12.427a3.793,3.793,0,0,0-3.819-4.062Z" transform="translate(-171.978 -82.19)" fill="#fafafa"/>
        </g>
        <path id="Path_1118" data-name="Path 1118" d="M199.907,99.1a1.258,1.258,0,0,1-1.219.962h-1.136c0-.322.026-.518.03-.588a4.084,4.084,0,0,1,.47-1.8,6.013,6.013,0,0,1,1.541-1.585,11.84,11.84,0,0,0,1.367-1.158,1.637,1.637,0,0,0,.383-.949,1.515,1.515,0,0,0-.5-1.241,2.151,2.151,0,0,0-1.524-.514,2.473,2.473,0,0,0-1.611.54,2.564,2.564,0,0,0-.653.814,1.306,1.306,0,0,1-1.263.705h0a1.106,1.106,0,0,1-.8-1.685,4.428,4.428,0,0,1,1-1.158,5.012,5.012,0,0,1,3.34-1.1,4.678,4.678,0,0,1,3.327,1.115,3.183,3.183,0,0,1,1.1,2.612,3.048,3.048,0,0,1-.557,1.55,11.191,11.191,0,0,1-2.1,1.994,4.07,4.07,0,0,0-1.036,1.049,1.659,1.659,0,0,0-.152.435Zm-2.486,3.126v-.139a1.258,1.258,0,0,1,1.241-1.167h.157a1.089,1.089,0,0,1,1.1,1.167v.139a1.263,1.263,0,0,1-1.241,1.171h-.139a1.089,1.089,0,0,1-1.119-1.171Z" transform="translate(-153.535 -86.792)" fill="#fff"/>
      </g>
    </g>
  </g>
</svg>
