<svg id="Component_5_1" data-name="Component 5 – 1" xmlns="http://www.w3.org/2000/svg" width="268.593" height="228.673" viewBox="0 0 268.593 228.673">
  <g id="Path_505" data-name="Path 505" fill="none">
    <path d="M113.114,0A113.114,113.114,0,1,1,0,113.114,113.114,113.114,0,0,1,113.114,0Z" stroke="none"/>
    <path d="M 113.1138610839844 9.999969482421875 C 56.25666809082031 9.999969482421875 9.999969482421875 56.25666809082031 9.999969482421875 113.1138610839844 C 9.999969482421875 169.9710083007813 56.25666809082031 216.2277069091797 113.1138610839844 216.2277069091797 C 169.9710083007813 216.2277069091797 216.2277069091797 169.9710083007813 216.2277069091797 113.1138610839844 C 216.2277069091797 56.25666809082031 169.9710083007813 9.999969482421875 113.1138610839844 9.999969482421875 M 113.1138610839844 -3.0517578125e-05 C 175.5849304199219 -3.0517578125e-05 226.2277069091797 50.642822265625 226.2277069091797 113.1138610839844 C 226.2277069091797 175.5849304199219 175.5849304199219 226.2277069091797 113.1138610839844 226.2277069091797 C 50.642822265625 226.2277069091797 -3.0517578125e-05 175.5849304199219 -3.0517578125e-05 113.1138610839844 C -3.0517578125e-05 50.642822265625 50.642822265625 -3.0517578125e-05 113.1138610839844 -3.0517578125e-05 Z" stroke="none" fill="#a5da76"/>
  </g>
  <path id="Path_504" data-name="Path 504" d="M1702.667,3996.567a145.968,145.968,0,0,0,35.152-6.088,123.052,123.052,0,0,0,18.165-7.659c6.557-3.248,12.074-7.673,17.281-11.783,1.86-1.468,3.5-3.4,5.4-4.909a13,13,0,0,0,2.258-1.964c.418-.531,1.075-.449,1.571-1.08,11.179-14.215,14.241-17.9,16.594-22.486a50.212,50.212,0,0,1,4.32-7.266" transform="translate(-1590.338 -3772.893)" fill="none" stroke="#a5da76" stroke-width="10"/>
  <path id="Path_506" data-name="Path 506" d="M0,63.234a145.969,145.969,0,0,0,35.152-6.088,123.059,123.059,0,0,0,18.165-7.659C59.873,46.239,65.391,41.815,70.6,37.7c1.86-1.468,3.5-3.4,5.4-4.909a13,13,0,0,0,2.258-1.964c.418-.532,1.075-.449,1.571-1.08,11.179-14.215,14.241-17.9,16.594-22.485A50.2,50.2,0,0,1,100.742,0" transform="matrix(0.616, -0.788, 0.788, 0.616, 150.369, 141)" fill="none" stroke="#a5da76" stroke-width="10"/>
  <g id="BACKGROUND" transform="translate(34.881 69.098)">
    <path id="Path_246" data-name="Path 246" d="M273.085,184.563c4.19-4.625,8.685-11.253,8-18.728s-6.644-9.456-8.428-17.433c-2.762-12.348,4.885-17.7,5.479-28.911,1.063-20.128-21.41-43.836-42.972-46.343-13.033-1.511-14.862,5.971-31.177,5.057-20.09-1.124-23.657-12.827-37.916-11.373-16.271,1.657-33.259,19.1-33.285,34.967-.025,16.36,17.995,23.689,14.325,36.23-2.425,8.288-11.745,7.85-16.852,17.7-4.85,9.345,2.9,23.724,6.955,28.841Z" transform="translate(-127.45 -66.707)" fill="#a5da76" opacity="0.47"/>
    <circle id="Ellipse_17" data-name="Ellipse 17" cx="6.24" cy="6.24" r="6.24" transform="translate(1.085 2.048)" fill="#a5def6" opacity="0.47"/>
    <circle id="Ellipse_18" data-name="Ellipse 18" cx="6.24" cy="6.24" r="6.24" transform="translate(3.519 61.127)" fill="#a5def6" opacity="0.47"/>
    <circle id="Ellipse_19" data-name="Ellipse 19" cx="3.419" cy="3.419" r="3.419" transform="translate(17.234 18.569) rotate(-45)" fill="#a5def6" opacity="0.47"/>
    <path id="Path_247" data-name="Path 247" d="M593.2,298.634a3.65,3.65,0,1,1,1.064,2.591,3.65,3.65,0,0,1-1.064-2.591Z" transform="translate(-444.502 -222.535)" fill="#a5def6" opacity="0.47"/>
    <circle id="Ellipse_20" data-name="Ellipse 20" cx="2.555" cy="2.555" r="2.555" transform="translate(147.644 67.948) rotate(-45)" fill="#a5def6" opacity="0.47"/>
    <circle id="Ellipse_21" data-name="Ellipse 21" cx="2.619" cy="2.619" r="2.619" transform="translate(0 21.987) rotate(-45)" fill="#a5def6" opacity="0.47"/>
    <circle id="Ellipse_22" data-name="Ellipse 22" cx="2.619" cy="2.619" r="2.619" transform="translate(70.401 6.37) rotate(-45)" fill="#a5def6" opacity="0.47"/>
    <circle id="Ellipse_23" data-name="Ellipse 23" cx="2.619" cy="2.619" r="2.619" transform="translate(125.924 11.158) rotate(-80.78)" fill="#a5def6" opacity="0.47"/>
  </g>
  <g id="Group_204" data-name="Group 204" transform="translate(11.591 -1226.128)">
    <g id="Group_198" data-name="Group 198" transform="translate(33.808 1334.662)">
      <rect id="Rectangle_105" data-name="Rectangle 105" width="5.633" height="21.738" transform="translate(16.157 18.103)" fill="#87be00"/>
      <path id="Path_629" data-name="Path 629" d="M356.823,267.3c1.137,3.445,4.737,5.443,8.2,6.563a36.362,36.362,0,0,0,8.612,1.722,20.015,20.015,0,0,0-13.918-19.447C357.719,259.516,355.652,263.512,356.823,267.3Z" transform="translate(-352.637 -256.106)" fill="#87be00"/>
      <path id="Path_630" data-name="Path 630" d="M360.42,260a60.1,60.1,0,0,0,11.058,11.558,4.616,4.616,0,0,1-4.324-.362,10.336,10.336,0,0,1-3.1-3.238A27.75,27.75,0,0,1,360.42,260Z" transform="translate(-349.792 -253.317)" fill="#add250"/>
      <path id="Path_631" data-name="Path 631" d="M380.8,268.016c-1.137,3.445-4.737,5.443-8.2,6.563a35.5,35.5,0,0,1-8.7,1.722,20.032,20.032,0,0,1,13.952-19.481C379.9,260.231,382.057,264.227,380.8,268.016Z" transform="translate(-347.28 -255.614)" fill="#87be00"/>
      <path id="Path_632" data-name="Path 632" d="M375.488,260a60.094,60.094,0,0,1-11.058,11.558,4.616,4.616,0,0,0,4.323-.362,10.333,10.333,0,0,0,3.1-3.238A27.744,27.744,0,0,0,375.488,260Z" transform="translate(-346.895 -253.317)" fill="#add250"/>
      <rect id="Rectangle_106" data-name="Rectangle 106" width="16.811" height="43.131" transform="translate(10.714 27.697)" fill="#5f625e"/>
      <rect id="Rectangle_107" data-name="Rectangle 107" width="5.633" height="21.738" transform="translate(38.894 18.103)" fill="#87be00"/>
      <path id="Path_633" data-name="Path 633" d="M370.024,267.3c1.154,3.445,4.754,5.443,8.2,6.563a36.67,36.67,0,0,0,8.7,1.723A20.032,20.032,0,0,0,373,256.14C370.92,259.516,368.784,263.512,370.024,267.3Z" transform="translate(-343.119 -256.106)" fill="#87be00"/>
      <path id="Path_634" data-name="Path 634" d="M373.62,260a60.007,60.007,0,0,0,11.041,11.558,4.582,4.582,0,0,1-4.306-.362,10.127,10.127,0,0,1-3.1-3.238A27.3,27.3,0,0,1,373.62,260Z" transform="translate(-340.256 -253.317)" fill="#add250"/>
      <path id="Path_635" data-name="Path 635" d="M393.963,267.995c-1.137,3.445-4.737,5.443-8.2,6.563a35.654,35.654,0,0,1-8.612,1.722,20.033,20.033,0,0,1,13.935-19.43C393.067,260.209,395.22,264.205,393.963,267.995Z" transform="translate(-337.706 -255.593)" fill="#87be00"/>
      <path id="Path_636" data-name="Path 636" d="M388.688,260a60.634,60.634,0,0,1-11.058,11.558,4.581,4.581,0,0,0,4.306-.362,10.129,10.129,0,0,0,3.1-3.238A27.8,27.8,0,0,0,388.688,260Z" transform="translate(-337.358 -253.317)" fill="#add250"/>
      <rect id="Rectangle_108" data-name="Rectangle 108" width="16.811" height="43.131" transform="translate(33.451 27.697)" fill="#5f625e"/>
      <rect id="Rectangle_109" data-name="Rectangle 109" width="5.633" height="21.738" transform="translate(61.613 18.103)" fill="#87be00"/>
      <path id="Path_637" data-name="Path 637" d="M383.227,267.3c1.137,3.445,4.737,5.443,8.2,6.563a36.343,36.343,0,0,0,8.7,1.723,20.05,20.05,0,0,0-13.935-19.447C384.122,259.516,381.969,263.512,383.227,267.3Z" transform="translate(-333.585 -256.106)" fill="#87be00"/>
      <path id="Path_638" data-name="Path 638" d="M386.81,260a60.1,60.1,0,0,0,11.058,11.558,4.616,4.616,0,0,1-4.323-.362,10.334,10.334,0,0,1-3.1-3.238A27.748,27.748,0,0,1,386.81,260Z" transform="translate(-330.726 -253.317)" fill="#add250"/>
      <path id="Path_639" data-name="Path 639" d="M407.153,267.995c-1.137,3.445-4.737,5.443-8.2,6.563a35.509,35.509,0,0,1-8.612,1.722,20.015,20.015,0,0,1,13.918-19.43C406.257,260.209,408.41,264.205,407.153,267.995Z" transform="translate(-328.177 -255.593)" fill="#87be00"/>
      <path id="Path_640" data-name="Path 640" d="M401.878,260a59.58,59.58,0,0,1-11.058,11.558,4.6,4.6,0,0,0,4.324-.362,10.13,10.13,0,0,0,3.1-3.238A27.3,27.3,0,0,0,401.878,260Z" transform="translate(-327.829 -253.317)" fill="#add250"/>
      <rect id="Rectangle_110" data-name="Rectangle 110" width="16.811" height="43.131" transform="translate(56.17 27.697)" fill="#5f625e"/>
      <rect id="Rectangle_111" data-name="Rectangle 111" width="5.633" height="21.738" transform="translate(84.35 18.103)" fill="#87be00"/>
      <path id="Path_641" data-name="Path 641" d="M396.427,267.316c1.137,3.445,4.737,5.443,8.2,6.563a36.362,36.362,0,0,0,8.612,1.722,20.015,20.015,0,0,0-13.832-19.481C397.322,259.531,395.169,263.527,396.427,267.316Z" transform="translate(-324.048 -256.12)" fill="#87be00"/>
      <path id="Path_642" data-name="Path 642" d="M400,260a60.1,60.1,0,0,0,11.058,11.558,4.616,4.616,0,0,1-4.323-.362,10.334,10.334,0,0,1-3.1-3.238A27.751,27.751,0,0,1,400,260Z" transform="translate(-321.196 -253.317)" fill="#add250"/>
      <path id="Path_643" data-name="Path 643" d="M420.353,267.995c-1.137,3.445-4.737,5.443-8.2,6.563a35.511,35.511,0,0,1-8.612,1.722,20,20,0,0,1,13.918-19.43C419.457,260.209,421.559,264.205,420.353,267.995Z" transform="translate(-318.64 -255.593)" fill="#87be00"/>
      <path id="Path_644" data-name="Path 644" d="M415.078,260a60.1,60.1,0,0,1-11.058,11.558,4.616,4.616,0,0,0,4.323-.362,10.335,10.335,0,0,0,3.1-3.238A27.75,27.75,0,0,0,415.078,260Z" transform="translate(-318.292 -253.317)" fill="#add250"/>
      <rect id="Rectangle_112" data-name="Rectangle 112" width="16.811" height="43.131" transform="translate(78.907 27.697)" fill="#5f625e"/>
      <rect id="Rectangle_113" data-name="Rectangle 113" width="5.633" height="21.738" transform="translate(106.225 18.103)" fill="#87be00"/>
      <path id="Path_645" data-name="Path 645" d="M409.168,267.3c1.137,3.445,4.737,5.443,8.2,6.563a36.343,36.343,0,0,0,8.612,1.723,20.05,20.05,0,0,0-13.935-19.447C410.012,259.516,407.859,263.512,409.168,267.3Z" transform="translate(-314.862 -256.106)" fill="#87be00"/>
      <path id="Path_646" data-name="Path 646" d="M412.71,260a60.1,60.1,0,0,0,11.058,11.558,4.616,4.616,0,0,1-4.323-.362,10.335,10.335,0,0,1-3.1-3.238A27.749,27.749,0,0,1,412.71,260Z" transform="translate(-312.014 -253.317)" fill="#add250"/>
      <path id="Path_647" data-name="Path 647" d="M433.053,267.995c-1.137,3.445-4.737,5.443-8.2,6.563a35.51,35.51,0,0,1-8.612,1.722,20.015,20.015,0,0,1,13.918-19.43C432.157,260.209,434.31,264.205,433.053,267.995Z" transform="translate(-309.465 -255.593)" fill="#87be00"/>
      <path id="Path_648" data-name="Path 648" d="M427.778,260a59.577,59.577,0,0,1-11.058,11.558,4.616,4.616,0,0,0,4.323-.362,10.335,10.335,0,0,0,3.1-3.238A27.746,27.746,0,0,0,427.778,260Z" transform="translate(-309.117 -253.317)" fill="#add250"/>
      <rect id="Rectangle_114" data-name="Rectangle 114" width="16.811" height="43.131" transform="translate(100.782 27.697)" fill="#5f625e"/>
      <rect id="Rectangle_115" data-name="Rectangle 115" width="115.699" height="15.657" transform="translate(6.08 40.874)" fill="#da9616"/>
      <rect id="Rectangle_116" data-name="Rectangle 116" width="115.699" height="15.657" transform="translate(6.08 67.952)" fill="#da9616"/>
      <rect id="Rectangle_117" data-name="Rectangle 117" width="21.152" height="59.391" transform="translate(0 32.245)" fill="#f0b950"/>
      <rect id="Rectangle_118" data-name="Rectangle 118" width="21.152" height="59.391" transform="translate(52.863 32.245)" fill="#f0b950"/>
      <rect id="Rectangle_119" data-name="Rectangle 119" width="21.152" height="59.391" transform="translate(105.743 32.245)" fill="#f0b950"/>
      <path id="Path_649" data-name="Path 649" d="M364.585,281.093a2.963,2.963,0,1,1-2.945-2.963A2.963,2.963,0,0,1,364.585,281.093Z" transform="translate(-351.064 -240.218)" fill="#bf7d3a"/>
      <path id="Path_650" data-name="Path 650" d="M364.585,305.243a2.963,2.963,0,1,1-2.945-2.963A2.963,2.963,0,0,1,364.585,305.243Z" transform="translate(-351.064 -222.77)" fill="#bf7d3a"/>
      <path id="Path_651" data-name="Path 651" d="M395.261,281.093A2.946,2.946,0,1,1,394.4,279,2.946,2.946,0,0,1,395.261,281.093Z" transform="translate(-328.876 -240.218)" fill="#bf7d3a"/>
      <path id="Path_652" data-name="Path 652" d="M395.261,305.243a2.946,2.946,0,1,1-.857-2.094A2.946,2.946,0,0,1,395.261,305.243Z" transform="translate(-328.876 -222.77)" fill="#bf7d3a"/>
      <path id="Path_653" data-name="Path 653" d="M425.975,281.093a2.963,2.963,0,1,1-2.963-2.963A2.963,2.963,0,0,1,425.975,281.093Z" transform="translate(-306.711 -240.218)" fill="#bf7d3a"/>
      <path id="Path_654" data-name="Path 654" d="M425.975,305.243a2.963,2.963,0,1,1-2.963-2.963A2.963,2.963,0,0,1,425.975,305.243Z" transform="translate(-306.711 -222.77)" fill="#bf7d3a"/>
    </g>
  </g>
</svg>
