<svg xmlns="http://www.w3.org/2000/svg" width="18.568" height="18.564" viewBox="0 0 18.568 18.564">
  <path id="Icon_awesome-instagram" data-name="Icon awesome-instagram" d="M9.281,6.76a4.76,4.76,0,1,0,4.76,4.76A4.752,4.752,0,0,0,9.281,6.76Zm0,7.854a3.094,3.094,0,1,1,3.094-3.094,3.1,3.1,0,0,1-3.094,3.094Zm6.064-8.049a1.11,1.11,0,1,1-1.11-1.11A1.108,1.108,0,0,1,15.345,6.565ZM18.5,7.692A5.494,5.494,0,0,0,17,3.8a5.53,5.53,0,0,0-3.89-1.5c-1.533-.087-6.127-.087-7.659,0A5.522,5.522,0,0,0,1.56,3.8a5.512,5.512,0,0,0-1.5,3.89c-.087,1.533-.087,6.127,0,7.659a5.494,5.494,0,0,0,1.5,3.89,5.537,5.537,0,0,0,3.89,1.5c1.533.087,6.127.087,7.659,0a5.494,5.494,0,0,0,3.89-1.5,5.53,5.53,0,0,0,1.5-3.89c.087-1.533.087-6.122,0-7.655Zm-1.98,9.3a3.133,3.133,0,0,1-1.765,1.765c-1.222.485-4.122.373-5.472.373s-4.254.108-5.472-.373a3.133,3.133,0,0,1-1.765-1.765c-.485-1.222-.373-4.122-.373-5.472s-.108-4.254.373-5.472A3.133,3.133,0,0,1,3.809,4.283C5.031,3.8,7.93,3.91,9.281,3.91s4.254-.108,5.472.373a3.133,3.133,0,0,1,1.765,1.765c.485,1.222.373,4.122.373,5.472S17,15.774,16.518,16.992Z" transform="translate(0.005 -2.238)" fill="#fff"/>
</svg>
