<svg xmlns="http://www.w3.org/2000/svg" width="18.558" height="18.557" viewBox="0 0 18.558 18.557">
  <path id="Icon_awesome-linkedin-in" data-name="Icon awesome-linkedin-in" d="M4.154,18.558H.307V6.168H4.154ZM2.228,4.478A2.239,2.239,0,1,1,4.456,2.229,2.247,2.247,0,0,1,2.228,4.478Zm16.325,14.08H14.714V12.527c0-1.437-.029-3.281-2-3.281-2,0-2.307,1.562-2.307,3.177v6.135H6.564V6.168h3.69v1.69h.054a4.043,4.043,0,0,1,3.64-2c3.894,0,4.61,2.564,4.61,5.895v6.806Z" transform="translate(0 -0.001)" fill="#fff"/>
</svg>
